<?xml version="1.0" encoding="UTF-8" standalone="no"?>
<svg
   xmlns:dc="http://purl.org/dc/elements/1.1/"
   xmlns:cc="http://creativecommons.org/ns#"
   xmlns:rdf="http://www.w3.org/1999/02/22-rdf-syntax-ns#"
   xmlns:svg="http://www.w3.org/2000/svg"
   xmlns="http://www.w3.org/2000/svg"
   xmlns:sodipodi="http://sodipodi.sourceforge.net/DTD/sodipodi-0.dtd"
   xmlns:inkscape="http://www.inkscape.org/namespaces/inkscape"
   height="16"
   id="svg7384"
   version="1.1"
   width="16"
   inkscape:version="0.91 r13725"
   sodipodi:docname="city-symbolic.svg">
  <sodipodi:namedview
     pagecolor="#ffffff"
     bordercolor="#666666"
     borderopacity="1"
     objecttolerance="10"
     gridtolerance="10"
     guidetolerance="10"
     inkscape:pageopacity="0"
     inkscape:pageshadow="2"
     inkscape:window-width="1680"
     inkscape:window-height="994"
     id="namedview18"
     showgrid="false"
     inkscape:zoom="41.7193"
     inkscape:cx="6.3134046"
     inkscape:cy="8.3785054"
     inkscape:window-x="0"
     inkscape:window-y="30"
     inkscape:window-maximized="1"
     inkscape:current-layer="svg7384" />
  <metadata
     id="metadata90">
    <rdf:RDF>
      <cc:Work
         rdf:about="">
        <dc:format>image/svg+xml</dc:format>
        <dc:type
           rdf:resource="http://purl.org/dc/dcmitype/StillImage" />
        <dc:title>elementary Symbolic Icon Theme</dc:title>
      </cc:Work>
    </rdf:RDF>
  </metadata>
  <title
     id="title9167">elementary Symbolic Icon Theme</title>
  <defs
     id="defs7386">
    <filter
       color-interpolation-filters="sRGB"
       id="filter7554">
      <feBlend
         id="feBlend7556"
         in2="BackgroundImage"
         mode="darken" />
    </filter>
    <filter
       color-interpolation-filters="sRGB"
       id="filter7554-7">
      <feBlend
         id="feBlend7556-6"
         in2="BackgroundImage"
         mode="darken" />
    </filter>
  </defs>
  <g
     id="layer9"
     label="status"
     style="display:inline"
     transform="translate(-453.00035,52)" />
  <g
     id="layer10"
     style="display:inline"
     transform="translate(-453.00035,52)" />
  <g
     id="layer13"
     style="display:inline"
     transform="translate(-453.00035,52)" />
  <g
     id="layer14"
     transform="translate(-453.00035,52)" />
  <g
     id="layer15"
     style="display:inline"
     transform="translate(-453.00035,52)" />
  <g
     id="g71291"
     style="display:inline"
     transform="translate(-453.00035,52)" />
  <path
     style="fill:#bebebe;fill-opacity:1;fill-rule:evenodd;stroke:none;stroke-width:1px;stroke-linecap:butt;stroke-linejoin:miter;stroke-opacity:1"
     d="m 6.7712214,2.7454679 -5.4459024,2.7063334 0,0.9548191 0.9477749,0 0,5.3985626 -1.2730939,0 0,1.417119 14,0.03223 0,-1.449349 -1.273094,0 0,-5.3985628 0.842019,0 -1.4e-4,-0.9548191 -5.4457627,-2.7063334 z m -3.2260444,3.6611525 1.2730939,0 0,5.3985626 -1.2730939,0 z m 2.5461878,0 1.2720883,0 0,5.3985626 -1.2720883,0 z m 2.5451822,0 1.2730938,0 0,5.3985626 -1.2730938,0 z m 2.545182,0 1.273094,0 0,5.3985626 -1.273094,0 z"
     id="path4226"
     inkscape:connector-curvature="0"
     sodipodi:nodetypes="ccccccccccccccccccccccccccccccccccc" />
  <path
     style="fill:#373c3c;fill-opacity:1;fill-rule:evenodd;stroke:#000000;stroke-width:1px;stroke-linecap:butt;stroke-linejoin:miter;stroke-opacity:1"
     d="M -1.6638939,5.2617584 11.341816,1.0948785 18.034086,10.186248 4.5232854,14.605668 Z"
     id="path4210"
     inkscape:connector-curvature="0"
     sodipodi:nodetypes="ccccc" />
  <path
     style="fill:#373c3c;fill-opacity:1;fill-rule:evenodd;stroke:#000000;stroke-width:1px;stroke-linecap:butt;stroke-linejoin:miter;stroke-opacity:1"
     d="m 11.657486,-0.23095159 1.76777,2.08344009 c 0,0 1.42689,-1.07364009 1.51523,-2.08344009 0.11228,-1.28348001 -1.02145,-2.58026991 -2.30982,-2.58402991 -5.5915302,-0.0163 -11.8741599,2.25174989 -16.9742299,4.06676 -1.39676,0.49708 -2.14007,2.5653499 -0.92984,3.9117199 0.67764,0.75386 2.85189,1.23468 2.85189,1.23468 l -1.01419,-1.74064 z"
     id="path4212"
     inkscape:connector-curvature="0"
     sodipodi:nodetypes="ccssssccc" />
  <path
     style="fill:#373c3c;fill-opacity:1;fill-rule:evenodd;stroke:#000000;stroke-width:1px;stroke-linecap:butt;stroke-linejoin:miter;stroke-opacity:1"
     d="m 2.8576364,14.315728 1.239159,1.72257 16.0038106,-5.27234 -1.61348,-2.0382599 c 0,0 3.2862,-0.0541 3.85011,1.4547199 0.36957,0.9888 -0.64006,3.059 -1.60714,3.48215 -6.45928,2.82624 -10.35456,3.54653 -13.5714302,4.46429 -1.6051904,0.45795 -3.3333304,0.80229 -4.9999994,-0.26786 -1.5633803,-1.50976 0.69897,-3.54527 0.69897,-3.54527 z"
     id="path4216"
     inkscape:connector-curvature="0"
     sodipodi:nodetypes="ccccssscc" />
  <path
     style="fill:none;fill-rule:evenodd;stroke:#000000;stroke-width:1px;stroke-linecap:butt;stroke-linejoin:miter;stroke-opacity:1"
     d="m 1.8716364,6.6507184 8.8388396,-2.77792"
     id="path4218"
     inkscape:connector-curvature="0" />
  <path
     style="fill:none;fill-rule:evenodd;stroke:#000000;stroke-width:1px;stroke-linecap:butt;stroke-linejoin:miter;stroke-opacity:1"
     d="m 5.2809054,8.7972881 3.7880704,-1.13642"
     id="path4220"
     inkscape:connector-curvature="0" />
  <path
     style="fill:none;fill-rule:evenodd;stroke:#000000;stroke-width:1px;stroke-linecap:butt;stroke-linejoin:miter;stroke-opacity:1"
     d="M 4.7758254,12.080288 14.246006,8.6710181"
     id="path4222"
     inkscape:connector-curvature="0" />
</svg>
