<?xml version="1.0" encoding="UTF-8" standalone="no"?>
<svg
   xmlns:dc="http://purl.org/dc/elements/1.1/"
   xmlns:cc="http://creativecommons.org/ns#"
   xmlns:rdf="http://www.w3.org/1999/02/22-rdf-syntax-ns#"
   xmlns:svg="http://www.w3.org/2000/svg"
   xmlns="http://www.w3.org/2000/svg"
   xmlns:sodipodi="http://sodipodi.sourceforge.net/DTD/sodipodi-0.dtd"
   xmlns:inkscape="http://www.inkscape.org/namespaces/inkscape"
   height="16"
   id="svg7384"
   version="1.1"
   width="16"
   inkscape:version="0.91 r13725"
   sodipodi:docname="education-symbolic.svg">
  <sodipodi:namedview
     pagecolor="#ffffff"
     bordercolor="#666666"
     borderopacity="1"
     objecttolerance="10"
     gridtolerance="10"
     guidetolerance="10"
     inkscape:pageopacity="0"
     inkscape:pageshadow="2"
     inkscape:window-width="1680"
     inkscape:window-height="994"
     id="namedview18"
     showgrid="false"
     inkscape:zoom="41.7193"
     inkscape:cx="6.3134046"
     inkscape:cy="8.3785054"
     inkscape:window-x="0"
     inkscape:window-y="30"
     inkscape:window-maximized="1"
     inkscape:current-layer="svg7384" />
  <metadata
     id="metadata90">
    <rdf:RDF>
      <cc:Work
         rdf:about="">
        <dc:format>image/svg+xml</dc:format>
        <dc:type
           rdf:resource="http://purl.org/dc/dcmitype/StillImage" />
        <dc:title>elementary Symbolic Icon Theme</dc:title>
      </cc:Work>
    </rdf:RDF>
  </metadata>
  <title
     id="title9167">elementary Symbolic Icon Theme</title>
  <defs
     id="defs7386">
    <filter
       color-interpolation-filters="sRGB"
       id="filter7554">
      <feBlend
         id="feBlend7556"
         in2="BackgroundImage"
         mode="darken" />
    </filter>
    <filter
       color-interpolation-filters="sRGB"
       id="filter7554-7">
      <feBlend
         id="feBlend7556-6"
         in2="BackgroundImage"
         mode="darken" />
    </filter>
  </defs>
  <g
     id="layer9"
     label="status"
     style="display:inline"
     transform="translate(-453.00035,52)" />
  <g
     id="layer10"
     style="display:inline"
     transform="translate(-453.00035,52)" />
  <g
     id="layer13"
     style="display:inline"
     transform="translate(-453.00035,52)" />
  <g
     id="layer14"
     transform="translate(-453.00035,52)" />
  <g
     id="layer15"
     style="display:inline"
     transform="translate(-453.00035,52)" />
  <g
     id="g71291"
     style="display:inline"
     transform="translate(-453.00035,52)" />
  <g
     id="g4325"
     transform="matrix(0.49474679,0,0,0.49474679,3.9100822,4.1030643)">
    <path
       sodipodi:nodetypes="ccssssccc"
       inkscape:connector-curvature="0"
       id="path4212"
       d="m 11.657486,-0.23095159 1.76777,2.08344009 c 0,0 1.42689,-1.07364009 1.51523,-2.08344009 0.11228,-1.28348001 -1.02145,-2.58026991 -2.30982,-2.58402991 -5.5915302,-0.0163 -11.8741599,2.25174989 -16.9742299,4.06676 -1.39676,0.49708 -2.14007,2.5653499 -0.92984,3.9117199 0.67764,0.75386 2.85189,1.23468 2.85189,1.23468 l -1.01419,-1.74064 z"
       style="fill:#bebebe;fill-opacity:1;fill-rule:evenodd;stroke:none;stroke-width:1px;stroke-linecap:butt;stroke-linejoin:miter;stroke-opacity:1" />
    <path
       sodipodi:nodetypes="ccccssscc"
       inkscape:connector-curvature="0"
       id="path4216"
       d="m 2.8576364,14.315728 1.239159,1.72257 16.0038106,-5.27234 -1.61348,-2.0382599 c 0,0 3.2862,-0.0541 3.85011,1.4547199 0.36957,0.9888 -0.64006,3.059 -1.60714,3.48215 -6.45928,2.82624 -10.35456,3.54653 -13.5714302,4.46429 -1.6051904,0.45795 -3.3333304,0.80229 -4.9999994,-0.26786 -1.5633803,-1.50976 0.69897,-3.54527 0.69897,-3.54527 z"
       style="fill:#bebebe;fill-opacity:1;fill-rule:evenodd;stroke:none;stroke-width:1px;stroke-linecap:butt;stroke-linejoin:miter;stroke-opacity:1" />
    <path
       d="M 4.7758254,12.080288 14.246006,8.6710181 m -8.9651006,0.12627 3.7880704,-1.13642 M 1.8716364,6.6507184 10.710476,3.8727984 m -12.3743699,1.38896 13.0057099,-4.1668799 6.69227,9.0913695 -13.5108006,4.41942 z"
       style="fill:#bebebe;fill-opacity:1;fill-rule:evenodd;stroke:none;stroke-width:1px;stroke-linecap:butt;stroke-linejoin:miter;stroke-opacity:1"
       id="path4222"
       inkscape:connector-curvature="0" />
  </g>
</svg>
