<?xml version="1.0" encoding="utf-8"?>
<!-- Generator: Adobe Illustrator 15.1.0, SVG Export Plug-In . SVG Version: 6.00 Build 0)  -->
<!DOCTYPE svg PUBLIC "-//W3C//DTD SVG 1.1//EN" "http://www.w3.org/Graphics/SVG/1.1/DTD/svg11.dtd">
<svg version="1.1" id="Calque_1" xmlns="http://www.w3.org/2000/svg" xmlns:xlink="http://www.w3.org/1999/xlink" x="0px" y="0px"
	 width="59.874px" height="46.678px" viewBox="0 0 59.874 46.678" enable-background="new 0 0 59.874 46.678" xml:space="preserve">
<g>
	<polyline fill="#E1E1E1" points="21.154,21.733 21.154,21.744 20.775,22.048 20.518,20.588 21,20.861 21.154,21.733 	"/>
	<polyline fill="#F2F2F2" points="19.588,15.803 19.742,15.679 20.125,15.897 19.972,16.02 19.588,15.803 	"/>
	<polyline fill="#0E8ECE" points="21.363,16.806 21.71,20.847 21.407,21.091 21.06,17.05 21.363,16.806 	"/>
	<polyline fill="#008ACC" points="18.476,19.432 17.32,14.933 21.06,17.05 21.407,21.091 21,20.861 20.518,20.588 20.134,20.371 
		18.476,19.432 	"/>
	<polyline fill="#369DD8" points="21.06,17.05 17.32,14.933 17.624,14.69 19.588,15.803 19.972,16.02 20.167,16.13 21.363,16.806 
		21.06,17.05 	"/>
	<polyline fill="#E1E1E1" points="19.972,16.02 20.125,15.897 20.167,16.13 19.972,16.02 	"/>
	<polyline fill="#D0CFCF" points="20.391,21.83 20.134,20.371 20.518,20.588 20.775,22.048 20.391,21.83 	"/>
	<path fill="#E2E1E1" d="M21.154,21.744v-0.01L21,20.861l0.407,0.23l0.303-0.244l-0.348-4.041l-1.196-0.676l-0.042-0.233
		l-0.384-0.218l-0.153,0.124l-1.965-1.113l-0.304,0.243l1.156,4.499l1.658,0.939l0.257,1.459l0.384,0.218L21.154,21.744
		 M16.477,31.974l-4.487-2.591V10.386l17.947,10.362v18.996l-5.983-3.453v-1.728v-1.727v-6.77l-0.358-0.753l-0.432-0.718
		l-0.494-0.664l-0.542-0.592l-0.575-0.502l-0.591-0.398l-0.591-0.284l-0.574-0.161l-0.331-0.021l-0.211-0.014l-0.231,0.044
		l-0.263,0.05l-0.432,0.22l-0.358,0.338v8.497L16.477,31.974"/>
	<polyline fill="#E2E1E1" points="47.883,29.383 29.937,39.745 29.937,20.749 47.883,10.386 47.883,29.383 	"/>
	<polyline fill="#E2E1E1" points="22.459,37.155 16.477,33.701 16.477,31.974 22.459,35.427 22.459,37.155 	"/>
	<polyline fill="#E2E1E1" points="23.954,36.292 22.459,37.155 22.459,35.427 23.954,34.564 23.954,36.292 	"/>
	<polyline fill="#E2E1E1" points="22.459,35.427 16.477,31.974 17.972,31.111 19.467,30.247 23.954,32.837 23.954,34.564 
		22.459,35.427 	"/>
	<polyline fill="#E2E1E1" points="17.972,31.111 17.972,22.614 19.025,22.006 19.256,21.961 19.467,21.975 19.467,30.247 
		17.972,31.111 	"/>
	<polyline fill="#E2E1E1" points="23.954,32.837 19.467,30.247 19.467,21.975 19.798,21.996 20.372,22.157 20.963,22.44 
		21.554,22.839 22.129,23.341 22.67,23.933 23.164,24.597 23.596,25.315 23.954,26.068 23.954,32.837 	"/>
	<polyline fill="#2093D2" points="29.937,0.025 44.893,8.66 29.937,17.294 14.981,8.66 29.937,0.025 	"/>
	<polyline fill="#2093D2" points="29.937,17.294 44.893,8.66 44.893,10.386 29.937,19.021 29.937,17.294 	"/>
	<polyline fill="#2093D2" points="14.981,8.66 29.937,17.294 29.937,19.021 14.981,10.386 14.981,8.66 	"/>
	<polyline fill="#E2E1E1" points="47.883,10.386 29.937,20.749 11.99,10.386 14.981,8.66 14.981,10.386 29.937,19.021 
		44.893,10.386 44.893,8.66 47.883,10.386 	"/>
	<polyline fill="#8F8E8E" points="17.972,22.614 18.331,22.275 18.762,22.056 19.025,22.006 17.972,22.614 	"/>
	
		<line fill="none" stroke="#010202" stroke-width="0.05" stroke-linecap="round" stroke-linejoin="round" stroke-miterlimit="10" x1="29.937" y1="39.745" x2="29.937" y2="20.749"/>
	
		<line fill="none" stroke="#010202" stroke-width="0.05" stroke-linecap="round" stroke-linejoin="round" stroke-miterlimit="10" x1="16.477" y1="31.974" x2="22.459" y2="35.427"/>
	
		<line fill="none" stroke="#010202" stroke-width="0.05" stroke-linecap="round" stroke-linejoin="round" stroke-miterlimit="10" x1="23.954" y1="34.564" x2="22.459" y2="35.427"/>
	
		<line fill="none" stroke="#010202" stroke-width="0.05" stroke-linecap="round" stroke-linejoin="round" stroke-miterlimit="10" x1="22.459" y1="37.155" x2="22.459" y2="35.427"/>
	
		<line fill="none" stroke="#010202" stroke-width="0.05" stroke-linecap="round" stroke-linejoin="round" stroke-miterlimit="10" x1="23.954" y1="36.292" x2="23.954" y2="34.564"/>
	
		<line fill="none" stroke="#010202" stroke-width="0.05" stroke-linecap="round" stroke-linejoin="round" stroke-miterlimit="10" x1="17.972" y1="22.614" x2="17.972" y2="31.111"/>
	
		<line fill="none" stroke="#010202" stroke-width="0.05" stroke-linecap="round" stroke-linejoin="round" stroke-miterlimit="10" x1="19.467" y1="30.247" x2="23.954" y2="32.837"/>
	
		<line fill="none" stroke="#010202" stroke-width="0.05" stroke-linecap="round" stroke-linejoin="round" stroke-miterlimit="10" x1="19.467" y1="21.975" x2="19.467" y2="30.247"/>
	
		<line fill="none" stroke="#010202" stroke-width="0.05" stroke-linecap="round" stroke-linejoin="round" stroke-miterlimit="10" x1="17.972" y1="31.111" x2="19.467" y2="30.247"/>
	
		<line fill="none" stroke="#010202" stroke-width="0.05" stroke-linecap="round" stroke-linejoin="round" stroke-miterlimit="10" x1="29.937" y1="17.294" x2="44.893" y2="8.66"/>
	
		<line fill="none" stroke="#010202" stroke-width="0.05" stroke-linecap="round" stroke-linejoin="round" stroke-miterlimit="10" x1="14.981" y1="8.66" x2="29.937" y2="17.294"/>
	
		<line fill="none" stroke="#010202" stroke-width="0.05" stroke-linecap="round" stroke-linejoin="round" stroke-miterlimit="10" x1="29.937" y1="20.749" x2="47.883" y2="10.386"/>
	
		<line fill="none" stroke="#010202" stroke-width="0.05" stroke-linecap="round" stroke-linejoin="round" stroke-miterlimit="10" x1="11.99" y1="10.386" x2="29.937" y2="20.749"/>
	
		<polyline fill="none" stroke="#010202" stroke-width="0.05" stroke-linecap="round" stroke-linejoin="round" stroke-miterlimit="10" points="
		14.981,10.386 29.937,19.021 44.893,10.386 	"/>
	
		<line fill="none" stroke="#010202" stroke-width="0.05" stroke-linecap="round" stroke-linejoin="round" stroke-miterlimit="10" x1="29.937" y1="17.294" x2="29.937" y2="19.021"/>
	
		<line fill="none" stroke="#010202" stroke-width="0.05" stroke-linecap="round" stroke-linejoin="round" stroke-miterlimit="10" x1="17.972" y1="22.614" x2="18.331" y2="22.275"/>
	
		<line fill="none" stroke="#010202" stroke-width="0.05" stroke-linecap="round" stroke-linejoin="round" stroke-miterlimit="10" x1="17.972" y1="22.614" x2="19.025" y2="22.006"/>
	
		<line fill="none" stroke="#010202" stroke-width="0.05" stroke-linecap="round" stroke-linejoin="round" stroke-miterlimit="10" x1="21.06" y1="17.05" x2="17.32" y2="14.933"/>
	
		<line fill="none" stroke="#010202" stroke-width="0.05" stroke-linecap="round" stroke-linejoin="round" stroke-miterlimit="10" x1="21.407" y1="21.091" x2="21.06" y2="17.05"/>
	
		<line fill="none" stroke="#010202" stroke-width="0.05" stroke-linecap="round" stroke-linejoin="round" stroke-miterlimit="10" x1="21.363" y1="16.806" x2="21.06" y2="17.05"/>
	
		<line fill="none" stroke="#010202" stroke-width="0.05" stroke-linecap="round" stroke-linejoin="round" stroke-miterlimit="10" x1="20.125" y1="15.897" x2="19.972" y2="16.02"/>
	
		<line fill="none" stroke="#010202" stroke-width="0.05" stroke-linecap="round" stroke-linejoin="round" stroke-miterlimit="10" x1="20.775" y1="22.048" x2="20.518" y2="20.588"/>
	
		<line fill="none" stroke="#010202" stroke-width="0.05" stroke-linecap="round" stroke-linejoin="round" stroke-miterlimit="10" x1="11.99" y1="29.383" x2="16.477" y2="31.974"/>
	
		<polyline fill="none" stroke="#010202" stroke-width="0.05" stroke-linecap="round" stroke-linejoin="round" stroke-miterlimit="10" points="
		29.937,39.745 47.883,29.383 47.883,10.386 	"/>
	
		<line fill="none" stroke="#010202" stroke-width="0.05" stroke-linecap="round" stroke-linejoin="round" stroke-miterlimit="10" x1="11.99" y1="29.383" x2="11.99" y2="10.386"/>
	
		<line fill="none" stroke="#010202" stroke-width="0.05" stroke-linecap="round" stroke-linejoin="round" stroke-miterlimit="10" x1="23.954" y1="36.292" x2="29.937" y2="39.745"/>
	
		<line fill="none" stroke="#010202" stroke-width="0.05" stroke-linecap="round" stroke-linejoin="round" stroke-miterlimit="10" x1="16.477" y1="33.701" x2="22.459" y2="37.155"/>
	
		<line fill="none" stroke="#010202" stroke-width="0.05" stroke-linecap="round" stroke-linejoin="round" stroke-miterlimit="10" x1="23.954" y1="36.292" x2="22.459" y2="37.155"/>
	
		<line fill="none" stroke="#010202" stroke-width="0.05" stroke-linecap="round" stroke-linejoin="round" stroke-miterlimit="10" x1="17.972" y1="31.111" x2="16.477" y2="31.974"/>
	
		<line fill="none" stroke="#010202" stroke-width="0.05" stroke-linecap="round" stroke-linejoin="round" stroke-miterlimit="10" x1="16.477" y1="33.701" x2="16.477" y2="31.974"/>
	
		<polyline fill="none" stroke="#010202" stroke-width="0.05" stroke-linecap="round" stroke-linejoin="round" stroke-miterlimit="10" points="
		44.893,8.66 29.937,0.025 14.981,8.66 	"/>
	
		<line fill="none" stroke="#010202" stroke-width="0.05" stroke-linecap="round" stroke-linejoin="round" stroke-miterlimit="10" x1="14.981" y1="8.66" x2="14.981" y2="10.386"/>
	
		<line fill="none" stroke="#010202" stroke-width="0.05" stroke-linecap="round" stroke-linejoin="round" stroke-miterlimit="10" x1="44.893" y1="8.66" x2="44.893" y2="10.386"/>
	
		<line fill="none" stroke="#010202" stroke-width="0.05" stroke-linecap="round" stroke-linejoin="round" stroke-miterlimit="10" x1="18.331" y1="22.275" x2="18.762" y2="22.056"/>
	
		<polyline fill="none" stroke="#010202" stroke-width="0.05" stroke-linecap="round" stroke-linejoin="round" stroke-miterlimit="10" points="
		19.798,21.996 20.372,22.157 20.963,22.44 21.554,22.839 22.129,23.341 22.67,23.933 23.164,24.597 23.596,25.315 23.954,26.068 	
		"/>
	
		<line fill="none" stroke="#010202" stroke-width="0.05" stroke-linecap="round" stroke-linejoin="round" stroke-miterlimit="10" x1="19.588" y1="15.803" x2="19.742" y2="15.679"/>
	
		<line fill="none" stroke="#010202" stroke-width="0.05" stroke-linecap="round" stroke-linejoin="round" stroke-miterlimit="10" x1="21.71" y1="20.848" x2="21.363" y2="16.806"/>
	
		<line fill="none" stroke="#010202" stroke-width="0.05" stroke-linecap="round" stroke-linejoin="round" stroke-miterlimit="10" x1="21.154" y1="21.744" x2="20.775" y2="22.048"/>
	
		<line fill="none" stroke="#010202" stroke-width="0.05" stroke-linecap="round" stroke-linejoin="round" stroke-miterlimit="10" x1="18.476" y1="19.432" x2="17.32" y2="14.933"/>
	
		<line fill="none" stroke="#010202" stroke-width="0.05" stroke-linecap="round" stroke-linejoin="round" stroke-miterlimit="10" x1="21.71" y1="20.848" x2="21.407" y2="21.091"/>
	
		<line fill="none" stroke="#010202" stroke-width="0.05" stroke-linecap="round" stroke-linejoin="round" stroke-miterlimit="10" x1="19.742" y1="15.679" x2="20.125" y2="15.897"/>
	
		<line fill="none" stroke="#010202" stroke-width="0.05" stroke-linecap="round" stroke-linejoin="round" stroke-miterlimit="10" x1="21.154" y1="21.733" x2="21" y2="20.861"/>
	
		<line fill="none" stroke="#010202" stroke-width="0.05" stroke-linecap="round" stroke-linejoin="round" stroke-miterlimit="10" x1="20.167" y1="16.13" x2="20.125" y2="15.897"/>
	
		<line fill="none" stroke="#010202" stroke-width="0.05" stroke-linecap="round" stroke-linejoin="round" stroke-miterlimit="10" x1="17.32" y1="14.933" x2="17.624" y2="14.69"/>
	
		<line fill="none" stroke="#010202" stroke-width="0.05" stroke-linecap="round" stroke-linejoin="round" stroke-miterlimit="10" x1="20.391" y1="21.83" x2="20.134" y2="20.371"/>
	
		<polyline fill="none" stroke="#010202" stroke-width="0.05" stroke-linecap="round" stroke-linejoin="round" stroke-miterlimit="10" points="
		23.954,34.564 23.954,32.837 23.954,26.068 	"/>
	
		<line fill="none" stroke="#010202" stroke-width="0.05" stroke-linecap="round" stroke-linejoin="round" stroke-miterlimit="10" x1="47.883" y1="10.386" x2="44.893" y2="8.66"/>
	
		<line fill="none" stroke="#010202" stroke-width="0.05" stroke-linecap="round" stroke-linejoin="round" stroke-miterlimit="10" x1="14.981" y1="8.66" x2="11.99" y2="10.386"/>
	
		<polyline fill="none" stroke="#010202" stroke-width="0.05" stroke-linecap="round" stroke-linejoin="round" stroke-miterlimit="10" points="
		18.762,22.056 19.025,22.006 19.256,21.961 19.467,21.975 19.798,21.996 	"/>
	
		<line fill="none" stroke="#010202" stroke-width="0.05" stroke-linecap="round" stroke-linejoin="round" stroke-miterlimit="10" x1="19.588" y1="15.803" x2="17.624" y2="14.69"/>
	
		<line fill="none" stroke="#010202" stroke-width="0.05" stroke-linecap="round" stroke-linejoin="round" stroke-miterlimit="10" x1="21" y1="20.861" x2="21.407" y2="21.091"/>
	
		<line fill="none" stroke="#010202" stroke-width="0.05" stroke-linecap="round" stroke-linejoin="round" stroke-miterlimit="10" x1="19.972" y1="16.02" x2="19.588" y2="15.803"/>
	
		<line fill="none" stroke="#010202" stroke-width="0.05" stroke-linecap="round" stroke-linejoin="round" stroke-miterlimit="10" x1="18.476" y1="19.432" x2="20.134" y2="20.371"/>
	
		<polyline fill="none" stroke="#010202" stroke-width="0.05" stroke-linecap="round" stroke-linejoin="round" stroke-miterlimit="10" points="
		21.363,16.806 20.167,16.13 19.972,16.02 	"/>
	
		<polyline fill="none" stroke="#010202" stroke-width="0.05" stroke-linecap="round" stroke-linejoin="round" stroke-miterlimit="10" points="
		20.134,20.371 20.518,20.588 21,20.861 	"/>
	
		<line fill="none" stroke="#010202" stroke-width="0.05" stroke-linecap="round" stroke-linejoin="round" stroke-miterlimit="10" x1="20.391" y1="21.83" x2="20.775" y2="22.048"/>
	
		<polyline fill="none" stroke="#010202" stroke-width="0.05" stroke-linecap="round" stroke-linejoin="round" stroke-miterlimit="10" points="
		0.025,29.383 29.937,46.653 59.848,29.383 47.883,22.475 	"/>
	
		<line fill="none" stroke="#010202" stroke-width="0.05" stroke-linecap="round" stroke-linejoin="round" stroke-miterlimit="10" x1="11.99" y1="22.475" x2="0.025" y2="29.383"/>
</g>
</svg>
