<?xml version="1.0" encoding="utf-8"?>
<!-- Generator: Adobe Illustrator 15.1.0, SVG Export Plug-In . SVG Version: 6.00 Build 0)  -->
<!DOCTYPE svg PUBLIC "-//W3C//DTD SVG 1.1//EN" "http://www.w3.org/Graphics/SVG/1.1/DTD/svg11.dtd">
<svg version="1.1" id="Calque_1" xmlns="http://www.w3.org/2000/svg" xmlns:xlink="http://www.w3.org/1999/xlink" x="0px" y="0px"
	 width="180.042px" height="132.65px" viewBox="0 0 180.042 132.65" enable-background="new 0 0 180.042 132.65"
	 xml:space="preserve">
<g>
	<polyline fill="#F9B213" points="90.021,97.987 150.018,63.345 180.016,80.667 90.021,132.625 0.025,80.667 30.022,63.345 
		90.021,97.987 	"/>
	<polyline fill="#E2E1E1" points="150.018,63.345 90.021,97.987 90.021,96.255 150.018,61.615 150.018,63.345 	"/>
	<polyline fill="#E2E1E1" points="150.018,61.615 90.021,96.255 30.022,61.615 33.023,59.882 33.023,61.615 90.021,94.522 
		147.017,61.615 147.017,59.882 150.018,61.615 	"/>
	<path fill="#E2E1E1" d="M50.658,69.855V51.149l-1.586-0.43l-1.198-0.327l-1.201-0.325l-11.25-3.058l-1.2-0.326v13.685
		L50.658,69.855 M90.021,94.522L33.023,61.615v-1.732V44.921l18.834,5.119v20.508l38.163,22.032V94.522"/>
	<polyline fill="#E2E1E1" points="147.017,61.615 90.021,94.522 90.021,92.581 118.518,76.128 118.518,49.388 147.017,32.934 
		147.017,59.882 147.017,61.615 	"/>
	<polyline fill="#E2E1E1" points="30.022,61.615 90.021,96.255 90.021,97.987 30.022,63.345 30.022,61.615 	"/>
	<polyline fill="#E2E1E1" points="118.518,76.128 90.021,92.581 51.857,70.548 53.058,69.855 53.058,50.783 63.839,44.557 
		77.956,52.709 77.956,54.095 79.157,54.787 80.357,54.095 118.518,76.128 	"/>
	<polyline fill="#E2E1E1" points="118.518,49.388 118.518,76.128 80.357,54.095 80.357,33.589 61.522,28.47 61.522,16.479 
		118.518,49.388 	"/>
	<polyline fill="#E2E1E1" points="80.357,54.095 79.157,54.787 79.157,35.712 77.956,36.408 63.839,44.557 53.058,50.783 
		53.058,69.855 51.857,70.548 51.857,50.041 80.357,33.589 80.357,54.095 	"/>
	<polyline fill="#C6C6C6" points="51.857,50.041 33.023,44.921 61.522,28.47 80.357,33.589 51.857,50.041 	"/>
	<polyline fill="#E2E1E1" points="79.157,35.712 79.157,54.787 77.956,54.095 77.956,52.709 77.956,36.408 79.157,35.712 	"/>
	<polyline fill="#919191" points="61.522,16.479 90.021,0.025 90.029,4.429 61.522,16.479 	"/>
	<polyline fill="#FFFFFF" points="147.017,32.934 118.518,49.388 118.509,20.873 147.017,32.934 	"/>
	<polyline fill="#919191" points="90.021,0.025 147.017,32.934 118.509,20.873 90.029,4.429 90.021,0.025 	"/>
	<polyline fill="#FFFFFF" points="90.029,4.429 118.509,20.873 118.518,49.388 61.522,16.479 90.029,4.429 	"/>
	<polyline fill="#E2E1E1" points="77.956,52.709 63.839,44.557 77.956,36.408 77.956,52.709 	"/>
	<polyline fill="#E2E1E1" points="50.658,51.149 50.658,69.855 34.223,60.368 35.422,59.676 35.422,58.289 46.673,51.795 
		47.874,52.487 49.072,51.795 49.072,50.719 50.658,51.149 	"/>
	<polyline fill="#E2E1E1" points="35.422,59.676 34.223,60.368 34.223,46.683 35.422,47.009 35.422,58.289 35.422,59.676 	"/>
	<polyline fill="#E2E1E1" points="46.673,51.795 46.673,50.067 47.874,50.392 47.874,52.487 46.673,51.795 	"/>
	<polyline fill="#E2E1E1" points="47.874,52.487 47.874,50.392 49.072,50.719 49.072,51.795 47.874,52.487 	"/>
	
		<line fill="none" stroke="#010202" stroke-width="0.05" stroke-linecap="round" stroke-linejoin="round" stroke-miterlimit="10" x1="90.021" y1="97.987" x2="150.018" y2="63.345"/>
	
		<polyline fill="none" stroke="#010202" stroke-width="0.05" stroke-linecap="round" stroke-linejoin="round" stroke-miterlimit="10" points="
		33.023,61.615 90.021,94.522 147.017,61.615 	"/>
	
		<line fill="none" stroke="#010202" stroke-width="0.05" stroke-linecap="round" stroke-linejoin="round" stroke-miterlimit="10" x1="30.022" y1="61.615" x2="90.021" y2="96.255"/>
	
		<line fill="none" stroke="#010202" stroke-width="0.05" stroke-linecap="round" stroke-linejoin="round" stroke-miterlimit="10" x1="150.018" y1="61.615" x2="90.021" y2="96.255"/>
	
		<line fill="none" stroke="#010202" stroke-width="0.05" stroke-linecap="round" stroke-linejoin="round" stroke-miterlimit="10" x1="90.021" y1="92.581" x2="118.518" y2="76.128"/>
	
		<line fill="none" stroke="#010202" stroke-width="0.05" stroke-linecap="round" stroke-linejoin="round" stroke-miterlimit="10" x1="90.021" y1="94.522" x2="90.021" y2="92.581"/>
	
		<line fill="none" stroke="#010202" stroke-width="0.05" stroke-linecap="round" stroke-linejoin="round" stroke-miterlimit="10" x1="118.518" y1="76.128" x2="118.518" y2="49.388"/>
	
		<line fill="none" stroke="#010202" stroke-width="0.05" stroke-linecap="round" stroke-linejoin="round" stroke-miterlimit="10" x1="80.357" y1="54.095" x2="118.518" y2="76.128"/>
	
		<line fill="none" stroke="#010202" stroke-width="0.05" stroke-linecap="round" stroke-linejoin="round" stroke-miterlimit="10" x1="51.857" y1="70.548" x2="90.021" y2="92.581"/>
	
		<line fill="none" stroke="#010202" stroke-width="0.05" stroke-linecap="round" stroke-linejoin="round" stroke-miterlimit="10" x1="80.357" y1="54.095" x2="79.157" y2="54.787"/>
	
		<line fill="none" stroke="#010202" stroke-width="0.05" stroke-linecap="round" stroke-linejoin="round" stroke-miterlimit="10" x1="80.357" y1="54.095" x2="80.357" y2="33.589"/>
	
		<line fill="none" stroke="#010202" stroke-width="0.05" stroke-linecap="round" stroke-linejoin="round" stroke-miterlimit="10" x1="51.857" y1="50.041" x2="33.023" y2="44.921"/>
	
		<line fill="none" stroke="#010202" stroke-width="0.05" stroke-linecap="round" stroke-linejoin="round" stroke-miterlimit="10" x1="80.357" y1="33.589" x2="61.522" y2="28.47"/>
	
		<line fill="none" stroke="#010202" stroke-width="0.05" stroke-linecap="round" stroke-linejoin="round" stroke-miterlimit="10" x1="51.857" y1="50.041" x2="80.357" y2="33.589"/>
	
		<line fill="none" stroke="#010202" stroke-width="0.05" stroke-linecap="round" stroke-linejoin="round" stroke-miterlimit="10" x1="51.857" y1="70.548" x2="51.857" y2="50.041"/>
	
		<line fill="none" stroke="#010202" stroke-width="0.05" stroke-linecap="round" stroke-linejoin="round" stroke-miterlimit="10" x1="53.058" y1="69.855" x2="51.857" y2="70.548"/>
	
		<polyline fill="none" stroke="#010202" stroke-width="0.05" stroke-linecap="round" stroke-linejoin="round" stroke-miterlimit="10" points="
		79.157,35.712 79.157,54.787 77.956,54.095 	"/>
	
		<line fill="none" stroke="#010202" stroke-width="0.05" stroke-linecap="round" stroke-linejoin="round" stroke-miterlimit="10" x1="34.223" y1="60.368" x2="35.422" y2="59.676"/>
	
		<line fill="none" stroke="#010202" stroke-width="0.05" stroke-linecap="round" stroke-linejoin="round" stroke-miterlimit="10" x1="34.223" y1="60.368" x2="50.658" y2="69.855"/>
	
		<line fill="none" stroke="#010202" stroke-width="0.05" stroke-linecap="round" stroke-linejoin="round" stroke-miterlimit="10" x1="34.223" y1="46.683" x2="34.223" y2="60.368"/>
	
		<line fill="none" stroke="#010202" stroke-width="0.05" stroke-linecap="round" stroke-linejoin="round" stroke-miterlimit="10" x1="47.874" y1="50.392" x2="47.874" y2="52.487"/>
	
		<line fill="none" stroke="#010202" stroke-width="0.05" stroke-linecap="round" stroke-linejoin="round" stroke-miterlimit="10" x1="47.874" y1="52.487" x2="49.072" y2="51.795"/>
	
		<line fill="none" stroke="#010202" stroke-width="0.05" stroke-linecap="round" stroke-linejoin="round" stroke-miterlimit="10" x1="46.673" y1="51.795" x2="47.874" y2="52.487"/>
	
		<line fill="none" stroke="#010202" stroke-width="0.05" stroke-linecap="round" stroke-linejoin="round" stroke-miterlimit="10" x1="118.518" y1="49.388" x2="147.017" y2="32.934"/>
	
		<polyline fill="none" stroke="#010202" stroke-width="0.05" stroke-linecap="round" stroke-linejoin="round" stroke-miterlimit="10" points="
		90.029,4.429 118.509,20.873 147.017,32.934 	"/>
	
		<line fill="none" stroke="#010202" stroke-width="0.05" stroke-linecap="round" stroke-linejoin="round" stroke-miterlimit="10" x1="90.021" y1="0.025" x2="90.029" y2="4.429"/>
	
		<line fill="none" stroke="#010202" stroke-width="0.05" stroke-linecap="round" stroke-linejoin="round" stroke-miterlimit="10" x1="61.522" y1="16.479" x2="90.029" y2="4.429"/>
	
		<line fill="none" stroke="#010202" stroke-width="0.05" stroke-linecap="round" stroke-linejoin="round" stroke-miterlimit="10" x1="90.021" y1="97.987" x2="30.022" y2="63.345"/>
	
		<line fill="none" stroke="#010202" stroke-width="0.05" stroke-linecap="round" stroke-linejoin="round" stroke-miterlimit="10" x1="90.021" y1="96.255" x2="90.021" y2="97.987"/>
	
		<line fill="none" stroke="#010202" stroke-width="0.05" stroke-linecap="round" stroke-linejoin="round" stroke-miterlimit="10" x1="61.522" y1="16.479" x2="118.518" y2="49.388"/>
	
		<line fill="none" stroke="#010202" stroke-width="0.05" stroke-linecap="round" stroke-linejoin="round" stroke-miterlimit="10" x1="118.509" y1="20.873" x2="118.518" y2="49.388"/>
	
		<line fill="none" stroke="#010202" stroke-width="0.05" stroke-linecap="round" stroke-linejoin="round" stroke-miterlimit="10" x1="77.956" y1="52.709" x2="63.839" y2="44.557"/>
	
		<line fill="none" stroke="#010202" stroke-width="0.05" stroke-linecap="round" stroke-linejoin="round" stroke-miterlimit="10" x1="33.023" y1="59.882" x2="30.022" y2="61.615"/>
	
		<line fill="none" stroke="#010202" stroke-width="0.05" stroke-linecap="round" stroke-linejoin="round" stroke-miterlimit="10" x1="150.018" y1="61.615" x2="147.017" y2="59.882"/>
	
		<line fill="none" stroke="#010202" stroke-width="0.05" stroke-linecap="round" stroke-linejoin="round" stroke-miterlimit="10" x1="61.522" y1="16.479" x2="61.522" y2="28.47"/>
	
		<line fill="none" stroke="#010202" stroke-width="0.05" stroke-linecap="round" stroke-linejoin="round" stroke-miterlimit="10" x1="33.023" y1="44.921" x2="61.522" y2="28.47"/>
	
		<line fill="none" stroke="#010202" stroke-width="0.05" stroke-linecap="round" stroke-linejoin="round" stroke-miterlimit="10" x1="50.658" y1="69.855" x2="50.658" y2="51.149"/>
	
		<line fill="none" stroke="#010202" stroke-width="0.05" stroke-linecap="round" stroke-linejoin="round" stroke-miterlimit="10" x1="53.058" y1="50.783" x2="53.058" y2="69.855"/>
	
		<line fill="none" stroke="#010202" stroke-width="0.05" stroke-linecap="round" stroke-linejoin="round" stroke-miterlimit="10" x1="35.422" y1="58.289" x2="46.673" y2="51.795"/>
	
		<line fill="none" stroke="#010202" stroke-width="0.05" stroke-linecap="round" stroke-linejoin="round" stroke-miterlimit="10" x1="46.673" y1="50.067" x2="46.673" y2="51.795"/>
	
		<line fill="none" stroke="#010202" stroke-width="0.05" stroke-linecap="round" stroke-linejoin="round" stroke-miterlimit="10" x1="49.072" y1="51.795" x2="49.072" y2="50.719"/>
	
		<line fill="none" stroke="#010202" stroke-width="0.05" stroke-linecap="round" stroke-linejoin="round" stroke-miterlimit="10" x1="90.021" y1="0.025" x2="61.522" y2="16.479"/>
	
		<line fill="none" stroke="#010202" stroke-width="0.05" stroke-linecap="round" stroke-linejoin="round" stroke-miterlimit="10" x1="147.017" y1="32.934" x2="90.021" y2="0.025"/>
	
		<line fill="none" stroke="#010202" stroke-width="0.05" stroke-linecap="round" stroke-linejoin="round" stroke-miterlimit="10" x1="30.022" y1="63.345" x2="0.025" y2="80.667"/>
	
		<line fill="none" stroke="#010202" stroke-width="0.05" stroke-linecap="round" stroke-linejoin="round" stroke-miterlimit="10" x1="180.016" y1="80.667" x2="150.018" y2="63.345"/>
	
		<line fill="none" stroke="#010202" stroke-width="0.05" stroke-linecap="round" stroke-linejoin="round" stroke-miterlimit="10" x1="30.022" y1="63.345" x2="30.022" y2="61.615"/>
	
		<line fill="none" stroke="#010202" stroke-width="0.05" stroke-linecap="round" stroke-linejoin="round" stroke-miterlimit="10" x1="150.018" y1="61.615" x2="150.018" y2="63.345"/>
	
		<line fill="none" stroke="#010202" stroke-width="0.05" stroke-linecap="round" stroke-linejoin="round" stroke-miterlimit="10" x1="90.021" y1="132.625" x2="180.016" y2="80.667"/>
	
		<line fill="none" stroke="#010202" stroke-width="0.05" stroke-linecap="round" stroke-linejoin="round" stroke-miterlimit="10" x1="0.025" y1="80.667" x2="90.021" y2="132.625"/>
	
		<polyline fill="none" stroke="#010202" stroke-width="0.05" stroke-linecap="round" stroke-linejoin="round" stroke-miterlimit="10" points="
		147.017,61.615 147.017,59.882 147.017,32.934 	"/>
	
		<line fill="none" stroke="#010202" stroke-width="0.05" stroke-linecap="round" stroke-linejoin="round" stroke-miterlimit="10" x1="53.058" y1="50.783" x2="63.839" y2="44.557"/>
	
		<polyline fill="none" stroke="#010202" stroke-width="0.05" stroke-linecap="round" stroke-linejoin="round" stroke-miterlimit="10" points="
		33.023,61.615 33.023,59.882 33.023,44.921 	"/>
	
		<polyline fill="none" stroke="#010202" stroke-width="0.05" stroke-linecap="round" stroke-linejoin="round" stroke-miterlimit="10" points="
		35.422,59.676 35.422,58.289 35.422,47.009 	"/>
	
		<polyline fill="none" stroke="#010202" stroke-width="0.05" stroke-linecap="round" stroke-linejoin="round" stroke-miterlimit="10" points="
		77.956,36.408 77.956,52.709 77.956,54.095 	"/>
	
		<polyline fill="none" stroke="#010202" stroke-width="0.05" stroke-linecap="round" stroke-linejoin="round" stroke-miterlimit="10" points="
		47.874,50.392 46.673,50.067 35.422,47.009 34.223,46.683 	"/>
	
		<polyline fill="none" stroke="#010202" stroke-width="0.05" stroke-linecap="round" stroke-linejoin="round" stroke-miterlimit="10" points="
		63.839,44.557 77.956,36.408 79.157,35.712 	"/>
	
		<polyline fill="none" stroke="#010202" stroke-width="0.05" stroke-linecap="round" stroke-linejoin="round" stroke-miterlimit="10" points="
		50.658,51.149 49.072,50.719 47.874,50.392 	"/>
</g>
</svg>
