<?xml version="1.0" encoding="utf-8"?>
<!-- Generator: Adobe Illustrator 15.1.0, SVG Export Plug-In . SVG Version: 6.00 Build 0)  -->
<!DOCTYPE svg PUBLIC "-//W3C//DTD SVG 1.1//EN" "http://www.w3.org/Graphics/SVG/1.1/DTD/svg11.dtd">
<svg version="1.1"
	 id="Calque_1" sodipodi:docname="fountain.svg" inkscape:version="0.91 r13725" xmlns:sodipodi="http://sodipodi.sourceforge.net/DTD/sodipodi-0.dtd" xmlns:inkscape="http://www.inkscape.org/namespaces/inkscape" xmlns:rdf="http://www.w3.org/1999/02/22-rdf-syntax-ns#" xmlns:svg="http://www.w3.org/2000/svg" xmlns:cc="http://creativecommons.org/ns#" xmlns:dc="http://purl.org/dc/elements/1.1/"
	 xmlns="http://www.w3.org/2000/svg" xmlns:xlink="http://www.w3.org/1999/xlink" x="0px" y="0px" width="109.875px"
	 height="74.207px" viewBox="0.001 6.339 109.875 74.207" enable-background="new 0.001 6.339 109.875 74.207" xml:space="preserve"
	>
<line id="polyline105_3_" fill="none" stroke="#010202" stroke-width="0.1" stroke-linecap="round" stroke-linejoin="round" stroke-miterlimit="10" x1="109.826" y1="48.806" x2="54.937" y2="17.117"/>
<line id="line117_2_" fill="none" stroke="#010202" stroke-width="0.1" stroke-linecap="round" stroke-linejoin="round" stroke-miterlimit="10" x1="54.937" y1="17.117" x2="0.051" y2="48.806"/>
<sodipodi:namedview  borderopacity="1" id="namedview188" inkscape:window-width="1680" objecttolerance="10" gridtolerance="10" bordercolor="#666666" pagecolor="#ffffff" fit-margin-top="0" guidetolerance="10" inkscape:pageopacity="0" inkscape:pageshadow="2" inkscape:window-height="994" inkscape:cx="36.797967" showgrid="false" fit-margin-left="0" fit-margin-right="0" fit-margin-bottom="0" inkscape:zoom="4.4851464" inkscape:cy="15.925752" inkscape:window-x="0" inkscape:window-y="30" inkscape:window-maximized="1" inkscape:current-layer="Calque_1">
	</sodipodi:namedview>
<polyline id="polyline19" fill="#F3F3F3" points="88.667,51.198 42.626,69.12 42.626,54.746 88.667,36.824 88.667,41.365 
	88.667,51.198 "/>
<polyline id="polyline21" fill="#CFCECE" points="42.626,69.12 16.112,46.416 16.112,44.307 16.112,32.661 42.128,54.939 
	42.626,54.746 42.626,69.12 "/>
<polyline id="polyline23" fill="#F3F3F3" points="91.22,32.661 91.22,35.83 88.667,36.824 42.626,54.746 42.128,54.939 
	42.128,51.771 91.22,32.661 "/>
<polyline id="polyline25" fill="#E2E1E1" points="91.22,32.661 42.128,51.771 13.557,27.305 62.65,8.196 66.796,11.746 
	66.769,12.014 66.769,19.74 60.553,14.417 24.335,28.516 26.878,30.695 35.721,38.267 44.224,45.551 69.554,35.69 77.9,32.441 
	80.445,31.451 74.228,26.128 80.666,23.622 91.22,32.661 "/>
<polyline id="polyline27" fill="#CFCECE" points="60.553,14.417 66.769,19.74 74.228,26.128 80.445,31.451 77.9,32.441 
	61.051,18.011 60.553,17.586 60.553,14.417 "/>
<polyline id="polyline29" fill="#F3F3F3" points="60.553,14.417 60.553,17.586 26.878,30.695 24.335,28.516 60.553,14.417 "/>
<polyline id="polyline31" fill="#F3F3F3" points="26.878,30.695 60.553,17.586 61.051,18.011 61.051,28.407 35.721,38.267 
	26.878,30.695 "/>
<polyline id="polyline33" fill="#E2E1E1" points="35.721,38.267 61.051,28.407 69.554,35.69 44.224,45.551 35.721,38.267 "/>
<polyline id="polyline35" fill="#CFCECE" points="69.554,35.69 61.051,28.407 61.051,18.011 77.9,32.441 69.554,35.69 "/>
<polyline id="polyline37" fill="#CFCECE" points="13.557,30.474 13.557,27.305 42.128,51.771 42.128,54.939 16.112,32.661 
	13.557,30.474 "/>
<polyline id="polyline39" fill="#F3F3F3" points="80.666,23.622 74.228,26.128 74.228,18.402 80.666,15.896 80.666,23.622 "/>
<polyline id="polyline41" fill="#CFCECE" points="66.769,19.74 66.769,12.014 66.796,11.746 66.896,10.713 67.267,9.719 
	67.862,9.098 68.635,8.894 69.534,9.12 70.501,9.761 71.464,10.773 72.364,12.088 73.136,13.615 73.728,15.25 74.101,16.884 
	74.228,18.402 74.228,26.128 66.769,19.74 "/>
<polyline id="polyline43" fill="#828383" points="68.635,8.894 67.862,9.098 74.298,6.594 75.071,6.388 68.635,8.894 "/>
<polyline id="polyline45" fill="#ADADAD" points="69.534,9.12 68.635,8.894 75.071,6.388 75.969,6.615 69.534,9.12 "/>
<polyline id="polyline47" fill="#D2D2D2" points="70.501,9.761 69.534,9.12 75.969,6.615 76.935,7.256 70.501,9.761 "/>
<polyline id="polyline49" fill="#F0F0F0" points="71.464,10.773 70.501,9.761 76.935,7.256 77.9,8.268 71.464,10.773 "/>
<polyline id="polyline51" fill="#FFFFFF" points="72.364,12.088 71.464,10.773 77.9,8.268 78.8,9.582 72.364,12.088 "/>
<polyline id="polyline53" fill="#FFFFFF" points="73.136,13.615 72.364,12.088 78.8,9.582 79.573,11.11 73.136,13.615 "/>
<polyline id="polyline55" fill="#FFFFFF" points="73.728,15.25 73.136,13.615 79.573,11.11 80.165,12.745 73.728,15.25 "/>
<polyline id="polyline57" fill="#FFFFFF" points="74.101,16.884 73.728,15.25 80.165,12.745 80.538,14.378 74.101,16.884 "/>
<polyline id="polyline59" fill="#FFFFFF" points="74.228,18.402 74.101,16.884 80.538,14.378 80.666,15.896 74.228,18.402 "/>
<polyline id="polyline77" fill="none" stroke="#010202" stroke-width="0.1" stroke-linecap="round" stroke-linejoin="round" stroke-miterlimit="10" points="
	88.667,51.198 42.626,69.12 16.112,46.416 "/>
<line id="line79" fill="none" stroke="#010202" stroke-width="0.1" stroke-linecap="round" stroke-linejoin="round" stroke-miterlimit="10" x1="42.626" y1="69.12" x2="42.626" y2="54.746"/>
<polyline id="polyline81" fill="none" stroke="#010202" stroke-width="0.1" stroke-linecap="round" stroke-linejoin="round" stroke-miterlimit="10" points="
	69.554,35.69 61.051,28.407 35.721,38.267 "/>
<line id="line83" fill="none" stroke="#010202" stroke-width="0.1" stroke-linecap="round" stroke-linejoin="round" stroke-miterlimit="10" x1="61.051" y1="18.011" x2="61.051" y2="28.407"/>
<line id="line85" fill="none" stroke="#010202" stroke-width="0.1" stroke-linecap="round" stroke-linejoin="round" stroke-miterlimit="10" x1="42.128" y1="51.771" x2="91.22" y2="32.661"/>
<polyline id="polyline87" fill="none" stroke="#010202" stroke-width="0.1" stroke-linecap="round" stroke-linejoin="round" stroke-miterlimit="10" points="
	60.553,17.586 60.553,14.417 66.769,19.74 "/>
<line id="line89" fill="none" stroke="#010202" stroke-width="0.1" stroke-linecap="round" stroke-linejoin="round" stroke-miterlimit="10" x1="24.335" y1="28.516" x2="60.553" y2="14.417"/>
<polyline id="polyline91" fill="none" stroke="#010202" stroke-width="0.1" stroke-linecap="round" stroke-linejoin="round" stroke-miterlimit="10" points="
	13.557,27.305 42.128,51.771 42.128,54.939 "/>
<line id="line93" fill="none" stroke="#010202" stroke-width="0.1" stroke-linecap="round" stroke-linejoin="round" stroke-miterlimit="10" x1="74.228" y1="26.128" x2="80.445" y2="31.451"/>
<line id="line95" fill="none" stroke="#010202" stroke-width="0.1" stroke-linecap="round" stroke-linejoin="round" stroke-miterlimit="10" x1="80.666" y1="23.622" x2="74.228" y2="26.128"/>
<line id="line97" fill="none" stroke="#010202" stroke-width="0.1" stroke-linecap="round" stroke-linejoin="round" stroke-miterlimit="10" x1="74.228" y1="26.128" x2="74.228" y2="18.402"/>
<line id="line99" fill="none" stroke="#010202" stroke-width="0.1" stroke-linecap="round" stroke-linejoin="round" stroke-miterlimit="10" x1="66.769" y1="19.74" x2="74.228" y2="26.128"/>
<polyline id="polyline101" fill="none" stroke="#010202" stroke-width="0.1" stroke-linecap="round" stroke-linejoin="round" stroke-miterlimit="10" points="
	67.862,9.098 68.635,8.894 69.534,9.12 70.501,9.761 71.464,10.773 72.364,12.088 73.136,13.615 73.728,15.25 74.101,16.884 
	74.228,18.402 "/>
<line id="line103" fill="none" stroke="#010202" stroke-width="0.1" stroke-linecap="round" stroke-linejoin="round" stroke-miterlimit="10" x1="74.228" y1="18.402" x2="80.666" y2="15.896"/>
<line id="polyline105_1_" fill="none" stroke="#010202" stroke-width="0.1" stroke-linecap="round" stroke-linejoin="round" stroke-miterlimit="10" x1="54.937" y1="80.496" x2="109.826" y2="48.806"/>
<line id="line117" fill="none" stroke="#010202" stroke-width="0.1" stroke-linecap="round" stroke-linejoin="round" stroke-miterlimit="10" x1="0.051" y1="48.806" x2="54.937" y2="80.496"/>
<line id="line119" fill="none" stroke="#010202" stroke-width="0.1" stroke-linecap="round" stroke-linejoin="round" stroke-miterlimit="10" x1="91.22" y1="32.661" x2="91.22" y2="35.83"/>
<line id="line121" fill="none" stroke="#010202" stroke-width="0.1" stroke-linecap="round" stroke-linejoin="round" stroke-miterlimit="10" x1="91.22" y1="32.661" x2="80.666" y2="23.622"/>
<line id="line123" fill="none" stroke="#010202" stroke-width="0.1" stroke-linecap="round" stroke-linejoin="round" stroke-miterlimit="10" x1="60.553" y1="17.586" x2="26.878" y2="30.695"/>
<polyline id="polyline125" fill="none" stroke="#010202" stroke-width="0.1" stroke-linecap="round" stroke-linejoin="round" stroke-miterlimit="10" points="
	62.65,8.196 13.557,27.305 13.557,30.474 "/>
<line id="line127" fill="none" stroke="#010202" stroke-width="0.1" stroke-linecap="round" stroke-linejoin="round" stroke-miterlimit="10" x1="66.796" y1="11.746" x2="62.65" y2="8.196"/>
<line id="line129" fill="none" stroke="#010202" stroke-width="0.1" stroke-linecap="round" stroke-linejoin="round" stroke-miterlimit="10" x1="66.769" y1="19.74" x2="66.769" y2="12.014"/>
<polyline id="polyline131" fill="none" stroke="#010202" stroke-width="0.1" stroke-linecap="round" stroke-linejoin="round" stroke-miterlimit="10" points="
	66.896,10.713 67.267,9.719 67.862,9.098 "/>
<line id="line133" fill="none" stroke="#010202" stroke-width="0.1" stroke-linecap="round" stroke-linejoin="round" stroke-miterlimit="10" x1="80.538" y1="14.378" x2="80.666" y2="15.896"/>
<line id="line135" fill="none" stroke="#010202" stroke-width="0.1" stroke-linecap="round" stroke-linejoin="round" stroke-miterlimit="10" x1="80.165" y1="12.745" x2="80.538" y2="14.378"/>
<line id="line137" fill="none" stroke="#010202" stroke-width="0.1" stroke-linecap="round" stroke-linejoin="round" stroke-miterlimit="10" x1="79.573" y1="11.11" x2="80.165" y2="12.745"/>
<line id="line139" fill="none" stroke="#010202" stroke-width="0.1" stroke-linecap="round" stroke-linejoin="round" stroke-miterlimit="10" x1="78.8" y1="9.582" x2="79.573" y2="11.11"/>
<line id="line141" fill="none" stroke="#010202" stroke-width="0.1" stroke-linecap="round" stroke-linejoin="round" stroke-miterlimit="10" x1="77.9" y1="8.268" x2="78.8" y2="9.582"/>
<line id="line143" fill="none" stroke="#010202" stroke-width="0.1" stroke-linecap="round" stroke-linejoin="round" stroke-miterlimit="10" x1="76.935" y1="7.256" x2="77.9" y2="8.268"/>
<line id="line145" fill="none" stroke="#010202" stroke-width="0.1" stroke-linecap="round" stroke-linejoin="round" stroke-miterlimit="10" x1="75.969" y1="6.615" x2="76.935" y2="7.256"/>
<line id="line147" fill="none" stroke="#010202" stroke-width="0.1" stroke-linecap="round" stroke-linejoin="round" stroke-miterlimit="10" x1="75.071" y1="6.388" x2="75.969" y2="6.615"/>
<line id="line149" fill="none" stroke="#010202" stroke-width="0.1" stroke-linecap="round" stroke-linejoin="round" stroke-miterlimit="10" x1="74.298" y1="6.594" x2="75.071" y2="6.388"/>
<line id="line151" fill="none" stroke="#010202" stroke-width="0.1" stroke-linecap="round" stroke-linejoin="round" stroke-miterlimit="10" x1="67.862" y1="9.098" x2="74.298" y2="6.594"/>
<line id="line153" fill="none" stroke="#010202" stroke-width="0.1" stroke-linecap="round" stroke-linejoin="round" stroke-miterlimit="10" x1="80.666" y1="23.622" x2="80.666" y2="15.896"/>
<polyline id="polyline159" fill="none" stroke="#010202" stroke-width="0.1" stroke-linecap="round" stroke-linejoin="round" stroke-miterlimit="10" points="
	16.112,46.416 16.112,44.307 16.112,32.661 "/>
<polyline id="polyline161" fill="none" stroke="#010202" stroke-width="0.1" stroke-linecap="round" stroke-linejoin="round" stroke-miterlimit="10" points="
	88.667,51.198 88.667,41.365 88.667,36.824 "/>
<line id="line163" fill="none" stroke="#010202" stroke-width="0.1" stroke-linecap="round" stroke-linejoin="round" stroke-miterlimit="10" x1="69.554" y1="35.69" x2="44.224" y2="45.551"/>
<line id="line165" fill="none" stroke="#010202" stroke-width="0.1" stroke-linecap="round" stroke-linejoin="round" stroke-miterlimit="10" x1="42.128" y1="54.939" x2="42.626" y2="54.746"/>
<polyline id="polyline167" fill="none" stroke="#010202" stroke-width="0.1" stroke-linecap="round" stroke-linejoin="round" stroke-miterlimit="10" points="
	60.553,17.586 61.051,18.011 77.9,32.441 "/>
<line id="line169" fill="none" stroke="#010202" stroke-width="0.1" stroke-linecap="round" stroke-linejoin="round" stroke-miterlimit="10" x1="44.224" y1="45.551" x2="35.721" y2="38.267"/>
<polyline id="polyline171" fill="none" stroke="#010202" stroke-width="0.1" stroke-linecap="round" stroke-linejoin="round" stroke-miterlimit="10" points="
	13.557,30.474 16.112,32.661 42.128,54.939 "/>
<polyline id="polyline173" fill="none" stroke="#010202" stroke-width="0.1" stroke-linecap="round" stroke-linejoin="round" stroke-miterlimit="10" points="
	66.769,12.014 66.796,11.746 66.896,10.713 "/>
<polyline id="polyline175" fill="none" stroke="#010202" stroke-width="0.1" stroke-linecap="round" stroke-linejoin="round" stroke-miterlimit="10" points="
	80.445,31.451 77.9,32.441 69.554,35.69 "/>
<polyline id="polyline177" fill="none" stroke="#010202" stroke-width="0.1" stroke-linecap="round" stroke-linejoin="round" stroke-miterlimit="10" points="
	42.626,54.746 88.667,36.824 91.22,35.83 "/>
<polyline id="polyline179" fill="none" stroke="#010202" stroke-width="0.1" stroke-linecap="round" stroke-linejoin="round" stroke-miterlimit="10" points="
	35.721,38.267 26.878,30.695 24.335,28.516 "/>
<linearGradient id="polygon186_1_" gradientUnits="userSpaceOnUse" x1="269.0369" y1="-329.7092" x2="320.0593" y2="-329.7092" gradientTransform="matrix(1 0 0 -1 -242.1592 -298.1411)">
	<stop  offset="0" style="stop-color:#52C3F1"/>
	<stop  offset="1" style="stop-color:#439BBE"/>
</linearGradient>
<polygon id="polygon186" opacity="0.8" fill="url(#polygon186_1_)" enable-background="new    " points="60.553,17.586 77.9,32.441 
	44.224,45.551 26.878,30.695 "/>
</svg>
