<?xml version="1.0" encoding="utf-8"?>
<!-- Generator: Adobe Illustrator 15.1.0, SVG Export Plug-In . SVG Version: 6.00 Build 0)  -->
<!DOCTYPE svg PUBLIC "-//W3C//DTD SVG 1.1//EN" "http://www.w3.org/Graphics/SVG/1.1/DTD/svg11.dtd">
<svg version="1.1" id="Calque_1" xmlns="http://www.w3.org/2000/svg" xmlns:xlink="http://www.w3.org/1999/xlink" x="0px" y="0px"
	 width="109.876px" height="120.418px" viewBox="0 0 109.876 120.418" enable-background="new 0 0 109.876 120.418"
	 xml:space="preserve">
<g>
	<polyline fill="#E2E1E1" points="109.826,88.677 54.938,120.369 54.938,117.199 109.826,85.509 109.826,88.677 	"/>
	<polyline fill="#E2E1E1" points="54.938,120.369 0.05,88.677 0.05,85.509 54.938,117.199 54.938,120.369 	"/>
	<polyline fill="#E2E1E1" points="54.938,117.199 0.05,85.509 5.539,82.339 5.539,85.509 54.938,114.03 104.337,85.509 
		104.337,82.339 109.826,85.509 54.938,117.199 	"/>
	<polyline fill="#E2E1E1" points="104.337,82.339 104.337,85.509 54.938,114.03 54.938,110.861 104.337,82.339 	"/>
	<polyline fill="#E2E1E1" points="5.539,82.339 17.055,75.691 16.677,75.976 15.943,77 15.693,78.097 15.693,82.339 54.938,104.999 
		71.616,95.371 94.183,82.339 94.183,78.097 93.933,77 93.199,75.976 92.821,75.691 104.337,82.339 54.938,110.861 5.539,82.339 	
		"/>
	<polyline fill="#E2E1E1" points="54.938,114.03 5.539,85.509 5.539,82.339 54.938,110.861 54.938,114.03 	"/>
	<polygon fill="#E2E1E1" points="71.616,91.126 54.938,100.755 54.938,104.999 71.616,95.371 94.183,82.339 94.183,78.097 	"/>
	<polyline fill="#E2E1E1" points="54.938,100.755 54.938,104.999 15.693,82.339 15.693,78.097 54.938,100.755 	"/>
	<polyline fill="#EFEEEE" points="71.616,91.126 54.938,100.755 54.938,99.513 71.49,89.957 71.616,91.126 	"/>
	<polyline fill="#EFEEEE" points="71.616,91.126 71.49,89.957 93.933,77 94.183,78.097 71.616,91.126 	"/>
	<polyline fill="#FFFFFF" points="71.49,89.957 54.938,99.513 54.938,98.066 71.124,88.72 71.49,89.957 	"/>
	<polyline fill="#FFFFFF" points="71.124,88.72 54.938,98.066 54.938,96.512 70.54,87.505 71.124,88.72 	"/>
	<polyline fill="#FFFFFF" points="71.124,88.72 70.54,87.505 92.031,75.097 92.821,75.691 93.199,75.976 71.124,88.72 	"/>
	<polyline fill="#FFFFFF" points="70.54,87.505 54.938,96.512 54.938,94.958 69.779,86.39 70.54,87.505 	"/>
	<polyline fill="#FFFFFF" points="69.779,86.39 54.938,94.958 54.938,93.511 68.892,85.455 69.779,86.39 	"/>
	<polyline fill="#FFFFFF" points="69.779,86.39 68.892,85.455 88.736,73.998 90.508,74.422 69.779,86.39 	"/>
	<polyline fill="#EFEEEE" points="68.892,85.455 54.938,93.511 54.938,92.269 67.941,84.761 68.892,85.455 	"/>
	<polyline fill="#EFEEEE" points="68.892,85.455 67.941,84.761 86.833,73.853 88.736,73.998 68.892,85.455 	"/>
	<polyline fill="#EFEEEE" points="54.938,92.269 54.938,93.511 21.14,73.998 23.042,73.853 54.938,92.269 	"/>
	<polyline fill="#FFFFFF" points="54.938,93.511 54.938,94.958 19.367,74.422 21.14,73.998 54.938,93.511 	"/>
	<polyline fill="#FFFFFF" points="54.938,94.958 54.938,96.512 17.845,75.097 19.367,74.422 54.938,94.958 	"/>
	<polyline fill="#FFFFFF" points="54.938,96.512 54.938,98.066 16.677,75.976 17.055,75.691 17.845,75.097 54.938,96.512 	"/>
	<polyline fill="#FFFFFF" points="54.938,98.066 54.938,99.513 15.943,77 16.677,75.976 54.938,98.066 	"/>
	<polyline fill="#EFEEEE" points="54.938,99.513 54.938,100.755 15.693,78.097 15.943,77 54.938,99.513 	"/>
	<polyline fill="#D6D6D6" points="23.042,73.853 21.14,73.998 44.572,60.47 44.509,61.46 23.042,73.853 	"/>
	<polyline fill="#B5B4B4" points="21.14,73.998 19.367,74.422 44.611,59.848 44.572,60.47 21.14,73.998 	"/>
	<polyline fill="#8E8E8E" points="19.367,74.422 17.845,75.097 44.625,59.636 44.611,59.848 19.367,74.422 	"/>
	<polyline fill="#D6D6D6" points="88.736,73.998 86.833,73.853 65.367,61.46 65.304,60.47 88.736,73.998 	"/>
	<polyline fill="#B5B4B4" points="88.736,73.998 65.304,60.47 65.265,59.848 90.508,74.422 88.736,73.998 	"/>
	<polyline fill="#8E8E8E" points="90.508,74.422 65.265,59.848 65.251,59.636 92.031,75.097 90.508,74.422 	"/>
	<polyline fill="#FFFFFF" points="90.508,74.422 92.031,75.097 70.54,87.505 69.779,86.39 90.508,74.422 	"/>
	<polyline fill="#FFFFFF" points="93.199,75.976 93.933,77 71.49,89.957 71.124,88.72 93.199,75.976 	"/>
	<polyline fill="#D6D6D6" points="67.941,84.761 54.938,92.269 54.938,91.316 66.99,84.357 67.941,84.761 	"/>
	<polyline fill="#B5B4B4" points="66.99,84.357 54.938,91.316 54.938,90.716 66.104,84.269 66.99,84.357 	"/>
	<polyline fill="#8E8E8E" points="66.104,84.269 54.938,90.716 54.938,90.511 57.699,88.917 57.978,88.755 60.783,87.137 
		63.19,85.748 65.061,84.667 65.342,84.504 66.104,84.269 	"/>
	<polyline fill="#8E8E8E" points="54.938,90.511 54.938,90.716 26.716,74.422 28.239,75.097 29.583,75.873 30.837,76.597 
		31.914,77.218 35.588,79.339 43.545,83.934 43.591,83.96 44.815,84.667 46.687,85.748 49.093,87.137 51.897,88.755 52.177,88.917 
		54.938,90.511 	"/>
	<polyline fill="#B5B4B4" points="54.938,90.716 54.938,91.316 24.944,73.998 26.716,74.422 54.938,90.716 	"/>
	<polyline fill="#D6D6D6" points="54.938,91.316 54.938,92.269 23.042,73.853 24.944,73.998 54.938,91.316 	"/>
	<polyline fill="#FFFFFF" points="28.239,75.097 26.716,74.422 44.332,64.252 44.229,65.865 28.239,75.097 	"/>
	<polyline fill="#FFFFFF" points="26.716,74.422 24.944,73.998 44.427,62.75 44.332,64.252 26.716,74.422 	"/>
	<polyline fill="#EFEEEE" points="24.944,73.998 23.042,73.853 44.509,61.46 44.427,62.75 24.944,73.998 	"/>
	<polyline fill="#FFFFFF" points="28.239,75.097 44.229,65.865 44.126,67.477 29.583,75.873 28.239,75.097 	"/>
	<polyline fill="#FFFFFF" points="29.583,75.873 44.126,67.477 44.031,68.98 30.837,76.597 29.583,75.873 	"/>
	<polyline fill="#EFEEEE" points="30.837,76.597 44.031,68.98 43.949,70.269 31.914,77.218 30.837,76.597 	"/>
	<polyline fill="#E2E1E1" points="31.914,77.218 43.949,70.269 43.669,74.673 35.588,79.339 31.914,77.218 	"/>
	<polyline fill="#E2E1E1" points="35.588,79.339 43.669,74.673 43.182,82.339 43.545,83.934 35.588,79.339 	"/>
	<polyline fill="#EFEEEE" points="65.367,61.46 86.833,73.853 84.932,73.998 65.45,62.75 65.367,61.46 	"/>
	<polyline fill="#FFFFFF" points="65.45,62.75 84.932,73.998 83.16,74.422 65.544,64.252 65.45,62.75 	"/>
	<polyline fill="#FFFFFF" points="65.544,64.252 83.16,74.422 81.637,75.097 65.647,65.865 65.544,64.252 	"/>
	<polyline fill="#FFFFFF" points="65.647,65.865 81.637,75.097 80.292,75.873 65.75,67.477 65.647,65.865 	"/>
	<polyline fill="#FFFFFF" points="65.75,67.477 80.292,75.873 79.039,76.597 65.845,68.98 65.75,67.477 	"/>
	<polyline fill="#EFEEEE" points="65.845,68.98 79.039,76.597 77.962,77.218 65.927,70.269 65.845,68.98 	"/>
	<polyline fill="#E2E1E1" points="65.927,70.269 77.962,77.218 74.288,79.339 66.207,74.673 65.927,70.269 	"/>
	<polyline fill="#E2E1E1" points="66.207,74.673 74.288,79.339 66.331,83.934 66.694,82.339 66.207,74.673 	"/>
	<polyline fill="#8E8E8E" points="81.637,75.097 83.16,74.422 66.104,84.269 65.342,84.504 66.285,83.96 66.331,83.934 
		74.288,79.339 77.962,77.218 79.039,76.597 80.292,75.873 81.637,75.097 	"/>
	<polyline fill="#B5B4B4" points="83.16,74.422 84.932,73.998 66.99,84.357 66.104,84.269 83.16,74.422 	"/>
	<polyline fill="#D6D6D6" points="84.932,73.998 86.833,73.853 67.941,84.761 66.99,84.357 84.932,73.998 	"/>
	<polyline fill="#939394" points="66.694,82.339 66.331,83.934 66.285,83.96 62.992,29.777 63.275,28.531 65.251,59.636 
		65.265,59.848 65.304,60.47 65.367,61.46 65.45,62.75 65.544,64.252 65.647,65.865 65.75,67.477 65.845,68.98 65.927,70.269 
		66.207,74.673 66.694,82.339 	"/>
	<polyline fill="#939394" points="43.545,83.934 43.182,82.339 43.669,74.673 43.949,70.269 44.031,68.98 44.126,67.477 
		44.229,65.865 44.332,64.252 44.427,62.75 44.509,61.46 44.572,60.47 44.611,59.848 44.625,59.636 46.601,28.531 46.885,29.777 
		43.591,83.96 43.545,83.934 	"/>
	<polyline fill="#B9B9B9" points="43.591,83.96 46.885,29.777 47.718,30.938 44.815,84.667 43.591,83.96 	"/>
	<polyline fill="#DADADA" points="44.815,84.667 47.718,30.938 49.042,31.935 46.687,85.748 44.815,84.667 	"/>
	<polyline fill="#F3F3F3" points="46.687,85.748 49.042,31.935 50.769,32.699 49.093,87.137 46.687,85.748 	"/>
	<polyline fill="#FFFFFF" points="49.093,87.137 50.769,32.699 52.78,33.181 51.897,88.755 49.093,87.137 	"/>
	<polyline fill="#FFFFFF" points="51.897,88.755 52.78,33.181 54.938,33.345 54.938,89.127 52.177,88.917 51.897,88.755 	"/>
	<polyline fill="#E2E1E1" points="52.177,88.917 54.938,89.127 57.699,88.917 54.938,90.511 52.177,88.917 	"/>
	<polyline fill="#FFFFFF" points="57.699,88.917 54.938,89.127 54.938,33.345 57.095,33.181 57.978,88.755 57.699,88.917 	"/>
	<polyline fill="#FFFFFF" points="57.978,88.755 57.095,33.181 59.107,32.699 60.783,87.137 57.978,88.755 	"/>
	<polyline fill="#F3F3F3" points="60.783,87.137 59.107,32.699 60.833,31.935 63.19,85.748 60.783,87.137 	"/>
	<polyline fill="#DADADA" points="63.19,85.748 60.833,31.935 62.158,30.938 65.061,84.667 63.19,85.748 	"/>
	<polyline fill="#B9B9B9" points="65.061,84.667 62.158,30.938 62.992,29.777 66.285,83.96 65.342,84.504 65.061,84.667 	"/>
	<polyline fill="#DCDCDC" points="62.158,30.938 60.833,31.935 60.632,28.65 61.912,27.688 62.158,30.938 	"/>
	<polyline fill="#DCDCDD" points="61.912,27.688 60.632,28.65 60.043,20.102 61.191,19.238 61.912,27.688 	"/>
	<polyline fill="#E2E1E1" points="61.191,19.238 60.043,20.102 59.107,12.511 60.043,11.807 61.191,19.238 	"/>
	<polyline fill="#EAEAEA" points="60.043,11.807 59.107,12.511 57.886,6.397 58.548,5.898 60.043,11.807 	"/>
	<polyline fill="#F7F6F6" points="58.548,5.898 57.886,6.397 56.464,2.176 56.806,1.918 58.548,5.898 	"/>
	<polyline fill="#DBDBDB" points="58.548,5.898 56.806,1.918 57.022,1.618 58.964,5.318 58.548,5.898 	"/>
	<polyline fill="#FFFFFF" points="56.464,2.176 57.886,6.397 57.022,6.78 56.017,2.374 56.464,2.176 	"/>
	<polyline fill="#FFFFFF" points="56.806,1.918 56.464,2.176 54.938,0.136 56.806,1.918 	"/>
	<polyline fill="#CDCDCC" points="60.043,11.807 58.548,5.898 58.964,5.318 60.632,10.985 60.043,11.807 	"/>
	<polyline fill="#FFFFFF" points="57.886,6.397 59.107,12.511 57.886,13.052 57.022,6.78 57.886,6.397 	"/>
	<polyline fill="#C4C4C3" points="61.191,19.238 60.043,11.807 60.632,10.985 61.912,18.232 61.191,19.238 	"/>
	<polyline fill="#FCFCFC" points="59.107,12.511 60.043,20.102 58.548,20.764 57.886,13.052 59.107,12.511 	"/>
	<polyline fill="#BDBDBC" points="61.912,27.688 61.191,19.238 61.912,18.232 62.716,26.566 61.912,27.688 	"/>
	<polyline fill="#F5F5F5" points="60.043,20.102 60.632,28.65 58.964,29.389 58.548,20.764 60.043,20.102 	"/>
	<polyline fill="#BCBCBB" points="62.158,30.938 61.912,27.688 62.716,26.566 62.992,29.777 62.158,30.938 	"/>
	<polyline fill="#F5F4F4" points="60.632,28.65 60.833,31.935 59.107,32.699 58.964,29.389 60.632,28.65 	"/>
	<polyline fill="#EFEFEF" points="56.806,1.918 54.938,0.136 57.022,1.618 56.806,1.918 	"/>
	<polyline fill="#FFFFFF" points="54.938,0.136 56.464,2.176 56.017,2.374 54.938,0.136 	"/>
	<polyline fill="#FFFFFF" points="56.017,2.374 57.022,6.78 56.017,7.021 55.497,2.499 56.017,2.374 	"/>
	<polyline fill="#FFFFFF" points="57.022,6.78 57.886,13.052 56.464,13.392 56.017,7.021 57.022,6.78 	"/>
	<polyline fill="#FFFFFF" points="57.886,13.052 58.548,20.764 56.806,21.18 56.464,13.392 57.886,13.052 	"/>
	<polyline fill="#FFFFFF" points="58.548,20.764 58.964,29.389 57.022,29.854 56.806,21.18 58.548,20.764 	"/>
	<polyline fill="#FFFFFF" points="58.964,29.389 59.107,32.699 57.095,33.181 57.022,29.854 58.964,29.389 	"/>
	<polyline fill="#FFFFFF" points="54.938,0.136 56.017,2.374 55.497,2.499 54.938,0.136 	"/>
	<polyline fill="#FFFFFF" points="55.497,2.499 56.017,7.021 54.938,7.103 54.938,2.541 55.497,2.499 	"/>
	<polyline fill="#FFFFFF" points="56.017,7.021 56.464,13.392 54.938,13.508 54.938,7.103 56.017,7.021 	"/>
	<polyline fill="#FFFFFF" points="56.464,13.392 56.806,21.18 54.938,21.322 54.938,13.508 56.464,13.392 	"/>
	<polyline fill="#FFFFFF" points="56.806,21.18 57.022,29.854 54.938,30.012 54.938,21.322 56.806,21.18 	"/>
	<polyline fill="#FFFFFF" points="57.022,29.854 57.095,33.181 54.938,33.345 54.938,30.012 57.022,29.854 	"/>
	<polyline fill="#FFFFFF" points="54.938,0.136 55.497,2.499 54.938,2.541 54.938,0.136 	"/>
	<polyline fill="#FFFFFF" points="54.938,2.541 54.938,7.103 53.859,7.021 54.379,2.499 54.938,2.541 	"/>
	<polyline fill="#FFFFFF" points="54.938,7.103 54.938,13.508 53.412,13.392 53.859,7.021 54.938,7.103 	"/>
	<polyline fill="#FFFFFF" points="54.938,13.508 54.938,21.322 53.069,21.18 53.412,13.392 54.938,13.508 	"/>
	<polyline fill="#FFFFFF" points="54.938,21.322 54.938,30.012 52.854,29.854 53.069,21.18 54.938,21.322 	"/>
	<polyline fill="#FFFFFF" points="54.938,30.012 54.938,33.345 52.78,33.181 52.854,29.854 54.938,30.012 	"/>
	<polyline fill="#FFFFFF" points="54.938,0.136 54.938,2.541 54.379,2.499 54.938,0.136 	"/>
	<polyline fill="#FFFFFF" points="54.379,2.499 53.859,7.021 52.854,6.78 53.859,2.374 54.379,2.499 	"/>
	<polyline fill="#FFFFFF" points="53.859,7.021 53.412,13.392 51.99,13.052 52.854,6.78 53.859,7.021 	"/>
	<polyline fill="#FFFFFF" points="53.412,13.392 53.069,21.18 51.328,20.764 51.99,13.052 53.412,13.392 	"/>
	<polyline fill="#FFFFFF" points="53.069,21.18 52.854,29.854 50.912,29.389 51.328,20.764 53.069,21.18 	"/>
	<polyline fill="#FFFFFF" points="52.854,29.854 52.78,33.181 50.769,32.699 50.912,29.389 52.854,29.854 	"/>
	<polyline fill="#FFFFFF" points="54.938,0.136 54.379,2.499 53.859,2.374 54.938,0.136 	"/>
	<polyline fill="#FFFFFF" points="53.859,2.374 52.854,6.78 51.99,6.397 53.412,2.176 53.859,2.374 	"/>
	<polyline fill="#FFFFFF" points="52.854,6.78 51.99,13.052 50.769,12.511 51.99,6.397 52.854,6.78 	"/>
	<polyline fill="#FCFCFC" points="51.99,13.052 51.328,20.764 49.833,20.102 50.769,12.511 51.99,13.052 	"/>
	<polyline fill="#F5F5F5" points="51.328,20.764 50.912,29.389 49.244,28.65 49.833,20.102 51.328,20.764 	"/>
	<polyline fill="#F5F4F4" points="50.912,29.389 50.769,32.699 49.042,31.935 49.244,28.65 50.912,29.389 	"/>
	<polyline fill="#FFFFFF" points="54.938,0.136 53.859,2.374 53.412,2.176 54.938,0.136 	"/>
	<polyline fill="#F7F6F6" points="53.412,2.176 51.99,6.397 51.328,5.898 53.069,1.918 53.412,2.176 	"/>
	<polyline fill="#EAEAEA" points="51.99,6.397 50.769,12.511 49.833,11.807 51.328,5.898 51.99,6.397 	"/>
	<polyline fill="#E2E1E1" points="50.769,12.511 49.833,20.102 48.685,19.238 49.833,11.807 50.769,12.511 	"/>
	<polyline fill="#DCDCDD" points="49.833,20.102 49.244,28.65 47.963,27.688 48.685,19.238 49.833,20.102 	"/>
	<polyline fill="#DCDCDC" points="49.244,28.65 49.042,31.935 47.718,30.938 47.963,27.688 49.244,28.65 	"/>
	<polyline fill="#FFFFFF" points="54.938,0.136 53.412,2.176 53.069,1.918 54.938,0.136 	"/>
	<polyline fill="#DBDBDB" points="53.069,1.918 51.328,5.898 50.912,5.318 52.854,1.618 53.069,1.918 	"/>
	<polyline fill="#CDCDCC" points="51.328,5.898 49.833,11.807 49.244,10.985 50.912,5.318 51.328,5.898 	"/>
	<polyline fill="#C4C4C3" points="49.833,11.807 48.685,19.238 47.963,18.232 49.244,10.985 49.833,11.807 	"/>
	<polyline fill="#BDBDBC" points="48.685,19.238 47.963,27.688 47.16,26.566 47.963,18.232 48.685,19.238 	"/>
	<polyline fill="#BCBCBB" points="47.963,27.688 47.718,30.938 46.885,29.777 47.16,26.566 47.963,27.688 	"/>
	<polyline fill="#EFEFEF" points="54.938,0.136 53.069,1.918 52.854,1.618 54.938,0.136 	"/>
	<polyline fill="#BABABA" points="52.854,1.618 50.912,5.318 50.769,4.695 52.78,1.295 52.854,1.618 	"/>
	<polyline fill="#A8A8A8" points="50.912,5.318 49.244,10.985 49.042,10.104 50.769,4.695 50.912,5.318 	"/>
	<polyline fill="#9F9F9F" points="49.244,10.985 47.963,18.232 47.718,17.153 49.042,10.104 49.244,10.985 	"/>
	<polyline fill="#989898" points="47.963,18.232 47.16,26.566 46.885,25.362 47.718,17.153 47.963,18.232 	"/>
	<polyline fill="#979797" points="47.16,26.566 46.885,29.777 46.601,28.531 46.885,25.362 47.16,26.566 	"/>
	<polyline fill="#DCDCDD" points="54.938,0.136 52.854,1.618 52.78,1.295 54.938,0.136 	"/>
	<polyline fill="#989898" points="52.78,1.295 50.769,4.695 50.912,4.072 52.854,0.973 52.78,1.295 	"/>
	<polyline fill="#818282" points="50.769,4.695 49.042,10.104 49.244,9.224 50.912,4.072 50.769,4.695 	"/>
	<polyline fill="#C9C9C9" points="54.938,0.136 52.78,1.295 52.854,0.973 54.938,0.136 	"/>
	<polyline fill="#B4B4B4" points="54.938,0.136 52.854,0.973 53.069,0.672 54.938,0.136 	"/>
	<polyline fill="#A2A1A1" points="54.938,0.136 53.069,0.672 53.412,0.414 54.938,0.136 	"/>
	<polyline fill="#919191" points="54.938,0.136 53.412,0.414 53.859,0.216 54.938,0.136 	"/>
	<polyline fill="#868686" points="54.938,0.136 53.859,0.216 54.379,0.092 54.938,0.136 	"/>
	<polyline fill="#808080" points="54.938,0.136 54.379,0.092 54.938,0.05 54.938,0.136 	"/>
	<polyline fill="#808080" points="54.938,0.136 54.938,0.05 55.497,0.092 54.938,0.136 	"/>
	<polyline fill="#868686" points="54.938,0.136 55.497,0.092 56.017,0.216 54.938,0.136 	"/>
	<polyline fill="#919191" points="54.938,0.136 56.017,0.216 56.464,0.414 54.938,0.136 	"/>
	<polyline fill="#A2A1A1" points="54.938,0.136 56.464,0.414 56.806,0.672 54.938,0.136 	"/>
	<polyline fill="#B4B4B4" points="54.938,0.136 56.806,0.672 57.022,0.973 54.938,0.136 	"/>
	<polyline fill="#989898" points="57.022,0.973 58.964,4.072 59.107,4.695 57.095,1.295 57.022,0.973 	"/>
	<polyline fill="#818282" points="58.964,4.072 60.632,9.224 60.833,10.104 59.107,4.695 58.964,4.072 	"/>
	<polyline fill="#C9C9C9" points="54.938,0.136 57.022,0.973 57.095,1.295 54.938,0.136 	"/>
	<polyline fill="#BABABA" points="57.095,1.295 59.107,4.695 58.964,5.318 57.022,1.618 57.095,1.295 	"/>
	<polyline fill="#A8A8A8" points="59.107,4.695 60.833,10.104 60.632,10.985 58.964,5.318 59.107,4.695 	"/>
	<polyline fill="#9F9F9F" points="60.833,10.104 62.158,17.153 61.912,18.232 60.632,10.985 60.833,10.104 	"/>
	<polyline fill="#989898" points="62.158,17.153 62.992,25.362 62.716,26.566 61.912,18.232 62.158,17.153 	"/>
	<polyline fill="#979797" points="62.992,25.362 63.275,28.531 62.992,29.777 62.716,26.566 62.992,25.362 	"/>
	<polyline fill="#DCDCDD" points="54.938,0.136 57.095,1.295 57.022,1.618 54.938,0.136 	"/>
	
		<line fill="none" stroke="#010202" stroke-width="0.1" stroke-linecap="round" stroke-linejoin="round" stroke-miterlimit="10" x1="54.938" y1="117.199" x2="54.938" y2="120.369"/>
	
		<line fill="none" stroke="#010202" stroke-width="0.1" stroke-linecap="round" stroke-linejoin="round" stroke-miterlimit="10" x1="0.05" y1="85.509" x2="54.938" y2="117.199"/>
	
		<line fill="none" stroke="#010202" stroke-width="0.1" stroke-linecap="round" stroke-linejoin="round" stroke-miterlimit="10" x1="54.938" y1="117.199" x2="109.826" y2="85.509"/>
	
		<line fill="none" stroke="#010202" stroke-width="0.1" stroke-linecap="round" stroke-linejoin="round" stroke-miterlimit="10" x1="54.938" y1="114.031" x2="104.337" y2="85.509"/>
	
		<line fill="none" stroke="#010202" stroke-width="0.1" stroke-linecap="round" stroke-linejoin="round" stroke-miterlimit="10" x1="5.539" y1="85.509" x2="54.938" y2="114.031"/>
	
		<line fill="none" stroke="#010202" stroke-width="0.1" stroke-linecap="round" stroke-linejoin="round" stroke-miterlimit="10" x1="54.938" y1="110.861" x2="54.938" y2="114.031"/>
	
		<polyline fill="none" stroke="#010202" stroke-width="0.1" stroke-linecap="round" stroke-linejoin="round" stroke-miterlimit="10" points="
		5.539,82.339 54.938,110.861 104.337,82.339 	"/>
	
		<line fill="none" stroke="#010202" stroke-width="0.1" stroke-linecap="round" stroke-linejoin="round" stroke-miterlimit="10" x1="54.938" y1="104.999" x2="71.616" y2="95.37"/>
	
		<line fill="none" stroke="#010202" stroke-width="0.1" stroke-linecap="round" stroke-linejoin="round" stroke-miterlimit="10" x1="74.288" y1="79.339" x2="66.207" y2="74.673"/>
	
		<line fill="none" stroke="#010202" stroke-width="0.1" stroke-linecap="round" stroke-linejoin="round" stroke-miterlimit="10" x1="43.669" y1="74.673" x2="35.588" y2="79.339"/>
	
		<line fill="none" stroke="#010202" stroke-width="0.1" stroke-linecap="round" stroke-linejoin="round" stroke-miterlimit="10" x1="54.938" y1="104.999" x2="54.938" y2="100.755"/>
	
		<line fill="none" stroke="#010202" stroke-width="0.1" stroke-linecap="round" stroke-linejoin="round" stroke-miterlimit="10" x1="71.616" y1="95.37" x2="94.183" y2="82.339"/>
	<path fill="none" stroke="#010202" stroke-width="0.1" stroke-linecap="round" stroke-linejoin="round" stroke-miterlimit="10" d="
		M67.941,84.761"/>
	<path fill="none" stroke="#010202" stroke-width="0.1" stroke-linecap="round" stroke-linejoin="round" stroke-miterlimit="10" d="
		M68.892,85.455"/>
	<path fill="none" stroke="#010202" stroke-width="0.1" stroke-linecap="round" stroke-linejoin="round" stroke-miterlimit="10" d="
		M70.54,87.505"/>
	<path fill="none" stroke="#010202" stroke-width="0.1" stroke-linecap="round" stroke-linejoin="round" stroke-miterlimit="10" d="
		M71.124,88.72"/>
	
		<polyline fill="none" stroke="#010202" stroke-width="0.1" stroke-linecap="round" stroke-linejoin="round" stroke-miterlimit="10" points="
		68.892,85.455 54.938,93.511 54.938,92.269 	"/>
	<path fill="none" stroke="#010202" stroke-width="0.1" stroke-linecap="round" stroke-linejoin="round" stroke-miterlimit="10" d="
		M69.779,86.39"/>
	
		<polyline fill="none" stroke="#010202" stroke-width="0.1" stroke-linecap="round" stroke-linejoin="round" stroke-miterlimit="10" points="
		69.779,86.39 54.938,94.958 54.938,93.511 	"/>
	
		<polyline fill="none" stroke="#010202" stroke-width="0.1" stroke-linecap="round" stroke-linejoin="round" stroke-miterlimit="10" points="
		70.54,87.505 54.938,96.512 54.938,94.958 	"/>
	
		<polyline fill="none" stroke="#010202" stroke-width="0.1" stroke-linecap="round" stroke-linejoin="round" stroke-miterlimit="10" points="
		71.124,88.72 54.938,98.066 54.938,96.512 	"/>
	
		<polyline fill="none" stroke="#010202" stroke-width="0.1" stroke-linecap="round" stroke-linejoin="round" stroke-miterlimit="10" points="
		71.49,89.957 54.938,99.513 54.938,98.066 	"/>
	
		<polyline fill="none" stroke="#010202" stroke-width="0.1" stroke-linecap="round" stroke-linejoin="round" stroke-miterlimit="10" points="
		71.616,91.126 54.938,100.755 54.938,99.513 	"/>
	
		<polyline fill="none" stroke="#010202" stroke-width="0.1" stroke-linecap="round" stroke-linejoin="round" stroke-miterlimit="10" points="
		54.938,93.511 21.14,73.998 23.042,73.853 	"/>
	
		<polyline fill="none" stroke="#010202" stroke-width="0.1" stroke-linecap="round" stroke-linejoin="round" stroke-miterlimit="10" points="
		54.938,94.958 19.367,74.422 21.14,73.998 	"/>
	
		<polyline fill="none" stroke="#010202" stroke-width="0.1" stroke-linecap="round" stroke-linejoin="round" stroke-miterlimit="10" points="
		54.938,96.512 17.845,75.097 19.367,74.422 	"/>
	
		<line fill="none" stroke="#010202" stroke-width="0.1" stroke-linecap="round" stroke-linejoin="round" stroke-miterlimit="10" x1="54.938" y1="98.066" x2="16.677" y2="75.976"/>
	
		<line fill="none" stroke="#010202" stroke-width="0.1" stroke-linecap="round" stroke-linejoin="round" stroke-miterlimit="10" x1="54.938" y1="99.513" x2="15.943" y2="77"/>
	
		<line fill="none" stroke="#010202" stroke-width="0.1" stroke-linecap="round" stroke-linejoin="round" stroke-miterlimit="10" x1="54.938" y1="100.755" x2="15.693" y2="78.097"/>
	
		<line fill="none" stroke="#010202" stroke-width="0.1" stroke-linecap="round" stroke-linejoin="round" stroke-miterlimit="10" x1="21.14" y1="73.998" x2="44.572" y2="60.47"/>
	
		<line fill="none" stroke="#010202" stroke-width="0.1" stroke-linecap="round" stroke-linejoin="round" stroke-miterlimit="10" x1="19.367" y1="74.422" x2="44.611" y2="59.848"/>
	
		<polyline fill="none" stroke="#010202" stroke-width="0.1" stroke-linecap="round" stroke-linejoin="round" stroke-miterlimit="10" points="
		65.304,60.47 88.736,73.998 86.833,73.853 	"/>
	
		<polyline fill="none" stroke="#010202" stroke-width="0.1" stroke-linecap="round" stroke-linejoin="round" stroke-miterlimit="10" points="
		65.265,59.848 90.508,74.422 88.736,73.998 	"/>
	
		<line fill="none" stroke="#010202" stroke-width="0.1" stroke-linecap="round" stroke-linejoin="round" stroke-miterlimit="10" x1="92.031" y1="75.097" x2="90.508" y2="74.422"/>
	
		<line fill="none" stroke="#010202" stroke-width="0.1" stroke-linecap="round" stroke-linejoin="round" stroke-miterlimit="10" x1="88.736" y1="73.998" x2="68.892" y2="85.455"/>
	
		<line fill="none" stroke="#010202" stroke-width="0.1" stroke-linecap="round" stroke-linejoin="round" stroke-miterlimit="10" x1="90.508" y1="74.422" x2="69.779" y2="86.39"/>
	<path fill="none" stroke="#010202" stroke-width="0.1" stroke-linecap="round" stroke-linejoin="round" stroke-miterlimit="10" d="
		M69.779,86.39"/>
	
		<line fill="none" stroke="#010202" stroke-width="0.1" stroke-linecap="round" stroke-linejoin="round" stroke-miterlimit="10" x1="92.031" y1="75.097" x2="70.54" y2="87.505"/>
	
		<line fill="none" stroke="#010202" stroke-width="0.1" stroke-linecap="round" stroke-linejoin="round" stroke-miterlimit="10" x1="93.199" y1="75.976" x2="71.124" y2="88.72"/>
	<path fill="none" stroke="#010202" stroke-width="0.1" stroke-linecap="round" stroke-linejoin="round" stroke-miterlimit="10" d="
		M71.124,88.72"/>
	
		<line fill="none" stroke="#010202" stroke-width="0.1" stroke-linecap="round" stroke-linejoin="round" stroke-miterlimit="10" x1="93.933" y1="77" x2="71.49" y2="89.957"/>
	
		<line fill="none" stroke="#010202" stroke-width="0.1" stroke-linecap="round" stroke-linejoin="round" stroke-miterlimit="10" x1="94.183" y1="78.097" x2="71.616" y2="91.126"/>
	
		<line fill="none" stroke="#010202" stroke-width="0.1" stroke-linecap="round" stroke-linejoin="round" stroke-miterlimit="10" x1="54.938" y1="90.716" x2="54.938" y2="90.511"/>
	
		<line fill="none" stroke="#010202" stroke-width="0.1" stroke-linecap="round" stroke-linejoin="round" stroke-miterlimit="10" x1="54.938" y1="91.316" x2="54.938" y2="90.716"/>
	
		<polyline fill="none" stroke="#010202" stroke-width="0.1" stroke-linecap="round" stroke-linejoin="round" stroke-miterlimit="10" points="
		67.941,84.761 54.938,92.269 54.938,91.316 	"/>
	
		<line fill="none" stroke="#010202" stroke-width="0.1" stroke-linecap="round" stroke-linejoin="round" stroke-miterlimit="10" x1="26.716" y1="74.422" x2="28.239" y2="75.097"/>
	
		<line fill="none" stroke="#010202" stroke-width="0.1" stroke-linecap="round" stroke-linejoin="round" stroke-miterlimit="10" x1="24.944" y1="73.998" x2="26.716" y2="74.422"/>
	
		<polyline fill="none" stroke="#010202" stroke-width="0.1" stroke-linecap="round" stroke-linejoin="round" stroke-miterlimit="10" points="
		54.938,92.269 23.042,73.853 24.944,73.998 	"/>
	
		<line fill="none" stroke="#010202" stroke-width="0.1" stroke-linecap="round" stroke-linejoin="round" stroke-miterlimit="10" x1="31.914" y1="77.218" x2="43.949" y2="70.269"/>
	
		<line fill="none" stroke="#010202" stroke-width="0.1" stroke-linecap="round" stroke-linejoin="round" stroke-miterlimit="10" x1="23.042" y1="73.853" x2="44.509" y2="61.46"/>
	
		<line fill="none" stroke="#010202" stroke-width="0.1" stroke-linecap="round" stroke-linejoin="round" stroke-miterlimit="10" x1="65.927" y1="70.269" x2="77.962" y2="77.218"/>
	
		<line fill="none" stroke="#010202" stroke-width="0.1" stroke-linecap="round" stroke-linejoin="round" stroke-miterlimit="10" x1="83.16" y1="74.422" x2="81.637" y2="75.097"/>
	
		<line fill="none" stroke="#010202" stroke-width="0.1" stroke-linecap="round" stroke-linejoin="round" stroke-miterlimit="10" x1="84.932" y1="73.998" x2="83.16" y2="74.422"/>
	
		<polyline fill="none" stroke="#010202" stroke-width="0.1" stroke-linecap="round" stroke-linejoin="round" stroke-miterlimit="10" points="
		65.367,61.46 86.833,73.853 84.932,73.998 	"/>
	<path fill="none" stroke="#010202" stroke-width="0.1" stroke-linecap="round" stroke-linejoin="round" stroke-miterlimit="10" d="
		M65.342,84.504"/>
	<path fill="none" stroke="#010202" stroke-width="0.1" stroke-linecap="round" stroke-linejoin="round" stroke-miterlimit="10" d="
		M66.104,84.269"/>
	<path fill="none" stroke="#010202" stroke-width="0.1" stroke-linecap="round" stroke-linejoin="round" stroke-miterlimit="10" d="
		M66.104,84.269"/>
	<path fill="none" stroke="#010202" stroke-width="0.1" stroke-linecap="round" stroke-linejoin="round" stroke-miterlimit="10" d="
		M66.99,84.357"/>
	<path fill="none" stroke="#010202" stroke-width="0.1" stroke-linecap="round" stroke-linejoin="round" stroke-miterlimit="10" d="
		M66.99,84.357"/>
	
		<line fill="none" stroke="#010202" stroke-width="0.1" stroke-linecap="round" stroke-linejoin="round" stroke-miterlimit="10" x1="86.833" y1="73.853" x2="67.941" y2="84.761"/>
	
		<line fill="none" stroke="#010202" stroke-width="0.1" stroke-linecap="round" stroke-linejoin="round" stroke-miterlimit="10" x1="66.694" y1="82.339" x2="66.331" y2="83.934"/>
	
		<polyline fill="none" stroke="#010202" stroke-width="0.1" stroke-linecap="round" stroke-linejoin="round" stroke-miterlimit="10" points="
		57.699,88.917 54.938,89.127 52.177,88.917 	"/>
	
		<line fill="none" stroke="#010202" stroke-width="0.1" stroke-linecap="round" stroke-linejoin="round" stroke-miterlimit="10" x1="43.545" y1="83.934" x2="43.182" y2="82.339"/>
	
		<line fill="none" stroke="#010202" stroke-width="0.1" stroke-linecap="round" stroke-linejoin="round" stroke-miterlimit="10" x1="15.693" y1="82.339" x2="54.938" y2="104.999"/>
	
		<line fill="none" stroke="#010202" stroke-width="0.1" stroke-linecap="round" stroke-linejoin="round" stroke-miterlimit="10" x1="54.938" y1="120.369" x2="109.826" y2="88.677"/>
	
		<line fill="none" stroke="#010202" stroke-width="0.1" stroke-linecap="round" stroke-linejoin="round" stroke-miterlimit="10" x1="0.05" y1="88.677" x2="54.938" y2="120.369"/>
	
		<line fill="none" stroke="#010202" stroke-width="0.1" stroke-linecap="round" stroke-linejoin="round" stroke-miterlimit="10" x1="0.05" y1="88.677" x2="0.05" y2="85.509"/>
	
		<line fill="none" stroke="#010202" stroke-width="0.1" stroke-linecap="round" stroke-linejoin="round" stroke-miterlimit="10" x1="104.337" y1="82.339" x2="104.337" y2="85.509"/>
	
		<line fill="none" stroke="#010202" stroke-width="0.1" stroke-linecap="round" stroke-linejoin="round" stroke-miterlimit="10" x1="17.055" y1="75.691" x2="5.539" y2="82.339"/>
	
		<line fill="none" stroke="#010202" stroke-width="0.1" stroke-linecap="round" stroke-linejoin="round" stroke-miterlimit="10" x1="104.337" y1="82.339" x2="92.821" y2="75.691"/>
	
		<line fill="none" stroke="#010202" stroke-width="0.1" stroke-linecap="round" stroke-linejoin="round" stroke-miterlimit="10" x1="5.539" y1="82.339" x2="5.539" y2="85.509"/>
	
		<line fill="none" stroke="#010202" stroke-width="0.1" stroke-linecap="round" stroke-linejoin="round" stroke-miterlimit="10" x1="94.183" y1="82.339" x2="94.183" y2="78.097"/>
	
		<line fill="none" stroke="#010202" stroke-width="0.1" stroke-linecap="round" stroke-linejoin="round" stroke-miterlimit="10" x1="15.693" y1="82.339" x2="15.693" y2="78.097"/>
	
		<line fill="none" stroke="#010202" stroke-width="0.1" stroke-linecap="round" stroke-linejoin="round" stroke-miterlimit="10" x1="15.943" y1="77" x2="16.677" y2="75.976"/>
	
		<line fill="none" stroke="#010202" stroke-width="0.1" stroke-linecap="round" stroke-linejoin="round" stroke-miterlimit="10" x1="15.693" y1="78.097" x2="15.943" y2="77"/>
	
		<line fill="none" stroke="#010202" stroke-width="0.1" stroke-linecap="round" stroke-linejoin="round" stroke-miterlimit="10" x1="17.845" y1="75.097" x2="44.625" y2="59.636"/>
	
		<line fill="none" stroke="#010202" stroke-width="0.1" stroke-linecap="round" stroke-linejoin="round" stroke-miterlimit="10" x1="65.251" y1="59.636" x2="92.031" y2="75.097"/>
	
		<line fill="none" stroke="#010202" stroke-width="0.1" stroke-linecap="round" stroke-linejoin="round" stroke-miterlimit="10" x1="93.933" y1="77" x2="93.199" y2="75.976"/>
	
		<line fill="none" stroke="#010202" stroke-width="0.1" stroke-linecap="round" stroke-linejoin="round" stroke-miterlimit="10" x1="94.183" y1="78.097" x2="93.933" y2="77"/>
	
		<line fill="none" stroke="#010202" stroke-width="0.1" stroke-linecap="round" stroke-linejoin="round" stroke-miterlimit="10" x1="47.718" y1="17.153" x2="49.042" y2="10.104"/>
	
		<line fill="none" stroke="#010202" stroke-width="0.1" stroke-linecap="round" stroke-linejoin="round" stroke-miterlimit="10" x1="46.885" y1="25.362" x2="47.718" y2="17.153"/>
	
		<line fill="none" stroke="#010202" stroke-width="0.1" stroke-linecap="round" stroke-linejoin="round" stroke-miterlimit="10" x1="46.601" y1="28.531" x2="46.885" y2="25.362"/>
	
		<line fill="none" stroke="#010202" stroke-width="0.1" stroke-linecap="round" stroke-linejoin="round" stroke-miterlimit="10" x1="50.912" y1="4.072" x2="52.854" y2="0.973"/>
	
		<polyline fill="none" stroke="#010202" stroke-width="0.1" stroke-linecap="round" stroke-linejoin="round" stroke-miterlimit="10" points="
		49.042,10.104 49.244,9.224 50.912,4.072 	"/>
	
		<line fill="none" stroke="#010202" stroke-width="0.1" stroke-linecap="round" stroke-linejoin="round" stroke-miterlimit="10" x1="53.069" y1="0.672" x2="52.854" y2="0.973"/>
	
		<line fill="none" stroke="#010202" stroke-width="0.1" stroke-linecap="round" stroke-linejoin="round" stroke-miterlimit="10" x1="53.412" y1="0.414" x2="53.069" y2="0.672"/>
	
		<line fill="none" stroke="#010202" stroke-width="0.1" stroke-linecap="round" stroke-linejoin="round" stroke-miterlimit="10" x1="53.859" y1="0.216" x2="53.412" y2="0.414"/>
	
		<line fill="none" stroke="#010202" stroke-width="0.1" stroke-linecap="round" stroke-linejoin="round" stroke-miterlimit="10" x1="54.379" y1="0.092" x2="53.859" y2="0.216"/>
	
		<line fill="none" stroke="#010202" stroke-width="0.1" stroke-linecap="round" stroke-linejoin="round" stroke-miterlimit="10" x1="54.938" y1="0.05" x2="54.379" y2="0.092"/>
	
		<line fill="none" stroke="#010202" stroke-width="0.1" stroke-linecap="round" stroke-linejoin="round" stroke-miterlimit="10" x1="55.497" y1="0.092" x2="54.938" y2="0.05"/>
	
		<line fill="none" stroke="#010202" stroke-width="0.1" stroke-linecap="round" stroke-linejoin="round" stroke-miterlimit="10" x1="56.017" y1="0.216" x2="55.497" y2="0.092"/>
	
		<line fill="none" stroke="#010202" stroke-width="0.1" stroke-linecap="round" stroke-linejoin="round" stroke-miterlimit="10" x1="56.464" y1="0.414" x2="56.017" y2="0.216"/>
	
		<line fill="none" stroke="#010202" stroke-width="0.1" stroke-linecap="round" stroke-linejoin="round" stroke-miterlimit="10" x1="56.806" y1="0.672" x2="56.464" y2="0.414"/>
	
		<polyline fill="none" stroke="#010202" stroke-width="0.1" stroke-linecap="round" stroke-linejoin="round" stroke-miterlimit="10" points="
		58.964,4.072 57.022,0.973 56.806,0.672 	"/>
	
		<line fill="none" stroke="#010202" stroke-width="0.1" stroke-linecap="round" stroke-linejoin="round" stroke-miterlimit="10" x1="60.632" y1="9.224" x2="58.964" y2="4.072"/>
	
		<line fill="none" stroke="#010202" stroke-width="0.1" stroke-linecap="round" stroke-linejoin="round" stroke-miterlimit="10" x1="60.632" y1="9.224" x2="60.833" y2="10.104"/>
	
		<line fill="none" stroke="#010202" stroke-width="0.1" stroke-linecap="round" stroke-linejoin="round" stroke-miterlimit="10" x1="62.158" y1="17.153" x2="60.833" y2="10.104"/>
	
		<line fill="none" stroke="#010202" stroke-width="0.1" stroke-linecap="round" stroke-linejoin="round" stroke-miterlimit="10" x1="62.992" y1="25.362" x2="62.158" y2="17.153"/>
	
		<line fill="none" stroke="#010202" stroke-width="0.1" stroke-linecap="round" stroke-linejoin="round" stroke-miterlimit="10" x1="63.275" y1="28.531" x2="62.992" y2="25.362"/>
	
		<line fill="none" stroke="#010202" stroke-width="0.1" stroke-linecap="round" stroke-linejoin="round" stroke-miterlimit="10" x1="109.826" y1="85.509" x2="104.337" y2="82.339"/>
	
		<line fill="none" stroke="#010202" stroke-width="0.1" stroke-linecap="round" stroke-linejoin="round" stroke-miterlimit="10" x1="5.539" y1="82.339" x2="0.05" y2="85.509"/>
	
		<polyline fill="none" stroke="#010202" stroke-width="0.1" stroke-linecap="round" stroke-linejoin="round" stroke-miterlimit="10" points="
		16.677,75.976 17.055,75.691 17.845,75.097 	"/>
	
		<polyline fill="none" stroke="#010202" stroke-width="0.1" stroke-linecap="round" stroke-linejoin="round" stroke-miterlimit="10" points="
		93.199,75.976 92.821,75.691 92.031,75.097 	"/>
	
		<polyline fill="none" stroke="#010202" stroke-width="0.1" stroke-linecap="round" stroke-linejoin="round" stroke-miterlimit="10" points="
		57.699,88.917 54.938,90.511 52.177,88.917 	"/>
	
		<line fill="none" stroke="#010202" stroke-width="0.1" stroke-linecap="round" stroke-linejoin="round" stroke-miterlimit="10" x1="43.182" y1="82.339" x2="43.669" y2="74.673"/>
	
		<line fill="none" stroke="#010202" stroke-width="0.1" stroke-linecap="round" stroke-linejoin="round" stroke-miterlimit="10" x1="66.694" y1="82.339" x2="66.207" y2="74.673"/>
	
		<line fill="none" stroke="#010202" stroke-width="0.1" stroke-linecap="round" stroke-linejoin="round" stroke-miterlimit="10" x1="57.978" y1="88.755" x2="57.699" y2="88.917"/>
	
		<line fill="none" stroke="#010202" stroke-width="0.1" stroke-linecap="round" stroke-linejoin="round" stroke-miterlimit="10" x1="52.177" y1="88.917" x2="51.897" y2="88.755"/>
	
		<polyline fill="none" stroke="#010202" stroke-width="0.1" stroke-linecap="round" stroke-linejoin="round" stroke-miterlimit="10" points="
		77.962,77.218 74.288,79.339 66.331,83.934 	"/>
	
		<line fill="none" stroke="#010202" stroke-width="0.1" stroke-linecap="round" stroke-linejoin="round" stroke-miterlimit="10" x1="60.783" y1="87.137" x2="57.978" y2="88.755"/>
	
		<line fill="none" stroke="#010202" stroke-width="0.1" stroke-linecap="round" stroke-linejoin="round" stroke-miterlimit="10" x1="51.897" y1="88.755" x2="49.093" y2="87.137"/>
	
		<line fill="none" stroke="#010202" stroke-width="0.1" stroke-linecap="round" stroke-linejoin="round" stroke-miterlimit="10" x1="79.039" y1="76.597" x2="77.962" y2="77.218"/>
	
		<polyline fill="none" stroke="#010202" stroke-width="0.1" stroke-linecap="round" stroke-linejoin="round" stroke-miterlimit="10" points="
		66.331,83.934 66.285,83.96 65.342,84.504 	"/>
	
		<line fill="none" stroke="#010202" stroke-width="0.1" stroke-linecap="round" stroke-linejoin="round" stroke-miterlimit="10" x1="43.669" y1="74.673" x2="43.949" y2="70.269"/>
	
		<line fill="none" stroke="#010202" stroke-width="0.1" stroke-linecap="round" stroke-linejoin="round" stroke-miterlimit="10" x1="44.572" y1="60.47" x2="44.611" y2="59.848"/>
	
		<line fill="none" stroke="#010202" stroke-width="0.1" stroke-linecap="round" stroke-linejoin="round" stroke-miterlimit="10" x1="66.207" y1="74.673" x2="65.927" y2="70.269"/>
	
		<line fill="none" stroke="#010202" stroke-width="0.1" stroke-linecap="round" stroke-linejoin="round" stroke-miterlimit="10" x1="65.304" y1="60.47" x2="65.265" y2="59.848"/>
	
		<line fill="none" stroke="#010202" stroke-width="0.1" stroke-linecap="round" stroke-linejoin="round" stroke-miterlimit="10" x1="63.19" y1="85.748" x2="60.783" y2="87.137"/>
	
		<line fill="none" stroke="#010202" stroke-width="0.1" stroke-linecap="round" stroke-linejoin="round" stroke-miterlimit="10" x1="49.093" y1="87.137" x2="46.687" y2="85.748"/>
	
		<polyline fill="none" stroke="#010202" stroke-width="0.1" stroke-linecap="round" stroke-linejoin="round" stroke-miterlimit="10" points="
		81.637,75.097 80.292,75.873 79.039,76.597 	"/>
	
		<line fill="none" stroke="#010202" stroke-width="0.1" stroke-linecap="round" stroke-linejoin="round" stroke-miterlimit="10" x1="43.949" y1="70.269" x2="44.031" y2="68.98"/>
	
		<polyline fill="none" stroke="#010202" stroke-width="0.1" stroke-linecap="round" stroke-linejoin="round" stroke-miterlimit="10" points="
		44.611,59.848 44.625,59.636 46.601,28.531 	"/>
	
		<line fill="none" stroke="#010202" stroke-width="0.1" stroke-linecap="round" stroke-linejoin="round" stroke-miterlimit="10" x1="65.927" y1="70.269" x2="65.845" y2="68.98"/>
	
		<polyline fill="none" stroke="#010202" stroke-width="0.1" stroke-linecap="round" stroke-linejoin="round" stroke-miterlimit="10" points="
		65.265,59.848 65.251,59.636 63.275,28.531 	"/>
	
		<polyline fill="none" stroke="#010202" stroke-width="0.1" stroke-linecap="round" stroke-linejoin="round" stroke-miterlimit="10" points="
		65.342,84.504 65.061,84.667 63.19,85.748 	"/>
	
		<line fill="none" stroke="#010202" stroke-width="0.1" stroke-linecap="round" stroke-linejoin="round" stroke-miterlimit="10" x1="44.031" y1="68.98" x2="44.126" y2="67.477"/>
	
		<line fill="none" stroke="#010202" stroke-width="0.1" stroke-linecap="round" stroke-linejoin="round" stroke-miterlimit="10" x1="65.845" y1="68.98" x2="65.75" y2="67.477"/>
	
		<polyline fill="none" stroke="#010202" stroke-width="0.1" stroke-linecap="round" stroke-linejoin="round" stroke-miterlimit="10" points="
		43.545,83.934 35.588,79.339 31.914,77.218 	"/>
	
		<line fill="none" stroke="#010202" stroke-width="0.1" stroke-linecap="round" stroke-linejoin="round" stroke-miterlimit="10" x1="44.126" y1="67.477" x2="44.229" y2="65.865"/>
	
		<line fill="none" stroke="#010202" stroke-width="0.1" stroke-linecap="round" stroke-linejoin="round" stroke-miterlimit="10" x1="65.75" y1="67.477" x2="65.647" y2="65.865"/>
	
		<line fill="none" stroke="#010202" stroke-width="0.1" stroke-linecap="round" stroke-linejoin="round" stroke-miterlimit="10" x1="43.591" y1="83.96" x2="43.545" y2="83.934"/>
	
		<line fill="none" stroke="#010202" stroke-width="0.1" stroke-linecap="round" stroke-linejoin="round" stroke-miterlimit="10" x1="31.914" y1="77.218" x2="30.837" y2="76.597"/>
	
		<line fill="none" stroke="#010202" stroke-width="0.1" stroke-linecap="round" stroke-linejoin="round" stroke-miterlimit="10" x1="44.229" y1="65.865" x2="44.332" y2="64.252"/>
	
		<line fill="none" stroke="#010202" stroke-width="0.1" stroke-linecap="round" stroke-linejoin="round" stroke-miterlimit="10" x1="65.647" y1="65.865" x2="65.544" y2="64.252"/>
	
		<polyline fill="none" stroke="#010202" stroke-width="0.1" stroke-linecap="round" stroke-linejoin="round" stroke-miterlimit="10" points="
		46.687,85.748 44.815,84.667 43.591,83.96 	"/>
	
		<polyline fill="none" stroke="#010202" stroke-width="0.1" stroke-linecap="round" stroke-linejoin="round" stroke-miterlimit="10" points="
		30.837,76.597 29.583,75.873 28.239,75.097 	"/>
	
		<line fill="none" stroke="#010202" stroke-width="0.1" stroke-linecap="round" stroke-linejoin="round" stroke-miterlimit="10" x1="44.332" y1="64.252" x2="44.427" y2="62.75"/>
	
		<line fill="none" stroke="#010202" stroke-width="0.1" stroke-linecap="round" stroke-linejoin="round" stroke-miterlimit="10" x1="65.544" y1="64.252" x2="65.45" y2="62.75"/>
	
		<polyline fill="none" stroke="#010202" stroke-width="0.1" stroke-linecap="round" stroke-linejoin="round" stroke-miterlimit="10" points="
		44.427,62.75 44.509,61.46 44.572,60.47 	"/>
	
		<polyline fill="none" stroke="#010202" stroke-width="0.1" stroke-linecap="round" stroke-linejoin="round" stroke-miterlimit="10" points="
		65.45,62.75 65.367,61.46 65.304,60.47 	"/>
	
		<line fill="none" stroke="#010202" stroke-width="0.1" stroke-linecap="round" stroke-linejoin="round" stroke-miterlimit="10" x1="109.826" y1="88.677" x2="109.826" y2="85.509"/>
</g>
</svg>
