<?xml version="1.0" encoding="utf-8"?>
<!-- Generator: Adobe Illustrator 15.1.0, SVG Export Plug-In . SVG Version: 6.00 Build 0)  -->
<!DOCTYPE svg PUBLIC "-//W3C//DTD SVG 1.1//EN" "http://www.w3.org/Graphics/SVG/1.1/DTD/svg11.dtd">
<svg version="1.1" id="Calque_1" xmlns="http://www.w3.org/2000/svg" xmlns:xlink="http://www.w3.org/1999/xlink" x="0px" y="0px"
	 width="109.877px" height="114.081px" viewBox="-29.698 -18.032 109.877 114.081"
	 enable-background="new -29.698 -18.032 109.877 114.081" xml:space="preserve">
<g>
	
		<line fill="none" stroke="#010202" stroke-width="0.1" stroke-linecap="round" stroke-linejoin="round" stroke-miterlimit="10" x1="25.24" y1="95.999" x2="80.129" y2="64.307"/>
	
		<line fill="none" stroke="#010202" stroke-width="0.1" stroke-linecap="round" stroke-linejoin="round" stroke-miterlimit="10" x1="-29.648" y1="64.307" x2="25.24" y2="95.999"/>
	
		<line fill="none" stroke="#010202" stroke-width="0.1" stroke-linecap="round" stroke-linejoin="round" stroke-miterlimit="10" x1="80.129" y1="64.307" x2="25.24" y2="32.614"/>
	
		<line fill="none" stroke="#010202" stroke-width="0.1" stroke-linecap="round" stroke-linejoin="round" stroke-miterlimit="10" x1="25.24" y1="32.614" x2="-29.648" y2="64.307"/>
</g>
<g>
	<polygon fill="#E2E1E1" points="41.918,73.094 25.241,82.723 25.241,86.967 41.918,77.339 64.486,64.307 64.486,60.065 	"/>
	<polyline fill="#E2E1E1" points="25.241,82.723 25.241,86.967 -14.004,64.307 -14.004,60.065 25.241,82.723 	"/>
	<polyline fill="#EFEEEE" points="41.918,73.094 25.241,82.723 25.241,81.481 41.793,71.925 41.918,73.094 	"/>
	<polyline fill="#EFEEEE" points="41.918,73.094 41.793,71.925 64.236,58.968 64.486,60.065 41.918,73.094 	"/>
	<polyline fill="#FFFFFF" points="41.793,71.925 25.241,81.481 25.241,80.034 41.426,70.688 41.793,71.925 	"/>
	<polyline fill="#FFFFFF" points="41.426,70.688 25.241,80.034 25.241,78.479 40.842,69.473 41.426,70.688 	"/>
	<polyline fill="#FFFFFF" points="41.426,70.688 40.842,69.473 62.333,57.065 63.124,57.659 63.502,57.944 41.426,70.688 	"/>
	<polyline fill="#FFFFFF" points="40.842,69.473 25.241,78.479 25.241,76.926 40.082,68.358 40.842,69.473 	"/>
	<polyline fill="#FFFFFF" points="40.082,68.358 25.241,76.926 25.241,75.479 39.195,67.423 40.082,68.358 	"/>
	<polyline fill="#FFFFFF" points="40.082,68.358 39.195,67.423 59.039,55.966 60.811,56.39 40.082,68.358 	"/>
	<polyline fill="#EFEEEE" points="39.195,67.423 25.241,75.479 25.241,74.237 38.244,66.729 39.195,67.423 	"/>
	<polyline fill="#EFEEEE" points="39.195,67.423 38.244,66.729 57.135,55.821 59.039,55.966 39.195,67.423 	"/>
	<polyline fill="#EFEEEE" points="25.241,74.237 25.241,75.479 -8.557,55.966 -6.655,55.821 25.241,74.237 	"/>
	<polyline fill="#FFFFFF" points="25.241,75.479 25.241,76.926 -10.33,56.39 -8.557,55.966 25.241,75.479 	"/>
	<polyline fill="#FFFFFF" points="25.241,76.926 25.241,78.479 -11.852,57.065 -10.33,56.39 25.241,76.926 	"/>
	<polyline fill="#FFFFFF" points="25.241,78.479 25.241,80.034 -13.021,57.944 -12.642,57.659 -11.852,57.065 25.241,78.479 	"/>
	<polyline fill="#FFFFFF" points="25.241,80.034 25.241,81.481 -13.754,58.968 -13.021,57.944 25.241,80.034 	"/>
	<polyline fill="#EFEEEE" points="25.241,81.481 25.241,82.723 -14.004,60.065 -13.754,58.968 25.241,81.481 	"/>
	<polyline fill="#D6D6D6" points="-6.655,55.821 -8.557,55.966 14.875,42.438 14.812,43.428 -6.655,55.821 	"/>
	<polyline fill="#B5B4B4" points="-8.557,55.966 -10.33,56.39 14.914,41.815 14.875,42.438 -8.557,55.966 	"/>
	<polyline fill="#8E8E8E" points="-10.33,56.39 -11.852,57.065 14.928,41.604 14.914,41.815 -10.33,56.39 	"/>
	<polyline fill="#D6D6D6" points="59.039,55.966 57.135,55.821 35.67,43.428 35.607,42.438 59.039,55.966 	"/>
	<polyline fill="#B5B4B4" points="59.039,55.966 35.607,42.438 35.568,41.815 60.811,56.39 59.039,55.966 	"/>
	<polyline fill="#8E8E8E" points="60.811,56.39 35.568,41.815 35.553,41.604 62.333,57.065 60.811,56.39 	"/>
	<polyline fill="#FFFFFF" points="60.811,56.39 62.333,57.065 40.842,69.473 40.082,68.358 60.811,56.39 	"/>
	<polyline fill="#FFFFFF" points="63.502,57.944 64.236,58.968 41.793,71.925 41.426,70.688 63.502,57.944 	"/>
	<polyline fill="#D6D6D6" points="38.244,66.729 25.241,74.237 25.241,73.284 37.293,66.325 38.244,66.729 	"/>
	<polyline fill="#B5B4B4" points="37.293,66.325 25.241,73.284 25.241,72.684 36.407,66.237 37.293,66.325 	"/>
	<polyline fill="#8E8E8E" points="36.407,66.237 25.241,72.684 25.241,72.479 28.002,70.885 28.281,70.723 31.086,69.104 
		33.493,67.716 35.364,66.635 35.645,66.472 36.407,66.237 	"/>
	<polyline fill="#8E8E8E" points="25.241,72.479 25.241,72.684 -2.981,56.39 -1.458,57.065 -0.114,57.841 1.14,58.565 2.217,59.186 
		5.891,61.307 13.848,65.901 13.894,65.928 15.118,66.635 16.99,67.716 19.396,69.104 22.2,70.723 22.479,70.885 25.241,72.479 	"/>
	<polyline fill="#B5B4B4" points="25.241,72.684 25.241,73.284 -4.753,55.966 -2.981,56.39 25.241,72.684 	"/>
	<polyline fill="#D6D6D6" points="25.241,73.284 25.241,74.237 -6.655,55.821 -4.753,55.966 25.241,73.284 	"/>
	<polyline fill="#FFFFFF" points="-1.458,57.065 -2.981,56.39 14.635,46.22 14.532,47.833 -1.458,57.065 	"/>
	<polyline fill="#FFFFFF" points="-2.981,56.39 -4.753,55.966 14.729,44.718 14.635,46.22 -2.981,56.39 	"/>
	<polyline fill="#EFEEEE" points="-4.753,55.966 -6.655,55.821 14.812,43.428 14.729,44.718 -4.753,55.966 	"/>
	<polyline fill="#FFFFFF" points="-1.458,57.065 14.532,47.833 14.429,49.444 -0.114,57.841 -1.458,57.065 	"/>
	<polyline fill="#FFFFFF" points="-0.114,57.841 14.429,49.444 14.333,50.948 1.14,58.565 -0.114,57.841 	"/>
	<polyline fill="#EFEEEE" points="1.14,58.565 14.333,50.948 14.252,52.237 2.217,59.186 1.14,58.565 	"/>
	<polyline fill="#E2E1E1" points="2.217,59.186 14.252,52.237 13.972,56.641 5.891,61.307 2.217,59.186 	"/>
	<polyline fill="#EFEEEE" points="35.67,43.428 57.135,55.821 55.235,55.966 35.752,44.718 35.67,43.428 	"/>
	<polyline fill="#FFFFFF" points="35.752,44.718 55.235,55.966 53.463,56.39 35.846,46.22 35.752,44.718 	"/>
	<polyline fill="#FFFFFF" points="35.846,46.22 53.463,56.39 51.94,57.065 35.95,47.833 35.846,46.22 	"/>
	<polyline fill="#FFFFFF" points="35.95,47.833 51.94,57.065 50.594,57.841 36.053,49.444 35.95,47.833 	"/>
	<polyline fill="#FFFFFF" points="36.053,49.444 50.594,57.841 49.342,58.565 36.148,50.948 36.053,49.444 	"/>
	<polyline fill="#EFEEEE" points="36.148,50.948 49.342,58.565 48.264,59.186 36.23,52.237 36.148,50.948 	"/>
	<polyline fill="#E2E1E1" points="36.23,52.237 48.264,59.186 44.59,61.307 36.51,56.641 36.23,52.237 	"/>
	<polyline fill="#8E8E8E" points="51.94,57.065 53.463,56.39 36.407,66.237 35.645,66.472 36.588,65.928 36.633,65.901 
		44.59,61.307 48.264,59.186 49.342,58.565 50.594,57.841 51.94,57.065 	"/>
	<polyline fill="#B5B4B4" points="53.463,56.39 55.235,55.966 37.293,66.325 36.407,66.237 53.463,56.39 	"/>
	<polyline fill="#D6D6D6" points="55.235,55.966 57.135,55.821 38.244,66.729 37.293,66.325 55.235,55.966 	"/>
	<polyline fill="#939394" points="36.997,64.307 36.633,65.901 36.588,65.928 33.295,11.745 33.578,10.499 35.553,41.604 
		35.568,41.815 35.607,42.438 35.67,43.428 35.752,44.718 35.846,46.22 35.95,47.833 36.053,49.444 36.148,50.948 36.23,52.237 
		36.51,56.641 36.997,64.307 	"/>
	<polyline fill="#939394" points="13.848,65.901 13.485,64.307 13.972,56.641 14.252,52.237 14.333,50.948 14.429,49.444 
		14.532,47.833 14.635,46.22 14.729,44.718 14.812,43.428 14.875,42.438 14.914,41.815 14.928,41.604 16.904,10.499 17.188,11.745 
		13.894,65.928 13.848,65.901 	"/>
	<polyline fill="#B9B9B9" points="13.894,65.928 17.188,11.745 18.021,12.905 15.118,66.635 13.894,65.928 	"/>
	<polyline fill="#DADADA" points="15.118,66.635 18.021,12.905 19.345,13.903 16.99,67.716 15.118,66.635 	"/>
	<polyline fill="#F3F3F3" points="16.99,67.716 19.345,13.903 21.072,14.667 19.396,69.104 16.99,67.716 	"/>
	<polyline fill="#FFFFFF" points="19.396,69.104 21.072,14.667 23.083,15.149 22.2,70.723 19.396,69.104 	"/>
	<polyline fill="#FFFFFF" points="22.2,70.723 23.083,15.149 25.241,15.312 25.241,71.095 22.479,70.885 22.2,70.723 	"/>
	<polyline fill="#FFFFFF" points="28.002,70.885 25.241,71.095 25.241,15.312 27.398,15.149 28.281,70.723 28.002,70.885 	"/>
	<polyline fill="#FFFFFF" points="28.281,70.723 27.398,15.149 29.41,14.667 31.086,69.104 28.281,70.723 	"/>
	<polyline fill="#F3F3F3" points="31.086,69.104 29.41,14.667 31.135,13.903 33.493,67.716 31.086,69.104 	"/>
	<polyline fill="#DADADA" points="33.493,67.716 31.135,13.903 32.461,12.905 35.364,66.635 33.493,67.716 	"/>
	<polyline fill="#B9B9B9" points="35.364,66.635 32.461,12.905 33.295,11.745 36.588,65.928 35.645,66.472 35.364,66.635 	"/>
	<polyline fill="#DCDCDC" points="32.461,12.905 31.135,13.903 30.934,10.618 32.215,9.655 32.461,12.905 	"/>
	<polyline fill="#DCDCDD" points="32.215,9.655 30.934,10.618 30.346,2.069 31.494,1.206 32.215,9.655 	"/>
	<polyline fill="#E2E1E1" points="31.494,1.206 30.346,2.069 29.41,-5.521 30.346,-6.225 31.494,1.206 	"/>
	<polyline fill="#EAEAEA" points="30.346,-6.225 29.41,-5.521 28.189,-11.635 28.85,-12.134 30.346,-6.225 	"/>
	<polyline fill="#F7F6F6" points="28.85,-12.134 28.189,-11.635 26.766,-15.856 27.109,-16.114 28.85,-12.134 	"/>
	<polyline fill="#DBDBDB" points="28.85,-12.134 27.109,-16.114 27.325,-16.414 29.266,-12.714 28.85,-12.134 	"/>
	<polyline fill="#FFFFFF" points="26.766,-15.856 28.189,-11.635 27.325,-11.252 26.32,-15.658 26.766,-15.856 	"/>
	<polyline fill="#FFFFFF" points="27.109,-16.114 26.766,-15.856 25.241,-17.896 27.109,-16.114 	"/>
	<polyline fill="#CDCDCC" points="30.346,-6.225 28.85,-12.134 29.266,-12.714 30.934,-7.047 30.346,-6.225 	"/>
	<polyline fill="#FFFFFF" points="28.189,-11.635 29.41,-5.521 28.189,-4.98 27.325,-11.252 28.189,-11.635 	"/>
	<polyline fill="#C4C4C3" points="31.494,1.206 30.346,-6.225 30.934,-7.047 32.215,0.2 31.494,1.206 	"/>
	<polyline fill="#FCFCFC" points="29.41,-5.521 30.346,2.069 28.85,2.731 28.189,-4.98 29.41,-5.521 	"/>
	<polyline fill="#BDBDBC" points="32.215,9.655 31.494,1.206 32.215,0.2 33.018,8.534 32.215,9.655 	"/>
	<polyline fill="#F5F5F5" points="30.346,2.069 30.934,10.618 29.266,11.356 28.85,2.731 30.346,2.069 	"/>
	<polyline fill="#BCBCBB" points="32.461,12.905 32.215,9.655 33.018,8.534 33.295,11.745 32.461,12.905 	"/>
	<polyline fill="#F5F4F4" points="30.934,10.618 31.135,13.903 29.41,14.667 29.266,11.356 30.934,10.618 	"/>
	<polyline fill="#EFEFEF" points="27.109,-16.114 25.241,-17.896 27.325,-16.414 27.109,-16.114 	"/>
	<polyline fill="#FFFFFF" points="25.241,-17.896 26.766,-15.856 26.32,-15.658 25.241,-17.896 	"/>
	<polyline fill="#FFFFFF" points="26.32,-15.658 27.325,-11.252 26.32,-11.011 25.799,-15.533 26.32,-15.658 	"/>
	<polyline fill="#FFFFFF" points="27.325,-11.252 28.189,-4.98 26.766,-4.64 26.32,-11.011 27.325,-11.252 	"/>
	<polyline fill="#FFFFFF" points="28.189,-4.98 28.85,2.731 27.109,3.147 26.766,-4.64 28.189,-4.98 	"/>
	<polyline fill="#FFFFFF" points="28.85,2.731 29.266,11.356 27.325,11.821 27.109,3.147 28.85,2.731 	"/>
	<polyline fill="#FFFFFF" points="29.266,11.356 29.41,14.667 27.398,15.149 27.325,11.821 29.266,11.356 	"/>
	<polyline fill="#FFFFFF" points="25.241,-17.896 26.32,-15.658 25.799,-15.533 25.241,-17.896 	"/>
	<polyline fill="#FFFFFF" points="25.799,-15.533 26.32,-11.011 25.241,-10.929 25.241,-15.491 25.799,-15.533 	"/>
	<polyline fill="#FFFFFF" points="26.32,-11.011 26.766,-4.64 25.241,-4.524 25.241,-10.929 26.32,-11.011 	"/>
	<polyline fill="#FFFFFF" points="26.766,-4.64 27.109,3.147 25.241,3.29 25.241,-4.524 26.766,-4.64 	"/>
	<polyline fill="#FFFFFF" points="27.109,3.147 27.325,11.821 25.241,11.979 25.241,3.29 27.109,3.147 	"/>
	<polyline fill="#FFFFFF" points="27.325,11.821 27.398,15.149 25.241,15.312 25.241,11.979 27.325,11.821 	"/>
	<polyline fill="#FFFFFF" points="25.241,-17.896 25.799,-15.533 25.241,-15.491 25.241,-17.896 	"/>
	<polyline fill="#FFFFFF" points="25.241,-15.491 25.241,-10.929 24.162,-11.011 24.682,-15.533 25.241,-15.491 	"/>
	<polyline fill="#FFFFFF" points="25.241,-10.929 25.241,-4.524 23.715,-4.64 24.162,-11.011 25.241,-10.929 	"/>
	<polyline fill="#FFFFFF" points="25.241,-4.524 25.241,3.29 23.372,3.147 23.715,-4.64 25.241,-4.524 	"/>
	<polyline fill="#FFFFFF" points="25.241,3.29 25.241,11.979 23.157,11.821 23.372,3.147 25.241,3.29 	"/>
	<polyline fill="#FFFFFF" points="25.241,11.979 25.241,15.312 23.083,15.149 23.157,11.821 25.241,11.979 	"/>
	<polyline fill="#FFFFFF" points="25.241,-17.896 25.241,-15.491 24.682,-15.533 25.241,-17.896 	"/>
	<polyline fill="#FFFFFF" points="24.682,-15.533 24.162,-11.011 23.157,-11.252 24.162,-15.658 24.682,-15.533 	"/>
	<polyline fill="#FFFFFF" points="24.162,-11.011 23.715,-4.64 22.293,-4.98 23.157,-11.252 24.162,-11.011 	"/>
	<polyline fill="#FFFFFF" points="23.715,-4.64 23.372,3.147 21.631,2.731 22.293,-4.98 23.715,-4.64 	"/>
	<polyline fill="#FFFFFF" points="23.372,3.147 23.157,11.821 21.215,11.356 21.631,2.731 23.372,3.147 	"/>
	<polyline fill="#FFFFFF" points="23.157,11.821 23.083,15.149 21.072,14.667 21.215,11.356 23.157,11.821 	"/>
	<polyline fill="#FFFFFF" points="25.241,-17.896 24.682,-15.533 24.162,-15.658 25.241,-17.896 	"/>
	<polyline fill="#FFFFFF" points="24.162,-15.658 23.157,-11.252 22.293,-11.635 23.715,-15.856 24.162,-15.658 	"/>
	<polyline fill="#FFFFFF" points="23.157,-11.252 22.293,-4.98 21.072,-5.521 22.293,-11.635 23.157,-11.252 	"/>
	<polyline fill="#FCFCFC" points="22.293,-4.98 21.631,2.731 20.135,2.069 21.072,-5.521 22.293,-4.98 	"/>
	<polyline fill="#F5F5F5" points="21.631,2.731 21.215,11.356 19.547,10.618 20.135,2.069 21.631,2.731 	"/>
	<polyline fill="#F5F4F4" points="21.215,11.356 21.072,14.667 19.345,13.903 19.547,10.618 21.215,11.356 	"/>
	<polyline fill="#FFFFFF" points="25.241,-17.896 24.162,-15.658 23.715,-15.856 25.241,-17.896 	"/>
	<polyline fill="#F7F6F6" points="23.715,-15.856 22.293,-11.635 21.631,-12.134 23.372,-16.114 23.715,-15.856 	"/>
	<polyline fill="#EAEAEA" points="22.293,-11.635 21.072,-5.521 20.135,-6.225 21.631,-12.134 22.293,-11.635 	"/>
	<polyline fill="#E2E1E1" points="21.072,-5.521 20.135,2.069 18.988,1.206 20.135,-6.225 21.072,-5.521 	"/>
	<polyline fill="#DCDCDD" points="20.135,2.069 19.547,10.618 18.266,9.655 18.988,1.206 20.135,2.069 	"/>
	<polyline fill="#DCDCDC" points="19.547,10.618 19.345,13.903 18.021,12.905 18.266,9.655 19.547,10.618 	"/>
	<polyline fill="#FFFFFF" points="25.241,-17.896 23.715,-15.856 23.372,-16.114 25.241,-17.896 	"/>
	<polyline fill="#DBDBDB" points="23.372,-16.114 21.631,-12.134 21.215,-12.714 23.157,-16.414 23.372,-16.114 	"/>
	<polyline fill="#CDCDCC" points="21.631,-12.134 20.135,-6.225 19.547,-7.047 21.215,-12.714 21.631,-12.134 	"/>
	<polyline fill="#C4C4C3" points="20.135,-6.225 18.988,1.206 18.266,0.2 19.547,-7.047 20.135,-6.225 	"/>
	<polyline fill="#BDBDBC" points="18.988,1.206 18.266,9.655 17.463,8.534 18.266,0.2 18.988,1.206 	"/>
	<polyline fill="#BCBCBB" points="18.266,9.655 18.021,12.905 17.188,11.745 17.463,8.534 18.266,9.655 	"/>
	<polyline fill="#EFEFEF" points="25.241,-17.896 23.372,-16.114 23.157,-16.414 25.241,-17.896 	"/>
	<polyline fill="#BABABA" points="23.157,-16.414 21.215,-12.714 21.072,-13.337 23.083,-16.737 23.157,-16.414 	"/>
	<polyline fill="#A8A8A8" points="21.215,-12.714 19.547,-7.047 19.345,-7.928 21.072,-13.337 21.215,-12.714 	"/>
	<polyline fill="#9F9F9F" points="19.547,-7.047 18.266,0.2 18.021,-0.879 19.345,-7.928 19.547,-7.047 	"/>
	<polyline fill="#989898" points="18.266,0.2 17.463,8.534 17.188,7.329 18.021,-0.879 18.266,0.2 	"/>
	<polyline fill="#979797" points="17.463,8.534 17.188,11.745 16.904,10.499 17.188,7.329 17.463,8.534 	"/>
	<polyline fill="#DCDCDD" points="25.241,-17.896 23.157,-16.414 23.083,-16.737 25.241,-17.896 	"/>
	<polyline fill="#989898" points="23.083,-16.737 21.072,-13.337 21.215,-13.96 23.157,-17.059 23.083,-16.737 	"/>
	<polyline fill="#818282" points="21.072,-13.337 19.345,-7.928 19.547,-8.808 21.215,-13.96 21.072,-13.337 	"/>
	<polyline fill="#C9C9C9" points="25.241,-17.896 23.083,-16.737 23.157,-17.059 25.241,-17.896 	"/>
	<polyline fill="#B4B4B4" points="25.241,-17.896 23.157,-17.059 23.372,-17.36 25.241,-17.896 	"/>
	<polyline fill="#A2A1A1" points="25.241,-17.896 23.372,-17.36 23.715,-17.618 25.241,-17.896 	"/>
	<polyline fill="#919191" points="25.241,-17.896 23.715,-17.618 24.162,-17.816 25.241,-17.896 	"/>
	<polyline fill="#868686" points="25.241,-17.896 24.162,-17.816 24.682,-17.94 25.241,-17.896 	"/>
	<polyline fill="#808080" points="25.241,-17.896 24.682,-17.94 25.241,-17.982 25.241,-17.896 	"/>
	<polyline fill="#808080" points="25.241,-17.896 25.241,-17.982 25.799,-17.94 25.241,-17.896 	"/>
	<polyline fill="#868686" points="25.241,-17.896 25.799,-17.94 26.32,-17.816 25.241,-17.896 	"/>
	<polyline fill="#919191" points="25.241,-17.896 26.32,-17.816 26.766,-17.618 25.241,-17.896 	"/>
	<polyline fill="#A2A1A1" points="25.241,-17.896 26.766,-17.618 27.109,-17.36 25.241,-17.896 	"/>
	<polyline fill="#B4B4B4" points="25.241,-17.896 27.109,-17.36 27.325,-17.059 25.241,-17.896 	"/>
	<polyline fill="#989898" points="27.325,-17.059 29.266,-13.96 29.41,-13.337 27.398,-16.737 27.325,-17.059 	"/>
	<polyline fill="#818282" points="29.266,-13.96 30.934,-8.808 31.135,-7.928 29.41,-13.337 29.266,-13.96 	"/>
	<polyline fill="#C9C9C9" points="25.241,-17.896 27.325,-17.059 27.398,-16.737 25.241,-17.896 	"/>
	<polyline fill="#BABABA" points="27.398,-16.737 29.41,-13.337 29.266,-12.714 27.325,-16.414 27.398,-16.737 	"/>
	<polyline fill="#A8A8A8" points="29.41,-13.337 31.135,-7.928 30.934,-7.047 29.266,-12.714 29.41,-13.337 	"/>
	<polyline fill="#9F9F9F" points="31.135,-7.928 32.461,-0.879 32.215,0.2 30.934,-7.047 31.135,-7.928 	"/>
	<polyline fill="#989898" points="32.461,-0.879 33.295,7.329 33.018,8.534 32.215,0.2 32.461,-0.879 	"/>
	<polyline fill="#979797" points="33.295,7.329 33.578,10.499 33.295,11.745 33.018,8.534 33.295,7.329 	"/>
	<polyline fill="#DCDCDD" points="25.241,-17.896 27.398,-16.737 27.325,-16.414 25.241,-17.896 	"/>
	
		<line fill="none" stroke="#010202" stroke-width="0.1" stroke-linecap="round" stroke-linejoin="round" stroke-miterlimit="10" x1="25.241" y1="86.967" x2="41.918" y2="77.338"/>
	
		<line fill="none" stroke="#010202" stroke-width="0.1" stroke-linecap="round" stroke-linejoin="round" stroke-miterlimit="10" x1="44.59" y1="61.307" x2="36.51" y2="56.641"/>
	
		<line fill="none" stroke="#010202" stroke-width="0.1" stroke-linecap="round" stroke-linejoin="round" stroke-miterlimit="10" x1="13.972" y1="56.641" x2="5.891" y2="61.307"/>
	
		<line fill="none" stroke="#010202" stroke-width="0.1" stroke-linecap="round" stroke-linejoin="round" stroke-miterlimit="10" x1="25.241" y1="86.967" x2="25.241" y2="82.723"/>
	
		<line fill="none" stroke="#010202" stroke-width="0.1" stroke-linecap="round" stroke-linejoin="round" stroke-miterlimit="10" x1="41.918" y1="77.338" x2="64.486" y2="64.307"/>
	<path fill="none" stroke="#010202" stroke-width="0.1" stroke-linecap="round" stroke-linejoin="round" stroke-miterlimit="10" d="
		M38.244,66.729"/>
	<path fill="none" stroke="#010202" stroke-width="0.1" stroke-linecap="round" stroke-linejoin="round" stroke-miterlimit="10" d="
		M39.195,67.423"/>
	<path fill="none" stroke="#010202" stroke-width="0.1" stroke-linecap="round" stroke-linejoin="round" stroke-miterlimit="10" d="
		M40.842,69.473"/>
	<path fill="none" stroke="#010202" stroke-width="0.1" stroke-linecap="round" stroke-linejoin="round" stroke-miterlimit="10" d="
		M41.426,70.688"/>
	
		<polyline fill="none" stroke="#010202" stroke-width="0.1" stroke-linecap="round" stroke-linejoin="round" stroke-miterlimit="10" points="
		39.195,67.423 25.241,75.479 25.241,74.237 	"/>
	<path fill="none" stroke="#010202" stroke-width="0.1" stroke-linecap="round" stroke-linejoin="round" stroke-miterlimit="10" d="
		M40.082,68.358"/>
	
		<polyline fill="none" stroke="#010202" stroke-width="0.1" stroke-linecap="round" stroke-linejoin="round" stroke-miterlimit="10" points="
		40.082,68.358 25.241,76.926 25.241,75.479 	"/>
	
		<polyline fill="none" stroke="#010202" stroke-width="0.1" stroke-linecap="round" stroke-linejoin="round" stroke-miterlimit="10" points="
		40.842,69.473 25.241,78.479 25.241,76.926 	"/>
	
		<polyline fill="none" stroke="#010202" stroke-width="0.1" stroke-linecap="round" stroke-linejoin="round" stroke-miterlimit="10" points="
		41.426,70.688 25.241,80.034 25.241,78.479 	"/>
	
		<polyline fill="none" stroke="#010202" stroke-width="0.1" stroke-linecap="round" stroke-linejoin="round" stroke-miterlimit="10" points="
		41.793,71.925 25.241,81.481 25.241,80.034 	"/>
	
		<polyline fill="none" stroke="#010202" stroke-width="0.1" stroke-linecap="round" stroke-linejoin="round" stroke-miterlimit="10" points="
		41.918,73.094 25.241,82.723 25.241,81.481 	"/>
	
		<polyline fill="none" stroke="#010202" stroke-width="0.1" stroke-linecap="round" stroke-linejoin="round" stroke-miterlimit="10" points="
		25.241,75.479 -8.557,55.966 -6.655,55.821 	"/>
	
		<polyline fill="none" stroke="#010202" stroke-width="0.1" stroke-linecap="round" stroke-linejoin="round" stroke-miterlimit="10" points="
		25.241,76.926 -10.33,56.39 -8.557,55.966 	"/>
	
		<polyline fill="none" stroke="#010202" stroke-width="0.1" stroke-linecap="round" stroke-linejoin="round" stroke-miterlimit="10" points="
		25.241,78.479 -11.852,57.065 -10.33,56.39 	"/>
	
		<line fill="none" stroke="#010202" stroke-width="0.1" stroke-linecap="round" stroke-linejoin="round" stroke-miterlimit="10" x1="25.241" y1="80.034" x2="-13.021" y2="57.944"/>
	
		<line fill="none" stroke="#010202" stroke-width="0.1" stroke-linecap="round" stroke-linejoin="round" stroke-miterlimit="10" x1="25.241" y1="81.481" x2="-13.754" y2="58.968"/>
	
		<line fill="none" stroke="#010202" stroke-width="0.1" stroke-linecap="round" stroke-linejoin="round" stroke-miterlimit="10" x1="25.241" y1="82.723" x2="-14.004" y2="60.065"/>
	
		<line fill="none" stroke="#010202" stroke-width="0.1" stroke-linecap="round" stroke-linejoin="round" stroke-miterlimit="10" x1="-8.557" y1="55.966" x2="14.875" y2="42.438"/>
	
		<line fill="none" stroke="#010202" stroke-width="0.1" stroke-linecap="round" stroke-linejoin="round" stroke-miterlimit="10" x1="-10.33" y1="56.39" x2="14.914" y2="41.815"/>
	
		<polyline fill="none" stroke="#010202" stroke-width="0.1" stroke-linecap="round" stroke-linejoin="round" stroke-miterlimit="10" points="
		35.607,42.438 59.039,55.966 57.135,55.821 	"/>
	
		<polyline fill="none" stroke="#010202" stroke-width="0.1" stroke-linecap="round" stroke-linejoin="round" stroke-miterlimit="10" points="
		35.568,41.815 60.811,56.39 59.039,55.966 	"/>
	
		<line fill="none" stroke="#010202" stroke-width="0.1" stroke-linecap="round" stroke-linejoin="round" stroke-miterlimit="10" x1="62.333" y1="57.065" x2="60.811" y2="56.39"/>
	
		<line fill="none" stroke="#010202" stroke-width="0.1" stroke-linecap="round" stroke-linejoin="round" stroke-miterlimit="10" x1="59.039" y1="55.966" x2="39.195" y2="67.423"/>
	
		<line fill="none" stroke="#010202" stroke-width="0.1" stroke-linecap="round" stroke-linejoin="round" stroke-miterlimit="10" x1="60.811" y1="56.39" x2="40.082" y2="68.358"/>
	<path fill="none" stroke="#010202" stroke-width="0.1" stroke-linecap="round" stroke-linejoin="round" stroke-miterlimit="10" d="
		M40.082,68.358"/>
	
		<line fill="none" stroke="#010202" stroke-width="0.1" stroke-linecap="round" stroke-linejoin="round" stroke-miterlimit="10" x1="62.333" y1="57.065" x2="40.842" y2="69.473"/>
	
		<line fill="none" stroke="#010202" stroke-width="0.1" stroke-linecap="round" stroke-linejoin="round" stroke-miterlimit="10" x1="63.502" y1="57.944" x2="41.426" y2="70.688"/>
	<path fill="none" stroke="#010202" stroke-width="0.1" stroke-linecap="round" stroke-linejoin="round" stroke-miterlimit="10" d="
		M41.426,70.688"/>
	
		<line fill="none" stroke="#010202" stroke-width="0.1" stroke-linecap="round" stroke-linejoin="round" stroke-miterlimit="10" x1="64.236" y1="58.968" x2="41.793" y2="71.925"/>
	
		<line fill="none" stroke="#010202" stroke-width="0.1" stroke-linecap="round" stroke-linejoin="round" stroke-miterlimit="10" x1="64.486" y1="60.065" x2="41.918" y2="73.094"/>
	
		<line fill="none" stroke="#010202" stroke-width="0.1" stroke-linecap="round" stroke-linejoin="round" stroke-miterlimit="10" x1="25.241" y1="72.684" x2="25.241" y2="72.479"/>
	
		<line fill="none" stroke="#010202" stroke-width="0.1" stroke-linecap="round" stroke-linejoin="round" stroke-miterlimit="10" x1="25.241" y1="73.284" x2="25.241" y2="72.684"/>
	
		<polyline fill="none" stroke="#010202" stroke-width="0.1" stroke-linecap="round" stroke-linejoin="round" stroke-miterlimit="10" points="
		38.244,66.729 25.241,74.237 25.241,73.284 	"/>
	
		<line fill="none" stroke="#010202" stroke-width="0.1" stroke-linecap="round" stroke-linejoin="round" stroke-miterlimit="10" x1="-2.981" y1="56.39" x2="-1.458" y2="57.065"/>
	
		<line fill="none" stroke="#010202" stroke-width="0.1" stroke-linecap="round" stroke-linejoin="round" stroke-miterlimit="10" x1="-4.753" y1="55.966" x2="-2.981" y2="56.39"/>
	
		<polyline fill="none" stroke="#010202" stroke-width="0.1" stroke-linecap="round" stroke-linejoin="round" stroke-miterlimit="10" points="
		25.241,74.237 -6.655,55.821 -4.753,55.966 	"/>
	
		<line fill="none" stroke="#010202" stroke-width="0.1" stroke-linecap="round" stroke-linejoin="round" stroke-miterlimit="10" x1="2.217" y1="59.186" x2="14.252" y2="52.237"/>
	
		<line fill="none" stroke="#010202" stroke-width="0.1" stroke-linecap="round" stroke-linejoin="round" stroke-miterlimit="10" x1="-6.655" y1="55.821" x2="14.812" y2="43.428"/>
	
		<line fill="none" stroke="#010202" stroke-width="0.1" stroke-linecap="round" stroke-linejoin="round" stroke-miterlimit="10" x1="36.23" y1="52.237" x2="48.264" y2="59.186"/>
	
		<line fill="none" stroke="#010202" stroke-width="0.1" stroke-linecap="round" stroke-linejoin="round" stroke-miterlimit="10" x1="53.463" y1="56.39" x2="51.94" y2="57.065"/>
	
		<line fill="none" stroke="#010202" stroke-width="0.1" stroke-linecap="round" stroke-linejoin="round" stroke-miterlimit="10" x1="55.235" y1="55.966" x2="53.463" y2="56.39"/>
	
		<polyline fill="none" stroke="#010202" stroke-width="0.1" stroke-linecap="round" stroke-linejoin="round" stroke-miterlimit="10" points="
		35.67,43.428 57.135,55.821 55.235,55.966 	"/>
	<path fill="none" stroke="#010202" stroke-width="0.1" stroke-linecap="round" stroke-linejoin="round" stroke-miterlimit="10" d="
		M35.645,66.472"/>
	<path fill="none" stroke="#010202" stroke-width="0.1" stroke-linecap="round" stroke-linejoin="round" stroke-miterlimit="10" d="
		M36.407,66.237"/>
	<path fill="none" stroke="#010202" stroke-width="0.1" stroke-linecap="round" stroke-linejoin="round" stroke-miterlimit="10" d="
		M36.407,66.237"/>
	<path fill="none" stroke="#010202" stroke-width="0.1" stroke-linecap="round" stroke-linejoin="round" stroke-miterlimit="10" d="
		M37.293,66.325"/>
	<path fill="none" stroke="#010202" stroke-width="0.1" stroke-linecap="round" stroke-linejoin="round" stroke-miterlimit="10" d="
		M37.293,66.325"/>
	
		<line fill="none" stroke="#010202" stroke-width="0.1" stroke-linecap="round" stroke-linejoin="round" stroke-miterlimit="10" x1="57.135" y1="55.821" x2="38.244" y2="66.729"/>
	
		<line fill="none" stroke="#010202" stroke-width="0.1" stroke-linecap="round" stroke-linejoin="round" stroke-miterlimit="10" x1="36.997" y1="64.307" x2="36.633" y2="65.901"/>
	
		<polyline fill="none" stroke="#010202" stroke-width="0.1" stroke-linecap="round" stroke-linejoin="round" stroke-miterlimit="10" points="
		28.002,70.885 25.241,71.095 22.479,70.885 	"/>
	
		<line fill="none" stroke="#010202" stroke-width="0.1" stroke-linecap="round" stroke-linejoin="round" stroke-miterlimit="10" x1="13.848" y1="65.901" x2="13.485" y2="64.307"/>
	
		<line fill="none" stroke="#010202" stroke-width="0.1" stroke-linecap="round" stroke-linejoin="round" stroke-miterlimit="10" x1="-14.004" y1="64.307" x2="25.241" y2="86.967"/>
	
		<line fill="none" stroke="#010202" stroke-width="0.1" stroke-linecap="round" stroke-linejoin="round" stroke-miterlimit="10" x1="64.486" y1="64.307" x2="64.486" y2="60.065"/>
	
		<line fill="none" stroke="#010202" stroke-width="0.1" stroke-linecap="round" stroke-linejoin="round" stroke-miterlimit="10" x1="-14.004" y1="64.307" x2="-14.004" y2="60.065"/>
	
		<line fill="none" stroke="#010202" stroke-width="0.1" stroke-linecap="round" stroke-linejoin="round" stroke-miterlimit="10" x1="-13.754" y1="58.968" x2="-13.021" y2="57.944"/>
	
		<line fill="none" stroke="#010202" stroke-width="0.1" stroke-linecap="round" stroke-linejoin="round" stroke-miterlimit="10" x1="-14.004" y1="60.065" x2="-13.754" y2="58.968"/>
	
		<line fill="none" stroke="#010202" stroke-width="0.1" stroke-linecap="round" stroke-linejoin="round" stroke-miterlimit="10" x1="-11.852" y1="57.065" x2="14.928" y2="41.604"/>
	
		<line fill="none" stroke="#010202" stroke-width="0.1" stroke-linecap="round" stroke-linejoin="round" stroke-miterlimit="10" x1="35.553" y1="41.604" x2="62.333" y2="57.065"/>
	
		<line fill="none" stroke="#010202" stroke-width="0.1" stroke-linecap="round" stroke-linejoin="round" stroke-miterlimit="10" x1="64.236" y1="58.968" x2="63.502" y2="57.944"/>
	
		<line fill="none" stroke="#010202" stroke-width="0.1" stroke-linecap="round" stroke-linejoin="round" stroke-miterlimit="10" x1="64.486" y1="60.065" x2="64.236" y2="58.968"/>
	
		<line fill="none" stroke="#010202" stroke-width="0.1" stroke-linecap="round" stroke-linejoin="round" stroke-miterlimit="10" x1="18.021" y1="-0.879" x2="19.345" y2="-7.928"/>
	
		<line fill="none" stroke="#010202" stroke-width="0.1" stroke-linecap="round" stroke-linejoin="round" stroke-miterlimit="10" x1="17.188" y1="7.329" x2="18.021" y2="-0.879"/>
	
		<line fill="none" stroke="#010202" stroke-width="0.1" stroke-linecap="round" stroke-linejoin="round" stroke-miterlimit="10" x1="16.904" y1="10.499" x2="17.188" y2="7.329"/>
	
		<line fill="none" stroke="#010202" stroke-width="0.1" stroke-linecap="round" stroke-linejoin="round" stroke-miterlimit="10" x1="21.215" y1="-13.96" x2="23.157" y2="-17.059"/>
	
		<polyline fill="none" stroke="#010202" stroke-width="0.1" stroke-linecap="round" stroke-linejoin="round" stroke-miterlimit="10" points="
		19.345,-7.928 19.547,-8.808 21.215,-13.96 	"/>
	
		<line fill="none" stroke="#010202" stroke-width="0.1" stroke-linecap="round" stroke-linejoin="round" stroke-miterlimit="10" x1="23.372" y1="-17.36" x2="23.157" y2="-17.059"/>
	
		<line fill="none" stroke="#010202" stroke-width="0.1" stroke-linecap="round" stroke-linejoin="round" stroke-miterlimit="10" x1="23.715" y1="-17.618" x2="23.372" y2="-17.36"/>
	
		<line fill="none" stroke="#010202" stroke-width="0.1" stroke-linecap="round" stroke-linejoin="round" stroke-miterlimit="10" x1="24.162" y1="-17.816" x2="23.715" y2="-17.618"/>
	
		<line fill="none" stroke="#010202" stroke-width="0.1" stroke-linecap="round" stroke-linejoin="round" stroke-miterlimit="10" x1="24.682" y1="-17.94" x2="24.162" y2="-17.816"/>
	
		<line fill="none" stroke="#010202" stroke-width="0.1" stroke-linecap="round" stroke-linejoin="round" stroke-miterlimit="10" x1="25.241" y1="-17.982" x2="24.682" y2="-17.94"/>
	
		<line fill="none" stroke="#010202" stroke-width="0.1" stroke-linecap="round" stroke-linejoin="round" stroke-miterlimit="10" x1="25.799" y1="-17.94" x2="25.241" y2="-17.982"/>
	
		<line fill="none" stroke="#010202" stroke-width="0.1" stroke-linecap="round" stroke-linejoin="round" stroke-miterlimit="10" x1="26.32" y1="-17.816" x2="25.799" y2="-17.94"/>
	
		<line fill="none" stroke="#010202" stroke-width="0.1" stroke-linecap="round" stroke-linejoin="round" stroke-miterlimit="10" x1="26.766" y1="-17.618" x2="26.32" y2="-17.816"/>
	
		<line fill="none" stroke="#010202" stroke-width="0.1" stroke-linecap="round" stroke-linejoin="round" stroke-miterlimit="10" x1="27.109" y1="-17.36" x2="26.766" y2="-17.618"/>
	
		<polyline fill="none" stroke="#010202" stroke-width="0.1" stroke-linecap="round" stroke-linejoin="round" stroke-miterlimit="10" points="
		29.266,-13.96 27.325,-17.059 27.109,-17.36 	"/>
	
		<line fill="none" stroke="#010202" stroke-width="0.1" stroke-linecap="round" stroke-linejoin="round" stroke-miterlimit="10" x1="30.934" y1="-8.808" x2="29.266" y2="-13.96"/>
	
		<line fill="none" stroke="#010202" stroke-width="0.1" stroke-linecap="round" stroke-linejoin="round" stroke-miterlimit="10" x1="30.934" y1="-8.808" x2="31.135" y2="-7.928"/>
	
		<line fill="none" stroke="#010202" stroke-width="0.1" stroke-linecap="round" stroke-linejoin="round" stroke-miterlimit="10" x1="32.461" y1="-0.879" x2="31.135" y2="-7.928"/>
	
		<line fill="none" stroke="#010202" stroke-width="0.1" stroke-linecap="round" stroke-linejoin="round" stroke-miterlimit="10" x1="33.295" y1="7.329" x2="32.461" y2="-0.879"/>
	
		<line fill="none" stroke="#010202" stroke-width="0.1" stroke-linecap="round" stroke-linejoin="round" stroke-miterlimit="10" x1="33.578" y1="10.499" x2="33.295" y2="7.329"/>
	
		<polyline fill="none" stroke="#010202" stroke-width="0.1" stroke-linecap="round" stroke-linejoin="round" stroke-miterlimit="10" points="
		-13.021,57.944 -12.642,57.659 -11.852,57.065 	"/>
	
		<polyline fill="none" stroke="#010202" stroke-width="0.1" stroke-linecap="round" stroke-linejoin="round" stroke-miterlimit="10" points="
		63.502,57.944 63.124,57.659 62.333,57.065 	"/>
	
		<polyline fill="none" stroke="#010202" stroke-width="0.1" stroke-linecap="round" stroke-linejoin="round" stroke-miterlimit="10" points="
		28.002,70.885 25.241,72.479 22.479,70.885 	"/>
	
		<line fill="none" stroke="#010202" stroke-width="0.1" stroke-linecap="round" stroke-linejoin="round" stroke-miterlimit="10" x1="13.485" y1="64.307" x2="13.972" y2="56.641"/>
	
		<line fill="none" stroke="#010202" stroke-width="0.1" stroke-linecap="round" stroke-linejoin="round" stroke-miterlimit="10" x1="36.997" y1="64.307" x2="36.51" y2="56.641"/>
	
		<line fill="none" stroke="#010202" stroke-width="0.1" stroke-linecap="round" stroke-linejoin="round" stroke-miterlimit="10" x1="28.281" y1="70.723" x2="28.002" y2="70.885"/>
	
		<line fill="none" stroke="#010202" stroke-width="0.1" stroke-linecap="round" stroke-linejoin="round" stroke-miterlimit="10" x1="22.479" y1="70.885" x2="22.2" y2="70.723"/>
	
		<polyline fill="none" stroke="#010202" stroke-width="0.1" stroke-linecap="round" stroke-linejoin="round" stroke-miterlimit="10" points="
		48.264,59.186 44.59,61.307 36.633,65.901 	"/>
	
		<line fill="none" stroke="#010202" stroke-width="0.1" stroke-linecap="round" stroke-linejoin="round" stroke-miterlimit="10" x1="31.086" y1="69.104" x2="28.281" y2="70.723"/>
	
		<line fill="none" stroke="#010202" stroke-width="0.1" stroke-linecap="round" stroke-linejoin="round" stroke-miterlimit="10" x1="22.2" y1="70.723" x2="19.396" y2="69.104"/>
	
		<line fill="none" stroke="#010202" stroke-width="0.1" stroke-linecap="round" stroke-linejoin="round" stroke-miterlimit="10" x1="49.342" y1="58.565" x2="48.264" y2="59.186"/>
	
		<polyline fill="none" stroke="#010202" stroke-width="0.1" stroke-linecap="round" stroke-linejoin="round" stroke-miterlimit="10" points="
		36.633,65.901 36.588,65.928 35.645,66.472 	"/>
	
		<line fill="none" stroke="#010202" stroke-width="0.1" stroke-linecap="round" stroke-linejoin="round" stroke-miterlimit="10" x1="13.972" y1="56.641" x2="14.252" y2="52.237"/>
	
		<line fill="none" stroke="#010202" stroke-width="0.1" stroke-linecap="round" stroke-linejoin="round" stroke-miterlimit="10" x1="14.875" y1="42.438" x2="14.914" y2="41.815"/>
	
		<line fill="none" stroke="#010202" stroke-width="0.1" stroke-linecap="round" stroke-linejoin="round" stroke-miterlimit="10" x1="36.51" y1="56.641" x2="36.23" y2="52.237"/>
	
		<line fill="none" stroke="#010202" stroke-width="0.1" stroke-linecap="round" stroke-linejoin="round" stroke-miterlimit="10" x1="35.607" y1="42.438" x2="35.568" y2="41.815"/>
	
		<line fill="none" stroke="#010202" stroke-width="0.1" stroke-linecap="round" stroke-linejoin="round" stroke-miterlimit="10" x1="33.493" y1="67.716" x2="31.086" y2="69.104"/>
	
		<line fill="none" stroke="#010202" stroke-width="0.1" stroke-linecap="round" stroke-linejoin="round" stroke-miterlimit="10" x1="19.396" y1="69.104" x2="16.99" y2="67.716"/>
	
		<polyline fill="none" stroke="#010202" stroke-width="0.1" stroke-linecap="round" stroke-linejoin="round" stroke-miterlimit="10" points="
		51.94,57.065 50.594,57.841 49.342,58.565 	"/>
	
		<line fill="none" stroke="#010202" stroke-width="0.1" stroke-linecap="round" stroke-linejoin="round" stroke-miterlimit="10" x1="14.252" y1="52.237" x2="14.333" y2="50.948"/>
	
		<polyline fill="none" stroke="#010202" stroke-width="0.1" stroke-linecap="round" stroke-linejoin="round" stroke-miterlimit="10" points="
		14.914,41.815 14.928,41.604 16.904,10.499 	"/>
	
		<line fill="none" stroke="#010202" stroke-width="0.1" stroke-linecap="round" stroke-linejoin="round" stroke-miterlimit="10" x1="36.23" y1="52.237" x2="36.148" y2="50.948"/>
	
		<polyline fill="none" stroke="#010202" stroke-width="0.1" stroke-linecap="round" stroke-linejoin="round" stroke-miterlimit="10" points="
		35.568,41.815 35.553,41.604 33.578,10.499 	"/>
	
		<polyline fill="none" stroke="#010202" stroke-width="0.1" stroke-linecap="round" stroke-linejoin="round" stroke-miterlimit="10" points="
		35.645,66.472 35.364,66.635 33.493,67.716 	"/>
	
		<line fill="none" stroke="#010202" stroke-width="0.1" stroke-linecap="round" stroke-linejoin="round" stroke-miterlimit="10" x1="14.333" y1="50.948" x2="14.429" y2="49.444"/>
	
		<line fill="none" stroke="#010202" stroke-width="0.1" stroke-linecap="round" stroke-linejoin="round" stroke-miterlimit="10" x1="36.148" y1="50.948" x2="36.053" y2="49.444"/>
	
		<polyline fill="none" stroke="#010202" stroke-width="0.1" stroke-linecap="round" stroke-linejoin="round" stroke-miterlimit="10" points="
		13.848,65.901 5.891,61.307 2.217,59.186 	"/>
	
		<line fill="none" stroke="#010202" stroke-width="0.1" stroke-linecap="round" stroke-linejoin="round" stroke-miterlimit="10" x1="14.429" y1="49.444" x2="14.532" y2="47.833"/>
	
		<line fill="none" stroke="#010202" stroke-width="0.1" stroke-linecap="round" stroke-linejoin="round" stroke-miterlimit="10" x1="36.053" y1="49.444" x2="35.95" y2="47.833"/>
	
		<line fill="none" stroke="#010202" stroke-width="0.1" stroke-linecap="round" stroke-linejoin="round" stroke-miterlimit="10" x1="13.894" y1="65.928" x2="13.848" y2="65.901"/>
	
		<line fill="none" stroke="#010202" stroke-width="0.1" stroke-linecap="round" stroke-linejoin="round" stroke-miterlimit="10" x1="2.217" y1="59.186" x2="1.14" y2="58.565"/>
	
		<line fill="none" stroke="#010202" stroke-width="0.1" stroke-linecap="round" stroke-linejoin="round" stroke-miterlimit="10" x1="14.532" y1="47.833" x2="14.635" y2="46.22"/>
	
		<line fill="none" stroke="#010202" stroke-width="0.1" stroke-linecap="round" stroke-linejoin="round" stroke-miterlimit="10" x1="35.95" y1="47.833" x2="35.846" y2="46.22"/>
	
		<polyline fill="none" stroke="#010202" stroke-width="0.1" stroke-linecap="round" stroke-linejoin="round" stroke-miterlimit="10" points="
		16.99,67.716 15.118,66.635 13.894,65.928 	"/>
	
		<polyline fill="none" stroke="#010202" stroke-width="0.1" stroke-linecap="round" stroke-linejoin="round" stroke-miterlimit="10" points="
		1.14,58.565 -0.114,57.841 -1.458,57.065 	"/>
	
		<line fill="none" stroke="#010202" stroke-width="0.1" stroke-linecap="round" stroke-linejoin="round" stroke-miterlimit="10" x1="14.635" y1="46.22" x2="14.729" y2="44.718"/>
	
		<line fill="none" stroke="#010202" stroke-width="0.1" stroke-linecap="round" stroke-linejoin="round" stroke-miterlimit="10" x1="35.846" y1="46.22" x2="35.752" y2="44.718"/>
	
		<polyline fill="none" stroke="#010202" stroke-width="0.1" stroke-linecap="round" stroke-linejoin="round" stroke-miterlimit="10" points="
		14.729,44.718 14.812,43.428 14.875,42.438 	"/>
	
		<polyline fill="none" stroke="#010202" stroke-width="0.1" stroke-linecap="round" stroke-linejoin="round" stroke-miterlimit="10" points="
		35.752,44.718 35.67,43.428 35.607,42.438 	"/>
</g>
</svg>
