<?xml version="1.0" encoding="utf-8"?>
<!-- Generator: Adobe Illustrator 15.1.0, SVG Export Plug-In . SVG Version: 6.00 Build 0)  -->
<!DOCTYPE svg PUBLIC "-//W3C//DTD SVG 1.1//EN" "http://www.w3.org/Graphics/SVG/1.1/DTD/svg11.dtd">
<svg version="1.1" id="Calque_1" xmlns="http://www.w3.org/2000/svg" xmlns:xlink="http://www.w3.org/1999/xlink" x="0px" y="0px"
	 width="595.28px" height="841.89px" viewBox="0 0 595.28 841.89" enable-background="new 0 0 595.28 841.89" xml:space="preserve">
<g>
	
		<line fill="none" stroke="#010202" stroke-width="0.1" stroke-linecap="round" stroke-linejoin="round" stroke-miterlimit="10" x1="242.833" y1="452.777" x2="242.833" y2="449.609"/>
	<polyline fill="#E2E1E1" points="248.32,449.609 297.705,478.123 347.088,449.609 347.088,446.441 352.574,449.609 
		297.705,481.289 242.833,449.609 248.32,446.441 248.32,449.609 	"/>
	<polyline fill="#E2E1E1" points="297.705,478.123 248.32,449.609 248.32,446.441 297.705,474.953 297.705,478.123 	"/>
	<polyline fill="#E2E1E1" points="297.705,474.953 248.32,446.441 265.569,436.484 265.569,450.641 302.938,464.881 
		310.523,458.242 310.523,450.109 313.537,447.475 320.014,449.941 327.602,443.305 327.602,435.191 347.088,446.441 
		297.705,474.953 	"/>
	<polyline fill="#E2E1E1" points="347.088,446.441 347.088,449.609 297.705,478.123 297.705,474.953 347.088,446.441 	"/>
	<polyline fill="#E2E1E1" points="297.705,484.457 242.833,452.777 242.833,449.609 297.705,481.289 297.705,484.457 	"/>
	<polyline fill="#E2E1E1" points="352.574,452.777 297.705,484.457 297.705,481.289 352.574,449.609 352.574,452.777 	"/>
	<polyline fill="#CDCDCC" points="327.602,443.305 320.014,449.941 320.014,423.078 313.537,428.742 310.523,431.379 
		310.523,450.109 310.523,458.242 302.938,464.881 302.938,433.098 304.037,433.516 327.602,412.905 327.602,435.191 
		327.602,443.305 	"/>
	<polyline fill="#F4F3F4" points="302.938,464.881 265.569,450.641 265.569,436.484 265.569,418.856 302.938,433.098 
		302.938,464.881 	"/>
	<polyline fill="#CDCDCC" points="332.977,401.866 332.977,408.202 327.602,412.905 304.037,433.516 304.037,427.18 
		332.977,401.866 	"/>
	<polyline fill="#E2E1E1" points="332.977,401.866 304.037,427.18 260.193,410.472 265.569,405.77 265.569,409.836 302.938,424.076 
		327.602,402.501 327.602,399.818 332.977,401.866 	"/>
	<polyline fill="#CDCDCC" points="327.602,402.501 302.938,424.076 302.938,401.882 304.355,402.422 327.602,382.088 
		327.602,399.818 327.602,402.501 	"/>
	<path fill="#F4F3F4" d="M278.478,396.591v11.873l11.549,4.4v-5.368v-6.504l-7.274-2.773L278.478,396.591 M302.938,401.882v22.194
		l-37.369-14.24v-4.066v-18.128L302.938,401.882"/>
	<polyline fill="#F4F3F4" points="304.037,427.18 304.037,433.516 302.938,433.098 265.569,418.856 260.193,416.808 
		260.193,410.472 304.037,427.18 	"/>
	<polyline fill="#F4F3F4" points="320.014,423.078 320.014,449.941 313.537,447.475 313.537,428.742 320.014,423.078 	"/>
	<polyline fill="#CDCDCC" points="313.537,447.475 310.523,450.109 310.523,431.379 313.537,428.742 313.537,447.475 	"/>
	<polyline fill="#959594" points="288.814,357.517 334.529,374.939 296.585,365.803 288.814,357.517 	"/>
	<polyline fill="#A9A9AA" points="258.64,383.912 288.814,357.517 296.585,365.803 258.64,383.912 	"/>
	<polyline fill="#F4F3F4" points="258.64,385.001 258.64,383.912 304.355,401.333 304.355,402.422 302.938,401.882 265.569,387.642 
		258.64,385.001 	"/>
	<polyline fill="#FFFFFF" points="304.355,401.333 258.64,383.912 296.585,365.803 304.355,401.333 	"/>
	<polyline fill="#CDCDCC" points="304.355,402.422 304.355,401.333 334.529,374.939 334.529,376.029 327.602,382.088 
		304.355,402.422 	"/>
	<polyline fill="#FCFCFC" points="334.529,374.939 304.355,401.333 296.585,365.803 334.529,374.939 	"/>
	<polyline fill="#CDCDCC" points="278.478,408.464 278.478,396.591 282.752,398.219 282.752,404.725 278.478,408.464 	"/>
	<polyline fill="#E2E1E1" points="290.027,412.865 278.478,408.464 282.752,404.725 290.027,407.497 290.027,412.865 	"/>
	<polyline fill="#F4F3F4" points="282.752,404.725 282.752,398.219 290.027,400.993 290.027,407.497 282.752,404.725 	"/>
	
		<line fill="none" stroke="#010202" stroke-width="0.1" stroke-linecap="round" stroke-linejoin="round" stroke-miterlimit="10" x1="248.32" y1="449.609" x2="297.705" y2="478.123"/>
	
		<line fill="none" stroke="#010202" stroke-width="0.1" stroke-linecap="round" stroke-linejoin="round" stroke-miterlimit="10" x1="248.32" y1="446.441" x2="297.705" y2="474.953"/>
	
		<line fill="none" stroke="#010202" stroke-width="0.1" stroke-linecap="round" stroke-linejoin="round" stroke-miterlimit="10" x1="297.705" y1="478.123" x2="347.088" y2="449.609"/>
	
		<line fill="none" stroke="#010202" stroke-width="0.1" stroke-linecap="round" stroke-linejoin="round" stroke-miterlimit="10" x1="297.705" y1="474.953" x2="347.088" y2="446.441"/>
	
		<line fill="none" stroke="#010202" stroke-width="0.1" stroke-linecap="round" stroke-linejoin="round" stroke-miterlimit="10" x1="297.705" y1="474.953" x2="297.705" y2="478.123"/>
	
		<line fill="none" stroke="#010202" stroke-width="0.1" stroke-linecap="round" stroke-linejoin="round" stroke-miterlimit="10" x1="297.705" y1="481.289" x2="352.574" y2="449.609"/>
	
		<line fill="none" stroke="#010202" stroke-width="0.1" stroke-linecap="round" stroke-linejoin="round" stroke-miterlimit="10" x1="297.705" y1="481.289" x2="297.705" y2="484.457"/>
	
		<line fill="none" stroke="#010202" stroke-width="0.1" stroke-linecap="round" stroke-linejoin="round" stroke-miterlimit="10" x1="242.833" y1="449.609" x2="297.705" y2="481.289"/>
	
		<line fill="none" stroke="#010202" stroke-width="0.1" stroke-linecap="round" stroke-linejoin="round" stroke-miterlimit="10" x1="327.602" y1="443.305" x2="320.014" y2="449.941"/>
	
		<line fill="none" stroke="#010202" stroke-width="0.1" stroke-linecap="round" stroke-linejoin="round" stroke-miterlimit="10" x1="302.938" y1="464.881" x2="265.569" y2="450.641"/>
	
		<line fill="none" stroke="#010202" stroke-width="0.1" stroke-linecap="round" stroke-linejoin="round" stroke-miterlimit="10" x1="302.938" y1="464.881" x2="302.938" y2="433.098"/>
	
		<line fill="none" stroke="#010202" stroke-width="0.1" stroke-linecap="round" stroke-linejoin="round" stroke-miterlimit="10" x1="302.938" y1="424.076" x2="302.938" y2="401.882"/>
	
		<line fill="none" stroke="#010202" stroke-width="0.1" stroke-linecap="round" stroke-linejoin="round" stroke-miterlimit="10" x1="304.037" y1="427.18" x2="332.977" y2="401.866"/>
	
		<line fill="none" stroke="#010202" stroke-width="0.1" stroke-linecap="round" stroke-linejoin="round" stroke-miterlimit="10" x1="327.602" y1="402.501" x2="302.938" y2="424.076"/>
	
		<line fill="none" stroke="#010202" stroke-width="0.1" stroke-linecap="round" stroke-linejoin="round" stroke-miterlimit="10" x1="304.037" y1="427.18" x2="304.037" y2="433.516"/>
	
		<line fill="none" stroke="#010202" stroke-width="0.1" stroke-linecap="round" stroke-linejoin="round" stroke-miterlimit="10" x1="260.193" y1="410.472" x2="304.037" y2="427.18"/>
	
		<line fill="none" stroke="#010202" stroke-width="0.1" stroke-linecap="round" stroke-linejoin="round" stroke-miterlimit="10" x1="302.938" y1="424.076" x2="265.569" y2="409.836"/>
	
		<line fill="none" stroke="#010202" stroke-width="0.1" stroke-linecap="round" stroke-linejoin="round" stroke-miterlimit="10" x1="310.523" y1="458.242" x2="302.938" y2="464.881"/>
	
		<line fill="none" stroke="#010202" stroke-width="0.1" stroke-linecap="round" stroke-linejoin="round" stroke-miterlimit="10" x1="320.014" y1="449.941" x2="320.014" y2="423.078"/>
	
		<line fill="none" stroke="#010202" stroke-width="0.1" stroke-linecap="round" stroke-linejoin="round" stroke-miterlimit="10" x1="313.537" y1="447.475" x2="310.523" y2="450.109"/>
	
		<line fill="none" stroke="#010202" stroke-width="0.1" stroke-linecap="round" stroke-linejoin="round" stroke-miterlimit="10" x1="313.537" y1="447.475" x2="313.537" y2="428.742"/>
	
		<line fill="none" stroke="#010202" stroke-width="0.1" stroke-linecap="round" stroke-linejoin="round" stroke-miterlimit="10" x1="320.014" y1="449.941" x2="313.537" y2="447.475"/>
	
		<polyline fill="none" stroke="#010202" stroke-width="0.1" stroke-linecap="round" stroke-linejoin="round" stroke-miterlimit="10" points="
		258.64,383.912 304.355,401.333 334.529,374.939 	"/>
	
		<line fill="none" stroke="#010202" stroke-width="0.1" stroke-linecap="round" stroke-linejoin="round" stroke-miterlimit="10" x1="304.355" y1="402.422" x2="304.355" y2="401.333"/>
	
		<line fill="none" stroke="#010202" stroke-width="0.1" stroke-linecap="round" stroke-linejoin="round" stroke-miterlimit="10" x1="304.355" y1="401.333" x2="296.585" y2="365.803"/>
	
		<polyline fill="none" stroke="#010202" stroke-width="0.1" stroke-linecap="round" stroke-linejoin="round" stroke-miterlimit="10" points="
		334.529,374.939 296.585,365.803 288.814,357.517 	"/>
	
		<line fill="none" stroke="#010202" stroke-width="0.1" stroke-linecap="round" stroke-linejoin="round" stroke-miterlimit="10" x1="296.585" y1="365.803" x2="258.64" y2="383.912"/>
	
		<line fill="none" stroke="#010202" stroke-width="0.1" stroke-linecap="round" stroke-linejoin="round" stroke-miterlimit="10" x1="278.478" y1="408.464" x2="278.478" y2="396.591"/>
	
		<line fill="none" stroke="#010202" stroke-width="0.1" stroke-linecap="round" stroke-linejoin="round" stroke-miterlimit="10" x1="278.478" y1="408.464" x2="290.027" y2="412.865"/>
	
		<line fill="none" stroke="#010202" stroke-width="0.1" stroke-linecap="round" stroke-linejoin="round" stroke-miterlimit="10" x1="282.752" y1="404.725" x2="282.752" y2="398.219"/>
	
		<line fill="none" stroke="#010202" stroke-width="0.1" stroke-linecap="round" stroke-linejoin="round" stroke-miterlimit="10" x1="282.752" y1="404.725" x2="290.027" y2="407.497"/>
	
		<line fill="none" stroke="#010202" stroke-width="0.1" stroke-linecap="round" stroke-linejoin="round" stroke-miterlimit="10" x1="278.478" y1="408.464" x2="282.752" y2="404.725"/>
	
		<line fill="none" stroke="#010202" stroke-width="0.1" stroke-linecap="round" stroke-linejoin="round" stroke-miterlimit="10" x1="242.833" y1="452.777" x2="297.705" y2="484.457"/>
	
		<line fill="none" stroke="#010202" stroke-width="0.1" stroke-linecap="round" stroke-linejoin="round" stroke-miterlimit="10" x1="297.705" y1="484.457" x2="352.574" y2="452.777"/>
	
		<line fill="none" stroke="#010202" stroke-width="0.1" stroke-linecap="round" stroke-linejoin="round" stroke-miterlimit="10" x1="347.088" y1="446.441" x2="347.088" y2="449.609"/>
	
		<line fill="none" stroke="#010202" stroke-width="0.1" stroke-linecap="round" stroke-linejoin="round" stroke-miterlimit="10" x1="347.088" y1="446.441" x2="327.602" y2="435.191"/>
	
		<line fill="none" stroke="#010202" stroke-width="0.1" stroke-linecap="round" stroke-linejoin="round" stroke-miterlimit="10" x1="352.574" y1="452.777" x2="352.574" y2="449.609"/>
	
		<line fill="none" stroke="#010202" stroke-width="0.1" stroke-linecap="round" stroke-linejoin="round" stroke-miterlimit="10" x1="248.32" y1="446.441" x2="248.32" y2="449.609"/>
	
		<line fill="none" stroke="#010202" stroke-width="0.1" stroke-linecap="round" stroke-linejoin="round" stroke-miterlimit="10" x1="265.569" y1="436.484" x2="248.32" y2="446.441"/>
	
		<polyline fill="none" stroke="#010202" stroke-width="0.1" stroke-linecap="round" stroke-linejoin="round" stroke-miterlimit="10" points="
		332.977,408.202 332.977,401.866 327.602,399.818 	"/>
	
		<line fill="none" stroke="#010202" stroke-width="0.1" stroke-linecap="round" stroke-linejoin="round" stroke-miterlimit="10" x1="265.569" y1="405.77" x2="260.193" y2="410.472"/>
	
		<line fill="none" stroke="#010202" stroke-width="0.1" stroke-linecap="round" stroke-linejoin="round" stroke-miterlimit="10" x1="260.193" y1="416.808" x2="260.193" y2="410.472"/>
	
		<polyline fill="none" stroke="#010202" stroke-width="0.1" stroke-linecap="round" stroke-linejoin="round" stroke-miterlimit="10" points="
		334.529,374.939 288.814,357.517 258.64,383.912 	"/>
	
		<line fill="none" stroke="#010202" stroke-width="0.1" stroke-linecap="round" stroke-linejoin="round" stroke-miterlimit="10" x1="258.64" y1="385.001" x2="258.64" y2="383.912"/>
	
		<line fill="none" stroke="#010202" stroke-width="0.1" stroke-linecap="round" stroke-linejoin="round" stroke-miterlimit="10" x1="334.529" y1="376.029" x2="334.529" y2="374.939"/>
	
		<line fill="none" stroke="#010202" stroke-width="0.1" stroke-linecap="round" stroke-linejoin="round" stroke-miterlimit="10" x1="352.574" y1="449.609" x2="347.088" y2="446.441"/>
	
		<line fill="none" stroke="#010202" stroke-width="0.1" stroke-linecap="round" stroke-linejoin="round" stroke-miterlimit="10" x1="248.32" y1="446.441" x2="242.833" y2="449.609"/>
	
		<polyline fill="none" stroke="#010202" stroke-width="0.1" stroke-linecap="round" stroke-linejoin="round" stroke-miterlimit="10" points="
		265.569,450.641 265.569,436.484 265.569,418.856 	"/>
	
		<polyline fill="none" stroke="#010202" stroke-width="0.1" stroke-linecap="round" stroke-linejoin="round" stroke-miterlimit="10" points="
		327.602,443.305 327.602,435.191 327.602,412.905 	"/>
	
		<polyline fill="none" stroke="#010202" stroke-width="0.1" stroke-linecap="round" stroke-linejoin="round" stroke-miterlimit="10" points="
		304.037,433.516 327.602,412.905 332.977,408.202 	"/>
	
		<line fill="none" stroke="#010202" stroke-width="0.1" stroke-linecap="round" stroke-linejoin="round" stroke-miterlimit="10" x1="302.938" y1="433.098" x2="304.037" y2="433.516"/>
	
		<polyline fill="none" stroke="#010202" stroke-width="0.1" stroke-linecap="round" stroke-linejoin="round" stroke-miterlimit="10" points="
		265.569,409.836 265.569,405.77 265.569,387.642 	"/>
	
		<polyline fill="none" stroke="#010202" stroke-width="0.1" stroke-linecap="round" stroke-linejoin="round" stroke-miterlimit="10" points="
		327.602,402.501 327.602,399.818 327.602,382.088 	"/>
	
		<polyline fill="none" stroke="#010202" stroke-width="0.1" stroke-linecap="round" stroke-linejoin="round" stroke-miterlimit="10" points="
		310.523,458.242 310.523,450.109 310.523,431.379 313.537,428.742 320.014,423.078 	"/>
	
		<line fill="none" stroke="#010202" stroke-width="0.1" stroke-linecap="round" stroke-linejoin="round" stroke-miterlimit="10" x1="258.64" y1="385.001" x2="265.569" y2="387.642"/>
	
		<polyline fill="none" stroke="#010202" stroke-width="0.1" stroke-linecap="round" stroke-linejoin="round" stroke-miterlimit="10" points="
		304.355,402.422 327.602,382.088 334.529,376.029 	"/>
	
		<polyline fill="none" stroke="#010202" stroke-width="0.1" stroke-linecap="round" stroke-linejoin="round" stroke-miterlimit="10" points="
		290.027,400.993 282.752,398.219 278.478,396.591 	"/>
	
		<polyline fill="none" stroke="#010202" stroke-width="0.1" stroke-linecap="round" stroke-linejoin="round" stroke-miterlimit="10" points="
		290.027,400.993 290.027,407.497 290.027,412.865 	"/>
	
		<polyline fill="none" stroke="#010202" stroke-width="0.1" stroke-linecap="round" stroke-linejoin="round" stroke-miterlimit="10" points="
		260.193,416.808 265.569,418.856 302.938,433.098 	"/>
	
		<polyline fill="none" stroke="#010202" stroke-width="0.1" stroke-linecap="round" stroke-linejoin="round" stroke-miterlimit="10" points="
		265.569,387.642 302.938,401.882 304.355,402.422 	"/>
</g>
</svg>
