<?xml version="1.0" encoding="UTF-8" standalone="no"?>
<!-- Generator: Adobe Illustrator 15.1.0, SVG Export Plug-In . SVG Version: 6.00 Build 0)  -->

<svg
   xmlns:dc="http://purl.org/dc/elements/1.1/"
   xmlns:cc="http://creativecommons.org/ns#"
   xmlns:rdf="http://www.w3.org/1999/02/22-rdf-syntax-ns#"
   xmlns:svg="http://www.w3.org/2000/svg"
   xmlns="http://www.w3.org/2000/svg"
   xmlns:sodipodi="http://sodipodi.sourceforge.net/DTD/sodipodi-0.dtd"
   xmlns:inkscape="http://www.inkscape.org/namespaces/inkscape"
   version="1.1"
   id="Calque_1"
   x="0px"
   y="0px"
   width="109.91624"
   height="66.672058"
   viewBox="0 0 109.91624 66.672057"
   enable-background="new 0 0 595.28 841.89"
   xml:space="preserve"
   inkscape:version="0.91 r13725"
   sodipodi:docname="plaza.svg"><metadata
     id="metadata167"><rdf:RDF><cc:Work
         rdf:about=""><dc:format>image/svg+xml</dc:format><dc:type
           rdf:resource="http://purl.org/dc/dcmitype/StillImage" /><dc:title></dc:title></cc:Work></rdf:RDF></metadata><defs
     id="defs165" /><sodipodi:namedview
     pagecolor="#ffffff"
     bordercolor="#666666"
     borderopacity="1"
     objecttolerance="10"
     gridtolerance="10"
     guidetolerance="10"
     inkscape:pageopacity="0"
     inkscape:pageshadow="2"
     inkscape:window-width="731"
     inkscape:window-height="480"
     id="namedview163"
     showgrid="false"
     fit-margin-top="0"
     fit-margin-left="0"
     fit-margin-right="0"
     fit-margin-bottom="0"
     inkscape:zoom="0.28032165"
     inkscape:cx="55.021632"
     inkscape:cy="33.380699"
     inkscape:window-x="0"
     inkscape:window-y="30"
     inkscape:window-maximized="0"
     inkscape:current-layer="Calque_1" /><g
     id="g3"
     transform="translate(-242.61838,-387.65365)"><g
       id="g5"><polyline
         points="297.576,387.704 346.992,416.235 297.576,444.766 248.16,416.235 297.576,387.704   "
         id="polyline7"
         style="fill:#e2e1e1" /><polyline
         points="297.576,454.275 242.669,422.574 242.669,419.405 297.576,451.105 297.576,454.275   "
         id="polyline9"
         style="fill:#e2e1e1" /><polyline
         points="297.576,454.275 297.576,451.105 352.484,419.405 352.484,422.574 297.576,454.275   "
         id="polyline11"
         style="fill:#e2e1e1" /><polyline
         points="297.576,444.766 346.992,416.235 346.992,419.405 297.576,447.936 297.576,444.766   "
         id="polyline13"
         style="fill:#e2e1e1" /><polyline
         points="297.576,444.766 297.576,447.936 248.16,419.405 248.16,416.235 297.576,444.766   "
         id="polyline15"
         style="fill:#e2e1e1" /><polyline
         points="297.576,447.936 346.992,419.405 346.992,416.235 352.484,419.405 297.576,451.105     242.669,419.405 248.16,416.235 248.16,419.405 297.576,447.936   "
         id="polyline17"
         style="fill:#e2e1e1" /><line
         stroke-miterlimit="10"
         x1="297.57599"
         y1="451.10501"
         x2="297.57599"
         y2="454.27499"
         id="line19"
         style="fill:none;stroke:#010202;stroke-width:0.1;stroke-linecap:round;stroke-linejoin:round;stroke-miterlimit:10" /><polyline
         stroke-miterlimit="10"
         points="    297.576,444.766 297.576,447.936 346.992,419.405   "
         id="polyline21"
         style="fill:none;stroke:#010202;stroke-width:0.1;stroke-linecap:round;stroke-linejoin:round;stroke-miterlimit:10" /><line
         stroke-miterlimit="10"
         x1="297.57599"
         y1="444.76599"
         x2="346.992"
         y2="416.23499"
         id="line23"
         style="fill:none;stroke:#010202;stroke-width:0.1;stroke-linecap:round;stroke-linejoin:round;stroke-miterlimit:10" /><line
         stroke-miterlimit="10"
         x1="248.16"
         y1="419.405"
         x2="297.57599"
         y2="447.936"
         id="line25"
         style="fill:none;stroke:#010202;stroke-width:0.1;stroke-linecap:round;stroke-linejoin:round;stroke-miterlimit:10" /><line
         stroke-miterlimit="10"
         x1="248.16"
         y1="416.23499"
         x2="297.57599"
         y2="444.76599"
         id="line27"
         style="fill:none;stroke:#010202;stroke-width:0.1;stroke-linecap:round;stroke-linejoin:round;stroke-miterlimit:10" /><line
         stroke-miterlimit="10"
         x1="297.57599"
         y1="451.10501"
         x2="352.48401"
         y2="419.405"
         id="line29"
         style="fill:none;stroke:#010202;stroke-width:0.1;stroke-linecap:round;stroke-linejoin:round;stroke-miterlimit:10" /><line
         stroke-miterlimit="10"
         x1="242.66901"
         y1="419.405"
         x2="297.57599"
         y2="451.10501"
         id="line31"
         style="fill:none;stroke:#010202;stroke-width:0.1;stroke-linecap:round;stroke-linejoin:round;stroke-miterlimit:10" /><line
         stroke-miterlimit="10"
         x1="346.992"
         y1="416.23499"
         x2="297.57599"
         y2="387.70401"
         id="line33"
         style="fill:none;stroke:#010202;stroke-width:0.1;stroke-linecap:round;stroke-linejoin:round;stroke-miterlimit:10" /><polyline
         stroke-miterlimit="10"
         points="    242.669,422.574 297.576,454.275 352.484,422.574   "
         id="polyline35"
         style="fill:none;stroke:#010202;stroke-width:0.1;stroke-linecap:round;stroke-linejoin:round;stroke-miterlimit:10" /><line
         stroke-miterlimit="10"
         x1="346.992"
         y1="416.23499"
         x2="346.992"
         y2="419.405"
         id="line37"
         style="fill:none;stroke:#010202;stroke-width:0.1;stroke-linecap:round;stroke-linejoin:round;stroke-miterlimit:10" /><line
         stroke-miterlimit="10"
         x1="242.66901"
         y1="422.57401"
         x2="242.66901"
         y2="419.405"
         id="line39"
         style="fill:none;stroke:#010202;stroke-width:0.1;stroke-linecap:round;stroke-linejoin:round;stroke-miterlimit:10" /><line
         stroke-miterlimit="10"
         x1="248.16"
         y1="416.23499"
         x2="248.16"
         y2="419.405"
         id="line41"
         style="fill:none;stroke:#010202;stroke-width:0.1;stroke-linecap:round;stroke-linejoin:round;stroke-miterlimit:10" /><line
         stroke-miterlimit="10"
         x1="297.57599"
         y1="387.70401"
         x2="248.16"
         y2="416.23499"
         id="line43"
         style="fill:none;stroke:#010202;stroke-width:0.1;stroke-linecap:round;stroke-linejoin:round;stroke-miterlimit:10" /><line
         stroke-miterlimit="10"
         x1="352.48401"
         y1="422.57401"
         x2="352.48401"
         y2="419.405"
         id="line45"
         style="fill:none;stroke:#010202;stroke-width:0.1;stroke-linecap:round;stroke-linejoin:round;stroke-miterlimit:10" /><line
         stroke-miterlimit="10"
         x1="248.16"
         y1="416.23499"
         x2="242.66901"
         y2="419.405"
         id="line47"
         style="fill:none;stroke:#010202;stroke-width:0.1;stroke-linecap:round;stroke-linejoin:round;stroke-miterlimit:10" /><line
         stroke-miterlimit="10"
         x1="352.48401"
         y1="419.405"
         x2="346.992"
         y2="416.23499"
         id="line49"
         style="fill:none;stroke:#010202;stroke-width:0.1;stroke-linecap:round;stroke-linejoin:round;stroke-miterlimit:10" /></g><g
       id="g51"><linearGradient
         id="SVGID_1_"
         gradientUnits="userSpaceOnUse"
         x1="458.98541"
         y1="349.43991"
         x2="463.0806"
         y2="345.3447"
         gradientTransform="matrix(0.866,0.5,-1,0.5774,245.7134,-32.4219)"><stop
           offset="0"
           style="stop-color:#1E1E1C"
           id="stop54" /><stop
           offset="1"
           style="stop-color:#292929"
           id="stop56" /></linearGradient><polygon
         points="297.576,400.872 301.377,398.678 297.576,396.483 293.775,398.678 "
         id="polygon58"
         style="fill:url(#SVGID_1_)" /><linearGradient
         id="SVGID_2_"
         gradientUnits="userSpaceOnUse"
         x1="458.98441"
         y1="375.75391"
         x2="463.07932"
         y2="379.84879"
         gradientTransform="matrix(0.866,0.5,-1,0.5774,245.7134,-32.4219)"><stop
           offset="0"
           style="stop-color:#1E1E1C"
           id="stop61" /><stop
           offset="1"
           style="stop-color:#292929"
           id="stop63" /></linearGradient><polygon
         points="270.968,416.235 267.166,414.041 263.365,416.235 267.166,418.429 "
         id="polygon65"
         style="fill:url(#SVGID_2_)" /><linearGradient
         id="SVGID_3_"
         gradientUnits="userSpaceOnUse"
         x1="494.10059"
         y1="345.3447"
         x2="498.1955"
         y2="349.43961"
         gradientTransform="matrix(0.866,0.5,-1,0.5774,245.7134,-32.4219)"><stop
           offset="0"
           style="stop-color:#1E1E1C"
           id="stop68" /><stop
           offset="1"
           style="stop-color:#292929"
           id="stop70" /></linearGradient><polygon
         points="327.988,414.041 324.186,416.235 327.988,418.429 331.787,416.235 "
         id="polygon72"
         style="fill:url(#SVGID_3_)" /><linearGradient
         id="SVGID_4_"
         gradientUnits="userSpaceOnUse"
         x1="494.10059"
         y1="379.8486"
         x2="498.1965"
         y2="375.75269"
         gradientTransform="matrix(0.866,0.5,-1,0.5774,245.7134,-32.4219)"><stop
           offset="0"
           style="stop-color:#1E1E1C"
           id="stop75" /><stop
           offset="1"
           style="stop-color:#292929"
           id="stop77" /></linearGradient><polygon
         points="297.577,431.598 293.775,433.793 297.577,435.987 301.379,433.793 "
         id="polygon79"
         style="fill:url(#SVGID_4_)" /></g><path
       d="m 335.589,414.041 -3.802,-2.195 -3.799,-2.195 -3.804,-2.194 -3.802,-2.195 -3.801,-2.195 -3.801,-2.195 -3.802,-2.194 -3.802,-2.195 -3.801,-2.195 -3.801,-2.195 -3.801,2.195 -3.801,2.195 -3.802,2.195 -3.801,2.194 -3.801,2.195 -3.802,2.195 -3.8,2.195 -3.802,2.194 -3.801,2.195 -3.8,2.195 -3.802,2.194 3.802,2.194 3.8,2.194 3.801,2.195 3.802,2.194 3.801,2.195 3.801,2.194 3.801,2.194 3.801,2.196 3.802,2.193 3.801,2.195 3.802,2.193 3.802,-2.193 3.801,-2.194 3.801,-2.194 3.802,-2.195 3.802,-2.194 3.8,-2.194 3.802,-2.195 3.803,-2.195 3.799,-2.194 3.802,-2.195 3.802,-2.194 -3.802,-2.194 z m -7.601,4.388 -3.803,2.195 -3.802,2.194 -3.802,2.195 -3.801,2.195 -3.801,2.194 -3.801,2.194 -3.801,2.195 -3.802,2.194 -3.802,-2.194 -3.801,-2.195 -3.802,-2.194 -3.801,-2.194 -3.801,-2.195 -3.801,-2.195 -3.801,-2.194 -3.802,-2.195 -3.801,-2.194 3.801,-2.194 3.802,-2.195 3.801,-2.195 3.801,-2.194 3.801,-2.195 3.801,-2.195 3.801,-2.195 3.801,-2.194 3.801,-2.195 3.801,2.195 3.801,2.194 3.802,2.195 3.802,2.195 3.801,2.195 3.801,2.194 3.802,2.195 3.804,2.195 3.799,2.194 -3.798,2.194 z"
       id="path81"
       inkscape:connector-curvature="0"
       style="fill:#245778" /><g
       id="g83"><linearGradient
         id="SVGID_5_"
         gradientUnits="userSpaceOnUse"
         x1="458.83691"
         y1="362.59671"
         x2="498.34381"
         y2="362.59671"
         gradientTransform="matrix(0.866,0.5,-1,0.5774,245.7134,-32.4219)"><stop
           offset="0"
           style="stop-color:#F6DDC0"
           id="stop86" /><stop
           offset="1"
           style="stop-color:#DAC5AC"
           id="stop88" /></linearGradient><path
         d="m 324.186,416.235 -3.803,2.194 -3.801,2.195 -3.801,2.194 -3.802,-2.194 3.802,-2.195 3.801,-2.194 -3.801,-2.194 -3.802,-2.195 3.803,-2.195 3.802,2.195 3.8,2.195 3.802,2.194 3.803,-2.194 -3.804,-2.195 -3.802,-2.195 -3.801,-2.194 -3.801,-2.195 -3.802,-2.195 -3.802,-2.195 -3.801,-2.194 -3.801,2.194 3.801,2.195 3.801,2.195 3.803,2.195 -3.803,2.194 -3.801,-2.194 -3.801,-2.195 -3.801,2.195 -3.801,2.194 -3.801,-2.194 3.801,-2.195 3.801,-2.195 3.801,-2.195 -3.801,-2.194 -3.801,2.194 -3.801,2.195 -3.801,2.195 -3.801,2.195 -3.801,2.194 -3.801,2.195 -3.802,2.195 3.802,2.194 3.801,-2.194 3.801,-2.195 3.801,-2.195 3.801,2.195 -3.801,2.195 -3.801,2.194 3.801,2.194 3.801,2.195 -3.801,2.194 -3.801,-2.194 -3.801,-2.195 -3.801,-2.194 -3.802,2.194 3.802,2.195 3.801,2.194 3.801,2.195 3.801,2.195 3.801,2.194 3.802,2.194 3.801,2.195 3.802,-2.195 -3.802,-2.194 -3.801,-2.194 -3.802,-2.195 3.802,-2.195 3.801,2.195 3.802,2.195 3.802,-2.195 3.799,-2.195 3.802,2.195 -3.8,2.195 -3.801,2.194 -3.802,2.194 3.802,2.195 3.801,-2.195 3.801,-2.194 3.801,-2.194 3.801,-2.195 3.802,-2.195 3.802,-2.194 3.803,-2.195 -3.804,-2.194 z m -34.212,2.194 -3.802,-2.194 3.801,-2.194 3.801,2.194 -3.8,2.194 z m 7.602,-4.388 -3.801,-2.195 3.801,-2.195 3.801,2.195 -3.801,2.195 z m 7.602,0 3.802,2.194 -3.802,2.194 -3.801,-2.194 3.801,-2.194 z m -7.601,8.777 -3.802,-2.194 3.801,-2.195 3.801,2.195 -3.8,2.194 z"
         id="path90"
         inkscape:connector-curvature="0"
         style="fill:url(#SVGID_5_)" /><linearGradient
         id="SVGID_6_"
         gradientUnits="userSpaceOnUse"
         x1="451.9707"
         y1="389.2168"
         x2="505.20981"
         y2="335.97769"
         gradientTransform="matrix(0.866,0.5,-1,0.5774,245.7134,-32.4219)"><stop
           offset="0"
           style="stop-color:#F6DDC0"
           id="stop93" /><stop
           offset="1"
           style="stop-color:#DAC5AC"
           id="stop95" /></linearGradient><path
         d="m 343.191,414.041 -3.801,-2.195 -3.802,-2.195 -3.802,-2.194 -3.801,-2.195 -3.802,-2.195 -3.802,-2.195 -3.801,-2.194 -3.801,-2.195 -3.802,-2.195 -3.802,-2.195 -3.801,-2.194 -3.801,-2.195 -3.801,2.195 -3.801,2.194 -3.802,2.195 -3.801,2.195 -3.801,2.195 -3.802,2.194 -3.801,2.195 -3.801,2.195 -3.801,2.195 -3.8,2.194 -3.802,2.195 -3.801,2.195 -3.801,2.194 3.801,2.194 3.801,2.194 3.802,2.195 3.8,2.194 3.801,2.195 3.802,2.194 3.801,2.194 3.801,2.196 3.801,2.193 3.801,2.195 3.802,2.193 3.801,2.195 3.802,2.195 3.802,-2.195 3.801,-2.194 3.801,-2.194 3.802,-2.194 3.802,-2.194 3.8,-2.195 3.802,-2.194 3.803,-2.194 3.799,-2.195 3.802,-2.195 3.802,-2.194 3.801,-2.195 3.801,-2.194 -3.801,-2.194 z m -7.602,4.388 -3.802,2.195 -3.799,2.194 -3.803,2.195 -3.802,2.195 -3.8,2.194 -3.802,2.194 -3.802,2.195 -3.801,2.194 -3.801,2.194 -3.802,2.193 -3.802,-2.193 -3.801,-2.195 -3.802,-2.193 -3.801,-2.196 -3.801,-2.194 -3.801,-2.194 -3.801,-2.195 -3.802,-2.194 -3.801,-2.195 -3.8,-2.194 -3.802,-2.194 3.802,-2.194 3.8,-2.195 3.801,-2.195 3.802,-2.194 3.8,-2.195 3.802,-2.195 3.801,-2.195 3.801,-2.194 3.802,-2.195 3.801,-2.195 3.801,-2.195 3.801,2.195 3.801,2.195 3.802,2.195 3.802,2.194 3.801,2.195 3.801,2.195 3.802,2.195 3.804,2.194 3.799,2.195 3.802,2.195 3.802,2.194 -3.802,2.194 z"
         id="path97"
         inkscape:connector-curvature="0"
         style="fill:url(#SVGID_6_)" /></g><g
       id="g99"><linearGradient
         id="SVGID_7_"
         gradientUnits="userSpaceOnUse"
         x1="474.2012"
         y1="361.07669"
         x2="474.2012"
         y2="356.51511"
         gradientTransform="matrix(0.866,0.5,-1,0.5774,245.7134,-32.4219)"><stop
           offset="0"
           style="stop-color:#BE1B23"
           id="stop102" /><stop
           offset="1"
           style="stop-color:#9C191B"
           id="stop104" /></linearGradient><polygon
         points="297.576,414.479 302.138,411.846 297.576,409.212 293.015,411.846 "
         id="polygon106"
         style="fill:url(#SVGID_7_)" /><linearGradient
         id="SVGID_8_"
         gradientUnits="userSpaceOnUse"
         x1="482.97849"
         y1="368.67819"
         x2="482.97849"
         y2="364.1167"
         gradientTransform="matrix(0.866,0.5,-1,0.5774,245.7134,-32.4219)"><stop
           offset="0"
           style="stop-color:#BE1B23"
           id="stop109" /><stop
           offset="1"
           style="stop-color:#9C191B"
           id="stop111" /></linearGradient><polygon
         points="297.577,417.991 293.015,420.624 297.576,423.258 302.138,420.624 "
         id="polygon113"
         style="fill:url(#SVGID_8_)" /><g
         id="g115"><linearGradient
           id="SVGID_9_"
           gradientUnits="userSpaceOnUse"
           x1="469.81049"
           y1="375.90091"
           x2="469.81049"
           y2="364.4971"
           gradientTransform="matrix(0.866,0.5,-1,0.5774,245.7134,-32.4219)"><stop
             offset="0"
             style="stop-color:#BE1B23"
             id="stop118" /><stop
             offset="1"
             style="stop-color:#9C191B"
             id="stop120" /></linearGradient><polygon
           points="282.371,409.65 278.57,411.846 274.769,414.041 270.968,416.235 274.769,418.429 278.57,420.624 282.371,422.818 286.172,420.624 282.371,418.429 278.57,416.235 282.371,414.041 286.172,411.846 "
           id="polygon122"
           style="fill:url(#SVGID_9_)" /><linearGradient
           id="SVGID_10_"
           gradientUnits="userSpaceOnUse"
           x1="487.37009"
           y1="360.69629"
           x2="487.37009"
           y2="349.29199"
           gradientTransform="matrix(0.866,0.5,-1,0.5774,245.7134,-32.4219)"><stop
             offset="0"
             style="stop-color:#BE1B23"
             id="stop125" /><stop
             offset="1"
             style="stop-color:#9C191B"
             id="stop127" /></linearGradient><polygon
           points="308.979,411.846 312.781,414.041 316.582,416.235 312.781,418.429 308.979,420.624 312.781,422.818 316.582,420.624 320.383,418.429 324.186,416.235 320.384,414.041 316.584,411.846 312.782,409.65 "
           id="polygon129"
           style="fill:url(#SVGID_10_)" /></g></g><g
       id="g131"><linearGradient
         id="SVGID_11_"
         gradientUnits="userSpaceOnUse"
         x1="471.56741"
         y1="366.39749"
         x2="476.83401"
         y2="366.39749"
         gradientTransform="matrix(0.866,0.5,-1,0.5774,245.7134,-32.4219)"><stop
           offset="0"
           style="stop-color:#E84F1D"
           id="stop134" /><stop
           offset="1"
           style="stop-color:#C14518"
           id="stop136" /></linearGradient><polygon
         points="294.535,416.235 289.974,413.602 285.412,416.235 289.974,418.868 "
         id="polygon138"
         style="fill:url(#SVGID_11_)" /><linearGradient
         id="SVGID_12_"
         gradientUnits="userSpaceOnUse"
         x1="480.3457"
         y1="358.79489"
         x2="485.61331"
         y2="358.79489"
         gradientTransform="matrix(0.866,0.5,-1,0.5774,245.7134,-32.4219)"><stop
           offset="0"
           style="stop-color:#E84F1D"
           id="stop141" /><stop
           offset="1"
           style="stop-color:#C14518"
           id="stop143" /></linearGradient><polygon
         points="305.178,413.602 300.617,416.235 305.18,418.868 309.74,416.235 "
         id="polygon145"
         style="fill:url(#SVGID_12_)" /><g
         id="g147"><linearGradient
           id="SVGID_13_"
           gradientUnits="userSpaceOnUse"
           x1="463.22751"
           y1="354.99411"
           x2="476.39749"
           y2="354.99411"
           gradientTransform="matrix(0.866,0.5,-1,0.5774,245.7134,-32.4219)"><stop
             offset="0"
             style="stop-color:#E84F1D"
             id="stop150" /><stop
             offset="1"
             style="stop-color:#C14518"
             id="stop152" /></linearGradient><polygon
           points="289.974,405.262 286.172,407.457 289.974,409.65 293.775,407.457 297.576,405.262 301.377,407.457 305.178,409.65 308.98,407.457 305.178,405.262 301.377,403.067 297.576,400.872 293.775,403.067 "
           id="polygon154"
           style="fill:url(#SVGID_13_)" /><linearGradient
           id="SVGID_14_"
           gradientUnits="userSpaceOnUse"
           x1="480.78421"
           y1="370.19821"
           x2="493.9541"
           y2="370.19821"
           gradientTransform="matrix(0.866,0.5,-1,0.5774,245.7134,-32.4219)"><stop
             offset="0"
             style="stop-color:#E84F1D"
             id="stop157" /><stop
             offset="1"
             style="stop-color:#C14518"
             id="stop159" /></linearGradient><polygon
           points="293.775,425.014 289.974,422.818 286.172,425.014 289.974,427.209 293.775,429.403 297.577,431.598 301.379,429.403 305.18,427.209 308.979,425.014 305.178,422.818 301.379,425.014 297.577,427.209 "
           id="polygon161"
           style="fill:url(#SVGID_14_)" /></g></g></g></svg>