<?xml version="1.0" encoding="utf-8"?>
<!-- Generator: Adobe Illustrator 15.1.0, SVG Export Plug-In . SVG Version: 6.00 Build 0)  -->
<!DOCTYPE svg PUBLIC "-//W3C//DTD SVG 1.1//EN" "http://www.w3.org/Graphics/SVG/1.1/DTD/svg11.dtd">
<svg version="1.1" id="Calque_1" xmlns="http://www.w3.org/2000/svg" xmlns:xlink="http://www.w3.org/1999/xlink" x="0px" y="0px"
	 width="595.28px" height="841.89px" viewBox="0 0 595.28 841.89" enable-background="new 0 0 595.28 841.89" xml:space="preserve">
<g>
	<g>
		<polyline fill="#E2E1E1" points="297.576,387.704 346.992,416.235 297.576,444.766 248.16,416.235 297.576,387.704 		"/>
		<polyline fill="#E2E1E1" points="297.576,454.275 242.669,422.574 242.669,419.405 297.576,451.105 297.576,454.275 		"/>
		<polyline fill="#E2E1E1" points="297.576,454.275 297.576,451.105 352.484,419.405 352.484,422.574 297.576,454.275 		"/>
		<polyline fill="#E2E1E1" points="297.576,444.766 346.992,416.235 346.992,419.405 297.576,447.936 297.576,444.766 		"/>
		<polyline fill="#E2E1E1" points="297.576,444.766 297.576,447.936 248.16,419.405 248.16,416.235 297.576,444.766 		"/>
		<polyline fill="#E2E1E1" points="297.576,447.936 346.992,419.405 346.992,416.235 352.484,419.405 297.576,451.105 
			242.669,419.405 248.16,416.235 248.16,419.405 297.576,447.936 		"/>
		
			<line fill="none" stroke="#010202" stroke-width="0.1" stroke-linecap="round" stroke-linejoin="round" stroke-miterlimit="10" x1="297.576" y1="451.105" x2="297.576" y2="454.275"/>
		
			<polyline fill="none" stroke="#010202" stroke-width="0.1" stroke-linecap="round" stroke-linejoin="round" stroke-miterlimit="10" points="
			297.576,444.766 297.576,447.936 346.992,419.405 		"/>
		
			<line fill="none" stroke="#010202" stroke-width="0.1" stroke-linecap="round" stroke-linejoin="round" stroke-miterlimit="10" x1="297.576" y1="444.766" x2="346.992" y2="416.235"/>
		
			<line fill="none" stroke="#010202" stroke-width="0.1" stroke-linecap="round" stroke-linejoin="round" stroke-miterlimit="10" x1="248.16" y1="419.405" x2="297.576" y2="447.936"/>
		
			<line fill="none" stroke="#010202" stroke-width="0.1" stroke-linecap="round" stroke-linejoin="round" stroke-miterlimit="10" x1="248.16" y1="416.235" x2="297.576" y2="444.766"/>
		
			<line fill="none" stroke="#010202" stroke-width="0.1" stroke-linecap="round" stroke-linejoin="round" stroke-miterlimit="10" x1="297.576" y1="451.105" x2="352.484" y2="419.405"/>
		
			<line fill="none" stroke="#010202" stroke-width="0.1" stroke-linecap="round" stroke-linejoin="round" stroke-miterlimit="10" x1="242.669" y1="419.405" x2="297.576" y2="451.105"/>
		
			<line fill="none" stroke="#010202" stroke-width="0.1" stroke-linecap="round" stroke-linejoin="round" stroke-miterlimit="10" x1="346.992" y1="416.235" x2="297.576" y2="387.704"/>
		
			<polyline fill="none" stroke="#010202" stroke-width="0.1" stroke-linecap="round" stroke-linejoin="round" stroke-miterlimit="10" points="
			242.669,422.574 297.576,454.275 352.484,422.574 		"/>
		
			<line fill="none" stroke="#010202" stroke-width="0.1" stroke-linecap="round" stroke-linejoin="round" stroke-miterlimit="10" x1="346.992" y1="416.235" x2="346.992" y2="419.405"/>
		
			<line fill="none" stroke="#010202" stroke-width="0.1" stroke-linecap="round" stroke-linejoin="round" stroke-miterlimit="10" x1="242.669" y1="422.574" x2="242.669" y2="419.405"/>
		
			<line fill="none" stroke="#010202" stroke-width="0.1" stroke-linecap="round" stroke-linejoin="round" stroke-miterlimit="10" x1="248.16" y1="416.235" x2="248.16" y2="419.405"/>
		
			<line fill="none" stroke="#010202" stroke-width="0.1" stroke-linecap="round" stroke-linejoin="round" stroke-miterlimit="10" x1="297.576" y1="387.704" x2="248.16" y2="416.235"/>
		
			<line fill="none" stroke="#010202" stroke-width="0.1" stroke-linecap="round" stroke-linejoin="round" stroke-miterlimit="10" x1="352.484" y1="422.574" x2="352.484" y2="419.405"/>
		
			<line fill="none" stroke="#010202" stroke-width="0.1" stroke-linecap="round" stroke-linejoin="round" stroke-miterlimit="10" x1="248.16" y1="416.235" x2="242.669" y2="419.405"/>
		
			<line fill="none" stroke="#010202" stroke-width="0.1" stroke-linecap="round" stroke-linejoin="round" stroke-miterlimit="10" x1="352.484" y1="419.405" x2="346.992" y2="416.235"/>
	</g>
	<g>
		
			<linearGradient id="SVGID_1_" gradientUnits="userSpaceOnUse" x1="458.9854" y1="349.4399" x2="463.0806" y2="345.3447" gradientTransform="matrix(0.866 0.5 -1 0.5774 245.7134 -32.4219)">
			<stop  offset="0" style="stop-color:#1E1E1C"/>
			<stop  offset="1" style="stop-color:#292929"/>
		</linearGradient>
		<polygon fill="url(#SVGID_1_)" points="301.377,398.678 297.576,396.483 293.775,398.678 297.576,400.872 		"/>
		
			<linearGradient id="SVGID_2_" gradientUnits="userSpaceOnUse" x1="458.9844" y1="375.7539" x2="463.0793" y2="379.8488" gradientTransform="matrix(0.866 0.5 -1 0.5774 245.7134 -32.4219)">
			<stop  offset="0" style="stop-color:#1E1E1C"/>
			<stop  offset="1" style="stop-color:#292929"/>
		</linearGradient>
		<polygon fill="url(#SVGID_2_)" points="267.166,414.041 263.365,416.235 267.166,418.429 270.968,416.235 		"/>
		
			<linearGradient id="SVGID_3_" gradientUnits="userSpaceOnUse" x1="494.1006" y1="345.3447" x2="498.1955" y2="349.4396" gradientTransform="matrix(0.866 0.5 -1 0.5774 245.7134 -32.4219)">
			<stop  offset="0" style="stop-color:#1E1E1C"/>
			<stop  offset="1" style="stop-color:#292929"/>
		</linearGradient>
		<polygon fill="url(#SVGID_3_)" points="324.186,416.235 327.988,418.429 331.787,416.235 327.988,414.041 		"/>
		
			<linearGradient id="SVGID_4_" gradientUnits="userSpaceOnUse" x1="494.1006" y1="379.8486" x2="498.1965" y2="375.7527" gradientTransform="matrix(0.866 0.5 -1 0.5774 245.7134 -32.4219)">
			<stop  offset="0" style="stop-color:#1E1E1C"/>
			<stop  offset="1" style="stop-color:#292929"/>
		</linearGradient>
		<polygon fill="url(#SVGID_4_)" points="293.775,433.793 297.577,435.987 301.379,433.793 297.577,431.598 		"/>
	</g>
	<path fill="#245778" d="M335.589,414.041l-3.802-2.195l-3.799-2.195l-3.804-2.194l-3.802-2.195l-3.801-2.195l-3.801-2.195
		l-3.802-2.194l-3.802-2.195l-3.801-2.195l-3.801-2.195l-3.801,2.195l-3.801,2.195l-3.802,2.195l-3.801,2.194l-3.801,2.195
		l-3.802,2.195l-3.8,2.195l-3.802,2.194l-3.801,2.195l-3.8,2.195l-3.802,2.194l3.802,2.194l3.8,2.194l3.801,2.195l3.802,2.194
		l3.801,2.195l3.801,2.194l3.801,2.194l3.801,2.196l3.802,2.193l3.801,2.195l3.802,2.193l3.802-2.193l3.801-2.194l3.801-2.194
		l3.802-2.195l3.802-2.194l3.8-2.194l3.802-2.195l3.803-2.195l3.799-2.194l3.802-2.195l3.802-2.194L335.589,414.041z
		 M327.988,418.429l-3.803,2.195l-3.802,2.194l-3.802,2.195l-3.801,2.195l-3.801,2.194l-3.801,2.194l-3.801,2.195l-3.802,2.194
		l-3.802-2.194l-3.801-2.195l-3.802-2.194l-3.801-2.194l-3.801-2.195l-3.801-2.195l-3.801-2.194l-3.802-2.195l-3.801-2.194
		l3.801-2.194l3.802-2.195l3.801-2.195l3.801-2.194l3.801-2.195l3.801-2.195l3.801-2.195l3.801-2.194l3.801-2.195l3.801,2.195
		l3.801,2.194l3.802,2.195l3.802,2.195l3.801,2.195l3.801,2.194l3.802,2.195l3.804,2.195l3.799,2.194L327.988,418.429z"/>
	<g>
		
			<linearGradient id="SVGID_5_" gradientUnits="userSpaceOnUse" x1="458.8369" y1="362.5967" x2="498.3438" y2="362.5967" gradientTransform="matrix(0.866 0.5 -1 0.5774 245.7134 -32.4219)">
			<stop  offset="0" style="stop-color:#F6DDC0"/>
			<stop  offset="1" style="stop-color:#DAC5AC"/>
		</linearGradient>
		<path fill="url(#SVGID_5_)" d="M324.186,416.235l-3.803,2.194l-3.801,2.195l-3.801,2.194l-3.802-2.194l3.802-2.195l3.801-2.194
			l-3.801-2.194l-3.802-2.195l3.803-2.195l3.802,2.195l3.8,2.195L324.186,416.235l3.803-2.194l-3.804-2.195l-3.802-2.195
			l-3.801-2.194l-3.801-2.195l-3.802-2.195l-3.802-2.195l-3.801-2.194l-3.801,2.194l3.801,2.195l3.801,2.195l3.803,2.195
			l-3.803,2.194l-3.801-2.194l-3.801-2.195l-3.801,2.195l-3.801,2.194l-3.801-2.194l3.801-2.195l3.801-2.195l3.801-2.195
			l-3.801-2.194l-3.801,2.194l-3.801,2.195l-3.801,2.195l-3.801,2.195l-3.801,2.194l-3.801,2.195l-3.802,2.195l3.802,2.194
			l3.801-2.194l3.801-2.195l3.801-2.195l3.801,2.195l-3.801,2.195l-3.801,2.194l3.801,2.194l3.801,2.195l-3.801,2.194l-3.801-2.194
			l-3.801-2.195l-3.801-2.194l-3.802,2.194l3.802,2.195l3.801,2.194l3.801,2.195l3.801,2.195l3.801,2.194l3.802,2.194l3.801,2.195
			l3.802-2.195l-3.802-2.194l-3.801-2.194l-3.802-2.195l3.802-2.195l3.801,2.195l3.802,2.195l3.802-2.195l3.799-2.195l3.802,2.195
			l-3.8,2.195l-3.801,2.194l-3.802,2.194l3.802,2.195l3.801-2.195l3.801-2.194l3.801-2.194l3.801-2.195l3.802-2.195l3.802-2.194
			l3.803-2.195L324.186,416.235z M289.974,418.429l-3.802-2.194l3.801-2.194l3.801,2.194L289.974,418.429z M297.576,414.041
			l-3.801-2.195l3.801-2.195l3.801,2.195L297.576,414.041z M305.178,414.041l3.802,2.194l-3.802,2.194l-3.801-2.194L305.178,414.041
			z M297.577,422.818l-3.802-2.194l3.801-2.195l3.801,2.195L297.577,422.818z"/>
		
			<linearGradient id="SVGID_6_" gradientUnits="userSpaceOnUse" x1="451.9707" y1="389.2168" x2="505.2098" y2="335.9777" gradientTransform="matrix(0.866 0.5 -1 0.5774 245.7134 -32.4219)">
			<stop  offset="0" style="stop-color:#F6DDC0"/>
			<stop  offset="1" style="stop-color:#DAC5AC"/>
		</linearGradient>
		<path fill="url(#SVGID_6_)" d="M343.191,414.041l-3.801-2.195l-3.802-2.195l-3.802-2.194l-3.801-2.195l-3.802-2.195l-3.802-2.195
			l-3.801-2.194l-3.801-2.195l-3.802-2.195l-3.802-2.195l-3.801-2.194l-3.801-2.195l-3.801,2.195l-3.801,2.194l-3.802,2.195
			l-3.801,2.195l-3.801,2.195l-3.802,2.194l-3.801,2.195l-3.801,2.195l-3.801,2.195l-3.8,2.194l-3.802,2.195l-3.801,2.195
			l-3.801,2.194l3.801,2.194l3.801,2.194l3.802,2.195l3.8,2.194l3.801,2.195l3.802,2.194l3.801,2.194l3.801,2.196l3.801,2.193
			l3.801,2.195l3.802,2.193l3.801,2.195l3.802,2.195l3.802-2.195l3.801-2.194l3.801-2.194l3.802-2.194l3.802-2.194l3.8-2.195
			l3.802-2.194l3.803-2.194l3.799-2.195l3.802-2.195l3.802-2.194l3.801-2.195l3.801-2.194L343.191,414.041z M335.589,418.429
			l-3.802,2.195l-3.799,2.194l-3.803,2.195l-3.802,2.195l-3.8,2.194l-3.802,2.194l-3.802,2.195l-3.801,2.194l-3.801,2.194
			l-3.802,2.193l-3.802-2.193l-3.801-2.195l-3.802-2.193l-3.801-2.196l-3.801-2.194l-3.801-2.194l-3.801-2.195l-3.802-2.194
			l-3.801-2.195l-3.8-2.194l-3.802-2.194l3.802-2.194l3.8-2.195l3.801-2.195l3.802-2.194l3.8-2.195l3.802-2.195l3.801-2.195
			l3.801-2.194l3.802-2.195l3.801-2.195l3.801-2.195l3.801,2.195l3.801,2.195l3.802,2.195l3.802,2.194l3.801,2.195l3.801,2.195
			l3.802,2.195l3.804,2.194l3.799,2.195l3.802,2.195l3.802,2.194L335.589,418.429z"/>
	</g>
	<g>
		
			<linearGradient id="SVGID_7_" gradientUnits="userSpaceOnUse" x1="474.2012" y1="361.0767" x2="474.2012" y2="356.5151" gradientTransform="matrix(0.866 0.5 -1 0.5774 245.7134 -32.4219)">
			<stop  offset="0" style="stop-color:#BE1B23"/>
			<stop  offset="1" style="stop-color:#9C191B"/>
		</linearGradient>
		<polygon fill="url(#SVGID_7_)" points="302.138,411.846 297.576,409.212 293.015,411.846 297.576,414.479 		"/>
		
			<linearGradient id="SVGID_8_" gradientUnits="userSpaceOnUse" x1="482.9785" y1="368.6782" x2="482.9785" y2="364.1167" gradientTransform="matrix(0.866 0.5 -1 0.5774 245.7134 -32.4219)">
			<stop  offset="0" style="stop-color:#BE1B23"/>
			<stop  offset="1" style="stop-color:#9C191B"/>
		</linearGradient>
		<polygon fill="url(#SVGID_8_)" points="293.015,420.624 297.576,423.258 302.138,420.624 297.577,417.991 		"/>
		<g>
			
				<linearGradient id="SVGID_9_" gradientUnits="userSpaceOnUse" x1="469.8105" y1="375.9009" x2="469.8105" y2="364.4971" gradientTransform="matrix(0.866 0.5 -1 0.5774 245.7134 -32.4219)">
				<stop  offset="0" style="stop-color:#BE1B23"/>
				<stop  offset="1" style="stop-color:#9C191B"/>
			</linearGradient>
			<polygon fill="url(#SVGID_9_)" points="278.57,416.235 282.371,414.041 286.172,411.846 282.371,409.65 278.57,411.846 
				274.769,414.041 270.968,416.235 274.769,418.429 278.57,420.624 282.371,422.818 286.172,420.624 282.371,418.429 			"/>
			
				<linearGradient id="SVGID_10_" gradientUnits="userSpaceOnUse" x1="487.3701" y1="360.6963" x2="487.3701" y2="349.292" gradientTransform="matrix(0.866 0.5 -1 0.5774 245.7134 -32.4219)">
				<stop  offset="0" style="stop-color:#BE1B23"/>
				<stop  offset="1" style="stop-color:#9C191B"/>
			</linearGradient>
			<polygon fill="url(#SVGID_10_)" points="320.384,414.041 316.584,411.846 312.782,409.65 308.979,411.846 312.781,414.041 
				316.582,416.235 312.781,418.429 308.979,420.624 312.781,422.818 316.582,420.624 320.383,418.429 324.186,416.235 			"/>
		</g>
	</g>
	<g>
		
			<linearGradient id="SVGID_11_" gradientUnits="userSpaceOnUse" x1="471.5674" y1="366.3975" x2="476.834" y2="366.3975" gradientTransform="matrix(0.866 0.5 -1 0.5774 245.7134 -32.4219)">
			<stop  offset="0" style="stop-color:#E84F1D"/>
			<stop  offset="1" style="stop-color:#C14518"/>
		</linearGradient>
		<polygon fill="url(#SVGID_11_)" points="289.974,413.602 285.412,416.235 289.974,418.868 294.535,416.235 		"/>
		
			<linearGradient id="SVGID_12_" gradientUnits="userSpaceOnUse" x1="480.3457" y1="358.7949" x2="485.6133" y2="358.7949" gradientTransform="matrix(0.866 0.5 -1 0.5774 245.7134 -32.4219)">
			<stop  offset="0" style="stop-color:#E84F1D"/>
			<stop  offset="1" style="stop-color:#C14518"/>
		</linearGradient>
		<polygon fill="url(#SVGID_12_)" points="300.617,416.235 305.18,418.868 309.74,416.235 305.178,413.602 		"/>
		<g>
			
				<linearGradient id="SVGID_13_" gradientUnits="userSpaceOnUse" x1="463.2275" y1="354.9941" x2="476.3975" y2="354.9941" gradientTransform="matrix(0.866 0.5 -1 0.5774 245.7134 -32.4219)">
				<stop  offset="0" style="stop-color:#E84F1D"/>
				<stop  offset="1" style="stop-color:#C14518"/>
			</linearGradient>
			<polygon fill="url(#SVGID_13_)" points="301.377,403.067 297.576,400.872 293.775,403.067 289.974,405.262 286.172,407.457 
				289.974,409.65 293.775,407.457 297.576,405.262 301.377,407.457 305.178,409.65 308.98,407.457 305.178,405.262 			"/>
			
				<linearGradient id="SVGID_14_" gradientUnits="userSpaceOnUse" x1="480.7842" y1="370.1982" x2="493.9541" y2="370.1982" gradientTransform="matrix(0.866 0.5 -1 0.5774 245.7134 -32.4219)">
				<stop  offset="0" style="stop-color:#E84F1D"/>
				<stop  offset="1" style="stop-color:#C14518"/>
			</linearGradient>
			<polygon fill="url(#SVGID_14_)" points="305.178,422.818 301.379,425.014 297.577,427.209 293.775,425.014 289.974,422.818 
				286.172,425.014 289.974,427.209 293.775,429.403 297.577,431.598 301.379,429.403 305.18,427.209 308.979,425.014 			"/>
		</g>
	</g>
</g>
</svg>
