<?xml version="1.0" encoding="utf-8"?>
<!-- Generator: Adobe Illustrator 15.1.0, SVG Export Plug-In . SVG Version: 6.00 Build 0)  -->
<!DOCTYPE svg PUBLIC "-//W3C//DTD SVG 1.1//EN" "http://www.w3.org/Graphics/SVG/1.1/DTD/svg11.dtd">
<svg version="1.1"
	 id="Calque_1" sodipodi:docname="plaza.svg" inkscape:version="0.91 r13725" xmlns:sodipodi="http://sodipodi.sourceforge.net/DTD/sodipodi-0.dtd" xmlns:inkscape="http://www.inkscape.org/namespaces/inkscape" xmlns:rdf="http://www.w3.org/1999/02/22-rdf-syntax-ns#" xmlns:svg="http://www.w3.org/2000/svg" xmlns:cc="http://creativecommons.org/ns#" xmlns:dc="http://purl.org/dc/elements/1.1/"
	 xmlns="http://www.w3.org/2000/svg" xmlns:xlink="http://www.w3.org/1999/xlink" x="0px" y="0px" width="109.916px"
	 height="63.455px" viewBox="0 -3.148 109.916 63.455" enable-background="new 0 -3.148 109.916 63.455" xml:space="preserve">
<g id="g3" transform="translate(-242.61838,-387.65365)">
	<g id="g51">
		
			<linearGradient id="polygon58_1_" gradientUnits="userSpaceOnUse" x1="984.9211" y1="278.6307" x2="989.4752" y2="283.1848" gradientTransform="matrix(0.866 0.5 1 -0.5774 -838.244 65.3066)">
			<stop  offset="0" style="stop-color:#1E1E1C"/>
			<stop  offset="1" style="stop-color:#292929"/>
		</linearGradient>
		<polygon id="polygon58" fill="url(#polygon58_1_)" points="297.578,399.15 301.805,396.71 297.578,394.268 293.35,396.71 		"/>
		
			<linearGradient id="polygon65_1_" gradientUnits="userSpaceOnUse" x1="984.9202" y1="249.3661" x2="989.4729" y2="244.8134" gradientTransform="matrix(0.866 0.5 1 -0.5774 -838.244 65.3066)">
			<stop  offset="0" style="stop-color:#1E1E1C"/>
			<stop  offset="1" style="stop-color:#292929"/>
		</linearGradient>
		<polygon id="polygon65" fill="url(#polygon65_1_)" points="267.985,416.235 263.758,413.795 259.53,416.235 263.758,418.675 		"/>
		
			<linearGradient id="polygon72_1_" gradientUnits="userSpaceOnUse" x1="1023.9739" y1="283.184" x2="1028.5266" y2="278.6313" gradientTransform="matrix(0.866 0.5 1 -0.5774 -838.244 65.3066)">
			<stop  offset="0" style="stop-color:#1E1E1C"/>
			<stop  offset="1" style="stop-color:#292929"/>
		</linearGradient>
		<polygon id="polygon72" fill="url(#polygon72_1_)" points="331.399,413.795 327.17,416.235 331.399,418.675 335.624,416.235 		"/>
		
			<linearGradient id="polygon79_1_" gradientUnits="userSpaceOnUse" x1="1023.9729" y1="244.8124" x2="1028.5291" y2="249.3685" gradientTransform="matrix(0.866 0.5 1 -0.5774 -838.244 65.3066)">
			<stop  offset="0" style="stop-color:#1E1E1C"/>
			<stop  offset="1" style="stop-color:#292929"/>
		</linearGradient>
		<polygon id="polygon79" fill="url(#polygon79_1_)" points="297.578,433.321 293.35,435.761 297.578,438.203 301.807,435.761 		"/>
	</g>
	<path id="path81" inkscape:connector-curvature="0" fill="#245778" d="M339.852,413.795l-4.228-2.441l-4.226-2.441l-4.229-2.44
		l-4.229-2.44l-4.228-2.441l-4.229-2.441l-4.227-2.44l-4.229-2.442l-4.227-2.44l-4.228-2.441l-4.228,2.441l-4.228,2.44l-4.228,2.442
		l-4.227,2.44l-4.227,2.441l-4.229,2.441l-4.226,2.44l-4.228,2.44l-4.228,2.441l-4.226,2.441l-4.229,2.44l4.229,2.44l4.226,2.44
		l4.228,2.441l4.228,2.44l4.227,2.44l4.229,2.44l4.227,2.441l4.227,2.439l4.228,2.439l4.228,2.44l4.228,2.439l4.229-2.439
		l4.227-2.439l4.227-2.44l4.229-2.438l4.228-2.441l4.227-2.439l4.228-2.441l4.229-2.441l4.226-2.439l4.228-2.442l4.229-2.44
		L339.852,413.795L339.852,413.795z M331.399,418.675l-4.229,2.442l-4.228,2.439l-4.229,2.441l-4.229,2.441l-4.227,2.439
		l-4.227,2.441l-4.227,2.438l-4.229,2.44l-4.228-2.44l-4.228-2.438l-4.228-2.441l-4.227-2.439l-4.227-2.441l-4.229-2.441
		l-4.227-2.439l-4.228-2.442l-4.228-2.44l4.228-2.44l4.228-2.441l4.227-2.441l4.229-2.44l4.227-2.44l4.227-2.441l4.228-2.441
		l4.227-2.44l4.228-2.442l4.227,2.442l4.228,2.44l4.228,2.441l4.229,2.441l4.229,2.44l4.228,2.44l4.227,2.441l4.229,2.441
		l4.226,2.44L331.399,418.675L331.399,418.675z"/>
	<g id="g83">
		
			<linearGradient id="path90_1_" gradientUnits="userSpaceOnUse" x1="984.7561" y1="263.9989" x2="1028.6926" y2="263.9989" gradientTransform="matrix(0.866 0.5 1 -0.5774 -838.244 65.3066)">
			<stop  offset="0" style="stop-color:#F6DDC0"/>
			<stop  offset="1" style="stop-color:#DAC5AC"/>
		</linearGradient>
		<path id="path90" inkscape:connector-curvature="0" fill="url(#path90_1_)" d="M327.17,416.235l-4.229,2.44l-4.227,2.442
			l-4.228,2.439l-4.229-2.439l4.229-2.442l4.228-2.44l-4.228-2.44l-4.229-2.441l4.229-2.441l4.229,2.441l4.226,2.441L327.17,416.235
			l4.229-2.44l-4.229-2.441l-4.229-2.441l-4.227-2.44l-4.228-2.44l-4.229-2.441l-4.228-2.441l-4.227-2.44l-4.229,2.44l4.229,2.441
			l4.227,2.441l4.229,2.44l-4.229,2.44l-4.227-2.44l-4.229-2.44l-4.228,2.44l-4.226,2.44l-4.227-2.44l4.227-2.44l4.226-2.441
			l4.228-2.441l-4.228-2.44l-4.226,2.44l-4.227,2.441l-4.228,2.441l-4.225,2.44l-4.228,2.44l-4.229,2.441l-4.227,2.441l4.227,2.44
			l4.229-2.44l4.228-2.441l4.225-2.441l4.228,2.441l-4.228,2.441l-4.225,2.44l4.225,2.44l4.228,2.442l-4.228,2.439l-4.225-2.439
			l-4.228-2.442l-4.229-2.44l-4.227,2.44l4.227,2.442l4.229,2.439l4.228,2.441l4.225,2.441l4.228,2.439l4.228,2.441l4.228,2.438
			l4.228-2.438l-4.228-2.441l-4.228-2.439l-4.228-2.441l4.228-2.441l4.228,2.441l4.228,2.441l4.229-2.441l4.225-2.441l4.229,2.441
			l-4.228,2.441l-4.226,2.439l-4.229,2.441l4.229,2.438l4.226-2.438l4.228-2.441l4.228-2.439l4.228-2.441l4.229-2.441l4.229-2.439
			l4.229-2.442L327.17,416.235L327.17,416.235z M289.123,418.675l-4.228-2.44l4.227-2.44l4.226,2.44L289.123,418.675z
			 M297.578,413.795l-4.228-2.441l4.228-2.441l4.227,2.441L297.578,413.795z M306.031,413.795l4.229,2.44l-4.229,2.44l-4.227-2.44
			L306.031,413.795z M297.578,423.556l-4.228-2.439l4.228-2.442l4.227,2.442L297.578,423.556z"/>
		
			<linearGradient id="path97_1_" gradientUnits="userSpaceOnUse" x1="977.1155" y1="234.3959" x2="1036.326" y2="293.6064" gradientTransform="matrix(0.866 0.5 1 -0.5774 -838.244 65.3066)">
			<stop  offset="0" style="stop-color:#F6DDC0"/>
			<stop  offset="1" style="stop-color:#DAC5AC"/>
		</linearGradient>
		<path id="path97" inkscape:connector-curvature="0" fill="url(#path97_1_)" d="M348.309,413.795l-4.229-2.441l-4.229-2.441
			l-4.229-2.44l-4.227-2.44l-4.229-2.441l-4.227-2.441l-4.228-2.44l-4.229-2.442l-4.229-2.44l-4.228-2.441l-4.227-2.44l-4.228-2.441
			l-4.228,2.441l-4.227,2.44l-4.229,2.441l-4.227,2.44l-4.227,2.442l-4.229,2.44l-4.227,2.441l-4.228,2.441l-4.227,2.44l-4.226,2.44
			l-4.228,2.441l-4.227,2.441l-4.228,2.44l4.228,2.44l4.227,2.44l4.228,2.441l4.226,2.44l4.227,2.44l4.229,2.44l4.227,2.441
			l4.228,2.439l4.227,2.439l4.227,2.44l4.229,2.439l4.227,2.441l4.229,2.441l4.229-2.441l4.227-2.441l4.228-2.439l4.227-2.439
			l4.23-2.44l4.226-2.438l4.229-2.441l4.228-2.439l4.226-2.441l4.229-2.441l4.229-2.439l4.229-2.442l4.226-2.44L348.309,413.795
			L348.309,413.795z M339.852,418.675l-4.228,2.442l-4.226,2.439l-4.229,2.441l-4.228,2.441l-4.227,2.439l-4.228,2.441l-4.229,2.438
			l-4.227,2.44l-4.227,2.439l-4.229,2.439l-4.228-2.439l-4.228-2.44l-4.228-2.439l-4.227-2.439l-4.227-2.441l-4.229-2.44
			l-4.227-2.44l-4.228-2.44l-4.228-2.441l-4.226-2.44l-4.229-2.44l4.229-2.44l4.226-2.441l4.228-2.441l4.228-2.44l4.226-2.44
			l4.229-2.441l4.227-2.441l4.227-2.44l4.228-2.442l4.228-2.44l4.228-2.441l4.228,2.441l4.227,2.44l4.229,2.442l4.227,2.44
			l4.229,2.441l4.228,2.441l4.229,2.44l4.229,2.44l4.226,2.441l4.228,2.441l4.229,2.44L339.852,418.675L339.852,418.675z"/>
	</g>
	<g id="g99">
		
			<linearGradient id="polygon106_1_" gradientUnits="userSpaceOnUse" x1="1001.842" y1="265.6903" x2="1001.842" y2="270.7631" gradientTransform="matrix(0.866 0.5 1 -0.5774 -838.244 65.3066)">
			<stop  offset="0" style="stop-color:#BE1B23"/>
			<stop  offset="1" style="stop-color:#9C191B"/>
		</linearGradient>
		<polygon id="polygon106" fill="url(#polygon106_1_)" points="297.578,414.282 302.651,411.354 297.578,408.425 292.504,411.354 		
			"/>
		
			<linearGradient id="polygon113_1_" gradientUnits="userSpaceOnUse" x1="1011.6047" y1="257.2362" x2="1011.6047" y2="262.309" gradientTransform="matrix(0.866 0.5 1 -0.5774 -838.244 65.3066)">
			<stop  offset="0" style="stop-color:#BE1B23"/>
			<stop  offset="1" style="stop-color:#9C191B"/>
		</linearGradient>
		<polygon id="polygon113" fill="url(#polygon113_1_)" points="297.578,418.189 292.504,421.117 297.578,424.045 302.651,421.117 		
			"/>
		<g id="g115">
			
				<linearGradient id="polygon122_1_" gradientUnits="userSpaceOnUse" x1="996.9592" y1="249.2045" x2="996.9592" y2="261.8866" gradientTransform="matrix(0.866 0.5 1 -0.5774 -838.244 65.3066)">
				<stop  offset="0" style="stop-color:#BE1B23"/>
				<stop  offset="1" style="stop-color:#9C191B"/>
			</linearGradient>
			<polygon id="polygon122" fill="url(#polygon122_1_)" points="280.667,408.911 276.442,411.354 272.214,413.795 267.985,416.235 
				272.214,418.675 276.442,421.117 280.667,423.556 284.895,421.117 280.667,418.675 276.442,416.235 280.667,413.795 
				284.895,411.354 			"/>
			
				<linearGradient id="polygon129_1_" gradientUnits="userSpaceOnUse" x1="1016.4866" y1="266.1127" x2="1016.4866" y2="278.7968" gradientTransform="matrix(0.866 0.5 1 -0.5774 -838.244 65.3066)">
				<stop  offset="0" style="stop-color:#BE1B23"/>
				<stop  offset="1" style="stop-color:#9C191B"/>
			</linearGradient>
			<polygon id="polygon129" fill="url(#polygon129_1_)" points="310.258,411.354 314.488,413.795 318.715,416.235 314.488,418.675 
				310.258,421.117 314.488,423.556 318.715,421.117 322.942,418.675 327.17,416.235 322.943,413.795 318.717,411.354 
				314.488,408.911 			"/>
		</g>
	</g>
	<g id="g131">
		
			<linearGradient id="polygon138_1_" gradientUnits="userSpaceOnUse" x1="998.9114" y1="259.7719" x2="1004.7698" y2="259.7719" gradientTransform="matrix(0.866 0.5 1 -0.5774 -838.244 65.3066)">
			<stop  offset="0" style="stop-color:#E84F1D"/>
			<stop  offset="1" style="stop-color:#C14518"/>
		</linearGradient>
		<polygon id="polygon138" fill="url(#polygon138_1_)" points="294.195,416.235 289.123,413.307 284.049,416.235 289.123,419.163 		
			"/>
		
			<linearGradient id="polygon145_1_" gradientUnits="userSpaceOnUse" x1="1008.676" y1="268.2269" x2="1014.5334" y2="268.2269" gradientTransform="matrix(0.866 0.5 1 -0.5774 -838.244 65.3066)">
			<stop  offset="0" style="stop-color:#E84F1D"/>
			<stop  offset="1" style="stop-color:#C14518"/>
		</linearGradient>
		<polygon id="polygon145" fill="url(#polygon145_1_)" points="306.031,413.307 300.96,416.235 306.032,419.163 311.105,416.235 		
			"/>
		<g id="g147">
			
				<linearGradient id="polygon154_1_" gradientUnits="userSpaceOnUse" x1="989.6379" y1="272.4535" x2="1004.2834" y2="272.4535" gradientTransform="matrix(0.866 0.5 1 -0.5774 -838.244 65.3066)">
				<stop  offset="0" style="stop-color:#E84F1D"/>
				<stop  offset="1" style="stop-color:#C14518"/>
			</linearGradient>
			<polygon id="polygon154" fill="url(#polygon154_1_)" points="289.123,404.032 284.895,406.472 289.123,408.911 293.35,406.472 
				297.578,404.032 301.805,406.472 306.031,408.911 310.26,406.472 306.031,404.032 301.805,401.591 297.578,399.15 
				293.35,401.591 			"/>
			
				<linearGradient id="polygon161_1_" gradientUnits="userSpaceOnUse" x1="1009.1633" y1="255.5443" x2="1023.8118" y2="255.5443" gradientTransform="matrix(0.866 0.5 1 -0.5774 -838.244 65.3066)">
				<stop  offset="0" style="stop-color:#E84F1D"/>
				<stop  offset="1" style="stop-color:#C14518"/>
			</linearGradient>
			<polygon id="polygon161" fill="url(#polygon161_1_)" points="293.35,425.999 289.123,423.556 284.895,425.999 289.123,428.439 
				293.35,430.881 297.578,433.321 301.807,430.881 306.032,428.439 310.258,425.999 306.031,423.556 301.807,425.999 
				297.578,428.439 			"/>
		</g>
	</g>
</g>
</svg>
