<?xml version="1.0" encoding="utf-8"?>
<!-- Generator: Adobe Illustrator 15.1.0, SVG Export Plug-In . SVG Version: 6.00 Build 0)  -->
<!DOCTYPE svg PUBLIC "-//W3C//DTD SVG 1.1//EN" "http://www.w3.org/Graphics/SVG/1.1/DTD/svg11.dtd">
<svg version="1.1" id="Calque_1" xmlns="http://www.w3.org/2000/svg" xmlns:xlink="http://www.w3.org/1999/xlink" x="0px" y="0px"
	 width="60.182px" height="48.843px" viewBox="0 0 60.182 48.843" enable-background="new 0 0 60.182 48.843" xml:space="preserve">
<g>
	<polyline fill="#747474" points="27.621,21.845 27.621,21.935 27.489,22.308 27.387,20.777 27.551,20.802 27.621,21.845 	"/>
	<polyline fill="#FFFFFF" points="26.699,16.259 26.725,16.186 27.249,16.264 27.223,16.337 26.699,16.259 	"/>
	<polyline fill="#A3352E" points="24.995,20.422 24.168,16.209 29.27,16.966 28.994,21.016 27.551,20.802 27.387,20.777 
		26.863,20.701 24.995,20.422 	"/>
	<polyline fill="#611C18" points="28.994,21.016 29.27,16.966 29.379,16.657 29.103,20.707 28.994,21.016 	"/>
	<polyline fill="#EB5952" points="29.27,16.966 24.168,16.209 24.277,15.9 26.699,16.259 27.223,16.337 27.254,16.341 
		29.379,16.657 29.27,16.966 	"/>
	<polyline fill="#747474" points="27.223,16.337 27.249,16.264 27.254,16.341 27.223,16.337 	"/>
	<polyline fill="#C1C0C0" points="26.965,22.231 26.863,20.701 27.387,20.777 27.489,22.308 26.965,22.231 	"/>
	<polyline fill="#E0E0E0" points="14.035,36.7 14.035,35.927 39.456,39.859 39.456,40.633 14.035,36.7 	"/>
	<polyline fill="#CC463D" points="33.168,0.025 44.85,6.763 43.322,10.056 38.817,19.762 27.135,13.024 33.168,0.025 	"/>
	<polyline fill="#BD3F38" points="27.135,13.024 38.817,19.762 38.299,20.558 37.754,20.245 27.135,14.119 16.979,16.833 
		15.969,17.104 15.451,16.147 27.135,13.024 	"/>
	<polyline fill="#747474" points="38.299,20.558 38.817,19.762 43.322,10.056 43.322,24.728 43.322,26.166 37.754,38.16 
		37.754,20.245 38.299,20.558 	"/>
	<path fill="#E0E0E0" d="M27.621,21.935v-0.09l-0.07-1.043l1.443,0.214l0.109-0.31l0.277-4.05l-2.125-0.315l-0.005-0.077
		l-0.524-0.078l-0.026,0.073L24.277,15.9l-0.109,0.31l0.827,4.213l1.868,0.278l0.102,1.53l0.524,0.077L27.621,21.935 M37.754,20.245
		V38.16l-6.389-0.988v-0.897V24.572l-7.609-1.178l-0.388-0.06v12.601l-6.389-0.99v-5.362V16.833l10.156-2.715L37.754,20.245"/>
	<polyline fill="#747474" points="23.369,35.935 23.369,23.334 23.756,23.394 23.756,35.097 23.369,35.935 	"/>
	<polyline fill="#EB5851" points="27.135,13.024 15.451,16.147 21.483,3.148 33.168,0.025 27.135,13.024 	"/>
	<polyline fill="#747474" points="39.456,40.633 39.456,39.859 46.266,25.184 46.266,25.957 39.456,40.633 	"/>
	<polyline fill="#E0E0E0" points="23.756,35.097 23.756,23.394 31.366,24.572 31.366,36.274 23.756,35.097 	"/>
	<polyline fill="#FFFFFF" points="46.266,25.184 39.456,39.859 14.035,35.927 16.979,29.583 16.979,34.945 23.369,35.935 
		23.756,35.097 31.366,36.274 31.366,37.171 37.754,38.16 43.322,26.166 43.322,24.728 46.266,25.184 	"/>
	
		<line fill="none" stroke="#010202" stroke-width="0.05" stroke-linecap="round" stroke-linejoin="round" stroke-miterlimit="10" x1="38.817" y1="19.762" x2="27.135" y2="13.024"/>
	
		<line fill="none" stroke="#010202" stroke-width="0.05" stroke-linecap="round" stroke-linejoin="round" stroke-miterlimit="10" x1="37.754" y1="38.16" x2="37.754" y2="20.245"/>
	
		<line fill="none" stroke="#010202" stroke-width="0.05" stroke-linecap="round" stroke-linejoin="round" stroke-miterlimit="10" x1="23.369" y1="23.334" x2="23.369" y2="35.934"/>
	
		<line fill="none" stroke="#010202" stroke-width="0.05" stroke-linecap="round" stroke-linejoin="round" stroke-miterlimit="10" x1="27.135" y1="13.024" x2="15.451" y2="16.147"/>
	
		<line fill="none" stroke="#010202" stroke-width="0.05" stroke-linecap="round" stroke-linejoin="round" stroke-miterlimit="10" x1="39.456" y1="39.859" x2="39.456" y2="40.633"/>
	
		<line fill="none" stroke="#010202" stroke-width="0.05" stroke-linecap="round" stroke-linejoin="round" stroke-miterlimit="10" x1="23.756" y1="23.394" x2="23.756" y2="35.097"/>
	
		<line fill="none" stroke="#010202" stroke-width="0.05" stroke-linecap="round" stroke-linejoin="round" stroke-miterlimit="10" x1="46.266" y1="25.184" x2="39.456" y2="39.859"/>
	
		<line fill="none" stroke="#010202" stroke-width="0.05" stroke-linecap="round" stroke-linejoin="round" stroke-miterlimit="10" x1="39.456" y1="39.859" x2="14.035" y2="35.927"/>
	
		<polyline fill="none" stroke="#010202" stroke-width="0.05" stroke-linecap="round" stroke-linejoin="round" stroke-miterlimit="10" points="
		43.322,26.166 37.754,38.16 31.366,37.171 	"/>
	
		<line fill="none" stroke="#010202" stroke-width="0.05" stroke-linecap="round" stroke-linejoin="round" stroke-miterlimit="10" x1="31.366" y1="36.274" x2="23.756" y2="35.097"/>
	
		<line fill="none" stroke="#010202" stroke-width="0.05" stroke-linecap="round" stroke-linejoin="round" stroke-miterlimit="10" x1="23.369" y1="35.934" x2="23.756" y2="35.097"/>
	
		<line fill="none" stroke="#010202" stroke-width="0.05" stroke-linecap="round" stroke-linejoin="round" stroke-miterlimit="10" x1="23.369" y1="35.934" x2="16.979" y2="34.945"/>
	
		<line fill="none" stroke="#010202" stroke-width="0.05" stroke-linecap="round" stroke-linejoin="round" stroke-miterlimit="10" x1="27.135" y1="13.024" x2="33.168" y2="0.025"/>
	
		<line fill="none" stroke="#010202" stroke-width="0.05" stroke-linecap="round" stroke-linejoin="round" stroke-miterlimit="10" x1="28.994" y1="21.016" x2="29.27" y2="16.966"/>
	
		<line fill="none" stroke="#010202" stroke-width="0.05" stroke-linecap="round" stroke-linejoin="round" stroke-miterlimit="10" x1="29.27" y1="16.966" x2="24.168" y2="16.209"/>
	
		<line fill="none" stroke="#010202" stroke-width="0.05" stroke-linecap="round" stroke-linejoin="round" stroke-miterlimit="10" x1="27.249" y1="16.264" x2="27.223" y2="16.337"/>
	
		<line fill="none" stroke="#010202" stroke-width="0.05" stroke-linecap="round" stroke-linejoin="round" stroke-miterlimit="10" x1="29.379" y1="16.657" x2="29.27" y2="16.966"/>
	
		<line fill="none" stroke="#010202" stroke-width="0.05" stroke-linecap="round" stroke-linejoin="round" stroke-miterlimit="10" x1="27.489" y1="22.308" x2="27.387" y2="20.777"/>
	
		<line fill="none" stroke="#010202" stroke-width="0.05" stroke-linecap="round" stroke-linejoin="round" stroke-miterlimit="10" x1="14.035" y1="35.927" x2="14.035" y2="36.7"/>
	
		<line fill="none" stroke="#010202" stroke-width="0.05" stroke-linecap="round" stroke-linejoin="round" stroke-miterlimit="10" x1="38.299" y1="20.558" x2="38.817" y2="19.762"/>
	
		<line fill="none" stroke="#010202" stroke-width="0.05" stroke-linecap="round" stroke-linejoin="round" stroke-miterlimit="10" x1="33.168" y1="0.025" x2="44.85" y2="6.763"/>
	
		<line fill="none" stroke="#010202" stroke-width="0.05" stroke-linecap="round" stroke-linejoin="round" stroke-miterlimit="10" x1="15.969" y1="17.104" x2="15.451" y2="16.147"/>
	
		<polyline fill="none" stroke="#010202" stroke-width="0.05" stroke-linecap="round" stroke-linejoin="round" stroke-miterlimit="10" points="
		46.266,25.184 46.266,25.957 39.456,40.633 	"/>
	
		<line fill="none" stroke="#010202" stroke-width="0.05" stroke-linecap="round" stroke-linejoin="round" stroke-miterlimit="10" x1="21.483" y1="3.148" x2="33.168" y2="0.025"/>
	
		<line fill="none" stroke="#010202" stroke-width="0.05" stroke-linecap="round" stroke-linejoin="round" stroke-miterlimit="10" x1="15.451" y1="16.147" x2="21.483" y2="3.148"/>
	
		<line fill="none" stroke="#010202" stroke-width="0.05" stroke-linecap="round" stroke-linejoin="round" stroke-miterlimit="10" x1="43.322" y1="24.728" x2="46.266" y2="25.184"/>
	
		<line fill="none" stroke="#010202" stroke-width="0.05" stroke-linecap="round" stroke-linejoin="round" stroke-miterlimit="10" x1="14.035" y1="35.927" x2="16.979" y2="29.583"/>
	
		<line fill="none" stroke="#010202" stroke-width="0.05" stroke-linecap="round" stroke-linejoin="round" stroke-miterlimit="10" x1="39.456" y1="40.633" x2="14.035" y2="36.7"/>
	
		<line fill="none" stroke="#010202" stroke-width="0.05" stroke-linecap="round" stroke-linejoin="round" stroke-miterlimit="10" x1="26.699" y1="16.258" x2="26.725" y2="16.186"/>
	
		<line fill="none" stroke="#010202" stroke-width="0.05" stroke-linecap="round" stroke-linejoin="round" stroke-miterlimit="10" x1="24.995" y1="20.422" x2="24.168" y2="16.209"/>
	
		<line fill="none" stroke="#010202" stroke-width="0.05" stroke-linecap="round" stroke-linejoin="round" stroke-miterlimit="10" x1="29.103" y1="20.707" x2="28.994" y2="21.016"/>
	
		<line fill="none" stroke="#010202" stroke-width="0.05" stroke-linecap="round" stroke-linejoin="round" stroke-miterlimit="10" x1="29.103" y1="20.707" x2="29.379" y2="16.657"/>
	
		<line fill="none" stroke="#010202" stroke-width="0.05" stroke-linecap="round" stroke-linejoin="round" stroke-miterlimit="10" x1="26.965" y1="22.231" x2="26.863" y2="20.701"/>
	
		<line fill="none" stroke="#010202" stroke-width="0.05" stroke-linecap="round" stroke-linejoin="round" stroke-miterlimit="10" x1="24.168" y1="16.209" x2="24.277" y2="15.9"/>
	
		<line fill="none" stroke="#010202" stroke-width="0.05" stroke-linecap="round" stroke-linejoin="round" stroke-miterlimit="10" x1="27.621" y1="21.845" x2="27.551" y2="20.802"/>
	
		<line fill="none" stroke="#010202" stroke-width="0.05" stroke-linecap="round" stroke-linejoin="round" stroke-miterlimit="10" x1="27.254" y1="16.341" x2="27.249" y2="16.264"/>
	
		<line fill="none" stroke="#010202" stroke-width="0.05" stroke-linecap="round" stroke-linejoin="round" stroke-miterlimit="10" x1="26.725" y1="16.186" x2="27.249" y2="16.264"/>
	
		<line fill="none" stroke="#010202" stroke-width="0.05" stroke-linecap="round" stroke-linejoin="round" stroke-miterlimit="10" x1="27.621" y1="21.935" x2="27.489" y2="22.308"/>
	
		<polyline fill="none" stroke="#010202" stroke-width="0.05" stroke-linecap="round" stroke-linejoin="round" stroke-miterlimit="10" points="
		43.322,10.056 43.322,24.728 43.322,26.166 	"/>
	
		<polyline fill="none" stroke="#010202" stroke-width="0.05" stroke-linecap="round" stroke-linejoin="round" stroke-miterlimit="10" points="
		44.85,6.763 43.322,10.056 38.817,19.762 	"/>
	
		<polyline fill="none" stroke="#010202" stroke-width="0.05" stroke-linecap="round" stroke-linejoin="round" stroke-miterlimit="10" points="
		23.369,23.334 23.756,23.394 31.366,24.572 31.366,36.274 31.366,37.171 	"/>
	
		<line fill="none" stroke="#010202" stroke-width="0.05" stroke-linecap="round" stroke-linejoin="round" stroke-miterlimit="10" x1="16.979" y1="16.833" x2="27.135" y2="14.119"/>
	
		<line fill="none" stroke="#010202" stroke-width="0.05" stroke-linecap="round" stroke-linejoin="round" stroke-miterlimit="10" x1="37.754" y1="20.245" x2="38.299" y2="20.558"/>
	
		<polyline fill="none" stroke="#010202" stroke-width="0.05" stroke-linecap="round" stroke-linejoin="round" stroke-miterlimit="10" points="
		16.979,16.833 16.979,29.583 16.979,34.945 	"/>
	
		<line fill="none" stroke="#010202" stroke-width="0.05" stroke-linecap="round" stroke-linejoin="round" stroke-miterlimit="10" x1="24.995" y1="20.422" x2="26.863" y2="20.701"/>
	
		<line fill="none" stroke="#010202" stroke-width="0.05" stroke-linecap="round" stroke-linejoin="round" stroke-miterlimit="10" x1="26.699" y1="16.258" x2="24.277" y2="15.9"/>
	
		<line fill="none" stroke="#010202" stroke-width="0.05" stroke-linecap="round" stroke-linejoin="round" stroke-miterlimit="10" x1="27.551" y1="20.802" x2="28.994" y2="21.016"/>
	
		<line fill="none" stroke="#010202" stroke-width="0.05" stroke-linecap="round" stroke-linejoin="round" stroke-miterlimit="10" x1="27.223" y1="16.337" x2="26.699" y2="16.258"/>
	
		<polyline fill="none" stroke="#010202" stroke-width="0.05" stroke-linecap="round" stroke-linejoin="round" stroke-miterlimit="10" points="
		26.863,20.701 27.387,20.777 27.551,20.802 	"/>
	
		<polyline fill="none" stroke="#010202" stroke-width="0.05" stroke-linecap="round" stroke-linejoin="round" stroke-miterlimit="10" points="
		29.379,16.657 27.254,16.341 27.223,16.337 	"/>
	
		<line fill="none" stroke="#010202" stroke-width="0.05" stroke-linecap="round" stroke-linejoin="round" stroke-miterlimit="10" x1="15.969" y1="17.104" x2="16.979" y2="16.833"/>
	
		<line fill="none" stroke="#010202" stroke-width="0.05" stroke-linecap="round" stroke-linejoin="round" stroke-miterlimit="10" x1="27.135" y1="14.119" x2="37.754" y2="20.245"/>
	
		<line fill="none" stroke="#010202" stroke-width="0.05" stroke-linecap="round" stroke-linejoin="round" stroke-miterlimit="10" x1="26.965" y1="22.231" x2="27.489" y2="22.308"/>
	
		<line fill="none" stroke="#010202" stroke-width="0.05" stroke-linecap="round" stroke-linejoin="round" stroke-miterlimit="10" x1="60.157" y1="31.459" x2="43.322" y2="21.74"/>
	
		<line fill="none" stroke="#010202" stroke-width="0.05" stroke-linecap="round" stroke-linejoin="round" stroke-miterlimit="10" x1="16.979" y1="21.671" x2="0.025" y2="31.459"/>
	
		<line fill="none" stroke="#010202" stroke-width="0.05" stroke-linecap="round" stroke-linejoin="round" stroke-miterlimit="10" x1="30.091" y1="48.818" x2="60.157" y2="31.459"/>
	
		<line fill="none" stroke="#010202" stroke-width="0.05" stroke-linecap="round" stroke-linejoin="round" stroke-miterlimit="10" x1="0.025" y1="31.459" x2="30.091" y2="48.818"/>
</g>
</svg>
